<svg xmlns="http://www.w3.org/2000/svg" xmlns:xlink="http://www.w3.org/1999/xlink" xmlns:s="https://github.com/nturley/netlistsvg" width="587" height="305">
  <style>svg {
    stroke:#000;
    fill:none;
  }
  text {
    fill:#000;
    stroke:none;
    font-size:10px;
    font-weight: bold;
    font-family: "Courier New", monospace;
  }
  .nodelabel {
    text-anchor: middle;
  }
  .inputPortLabel {
    text-anchor: end;
  }
  .splitjoinBody {
    fill:#000;
  }</style>
  <g s:type="generic" transform="translate(424,77)" s:width="30" s:height="40" id="cell_acc_reg">
    <text x="15" y="-4" class="nodelabel cell_acc_reg" s:attribute="ref">mac_register_16</text>
    <rect width="30" height="80" s:generic="body" class="cell_acc_reg"/>
    <g transform="translate(0,10)" s:x="0" s:y="10" s:pid="in0" id="port_acc_reg~clk">
      <text x="-3" y="-4" class="inputPortLabel cell_acc_reg">clk</text>
    </g>
    <g transform="translate(0,30)" s:x="0" s:y="10" s:pid="in0" id="port_acc_reg~data_in">
      <text x="-3" y="-4" class="inputPortLabel cell_acc_reg">data_in</text>
    </g>
    <g transform="translate(0,50)" s:x="0" s:y="10" s:pid="in0" id="port_acc_reg~en">
      <text x="-3" y="-4" class="inputPortLabel cell_acc_reg">en</text>
    </g>
    <g transform="translate(0,70)" s:x="0" s:y="10" s:pid="in0" id="port_acc_reg~rst">
      <text x="-3" y="-4" class="inputPortLabel cell_acc_reg">rst</text>
    </g>
    <g transform="translate(30,10)" s:x="30" s:y="10" s:pid="out0" id="port_acc_reg~data_out">
      <text x="5" y="-4" style="fill:#000; stroke:none" class="cell_acc_reg">data_out</text>
    </g>
  </g>
  <g s:type="generic" transform="translate(288.3333333333333,97)" s:width="30" s:height="40" id="cell_add_inst">
    <text x="15" y="-4" class="nodelabel cell_add_inst" s:attribute="ref">kogge</text>
    <rect width="30" height="40" s:generic="body" class="cell_add_inst"/>
    <g transform="translate(0,10)" s:x="0" s:y="10" s:pid="in0" id="port_add_inst~A">
      <text x="-3" y="-4" class="inputPortLabel cell_add_inst">A</text>
    </g>
    <g transform="translate(0,30)" s:x="0" s:y="10" s:pid="in0" id="port_add_inst~B">
      <text x="-3" y="-4" class="inputPortLabel cell_add_inst">B</text>
    </g>
    <g transform="translate(30,10)" s:x="30" s:y="10" s:pid="out0" id="port_add_inst~SUM">
      <text x="5" y="-4" style="fill:#000; stroke:none" class="cell_add_inst">SUM</text>
    </g>
  </g>
  <g s:type="generic" transform="translate(290,250)" s:width="30" s:height="40" id="cell_ctrl_inst">
    <text x="15" y="-4" class="nodelabel cell_ctrl_inst" s:attribute="ref">mac_control_unit</text>
    <rect width="30" height="40" s:generic="body" class="cell_ctrl_inst"/>
    <g transform="translate(0,10)" s:x="0" s:y="10" s:pid="in0" id="port_ctrl_inst~start">
      <text x="-3" y="-4" class="inputPortLabel cell_ctrl_inst">start</text>
    </g>
    <g transform="translate(30,10)" s:x="30" s:y="10" s:pid="out0" id="port_ctrl_inst~done">
      <text x="5" y="-4" style="fill:#000; stroke:none" class="cell_ctrl_inst">done</text>
    </g>
    <g transform="translate(30,30)" s:x="30" s:y="10" s:pid="out0" id="port_ctrl_inst~en">
      <text x="5" y="-4" style="fill:#000; stroke:none" class="cell_ctrl_inst">en</text>
    </g>
  </g>
  <g s:type="generic" transform="translate(150,117)" s:width="30" s:height="40" id="cell_mult_inst">
    <text x="15" y="-4" class="nodelabel cell_mult_inst" s:attribute="ref">booth</text>
    <rect width="30" height="40" s:generic="body" class="cell_mult_inst"/>
    <g transform="translate(0,10)" s:x="0" s:y="10" s:pid="in0" id="port_mult_inst~multiplicand">
      <text x="-3" y="-4" class="inputPortLabel cell_mult_inst">multiplicand</text>
    </g>
    <g transform="translate(0,30)" s:x="0" s:y="10" s:pid="in0" id="port_mult_inst~multiplier">
      <text x="-3" y="-4" class="inputPortLabel cell_mult_inst">multiplier</text>
    </g>
    <g transform="translate(30,10)" s:x="30" s:y="10" s:pid="out0" id="port_mult_inst~product">
      <text x="5" y="-4" style="fill:#000; stroke:none" class="cell_mult_inst">product</text>
    </g>
  </g>
  <g s:type="inputExt" transform="translate(290,32)" s:width="30" s:height="20" id="cell_clk">
    <text x="15" y="-4" class="nodelabel cell_clk" s:attribute="ref">clk</text>
    <s:alias val="$_inputExt_"/>
    <path d="M0,0 L0,20 L15,20 L30,10 L15,0 Z" class="cell_clk"/>
    <g s:x="28" s:y="10" s:pid="Y"/>
  </g>
  <g s:type="inputExt" transform="translate(290,185)" s:width="30" s:height="20" id="cell_rst">
    <text x="15" y="-4" class="nodelabel cell_rst" s:attribute="ref">rst</text>
    <s:alias val="$_inputExt_"/>
    <path d="M0,0 L0,20 L15,20 L30,10 L15,0 Z" class="cell_rst"/>
    <g s:x="28" s:y="10" s:pid="Y"/>
  </g>
  <g s:type="inputExt" transform="translate(150,250.5)" s:width="30" s:height="20" id="cell_start">
    <text x="15" y="-4" class="nodelabel cell_start" s:attribute="ref">start</text>
    <s:alias val="$_inputExt_"/>
    <path d="M0,0 L0,20 L15,20 L30,10 L15,0 Z" class="cell_start"/>
    <g s:x="28" s:y="10" s:pid="Y"/>
  </g>
  <g s:type="inputExt" transform="translate(12,117.5)" s:width="30" s:height="20" id="cell_A">
    <text x="15" y="-4" class="nodelabel cell_A" s:attribute="ref">A</text>
    <s:alias val="$_inputExt_"/>
    <path d="M0,0 L0,20 L15,20 L30,10 L15,0 Z" class="cell_A"/>
    <g s:x="28" s:y="10" s:pid="Y"/>
  </g>
  <g s:type="inputExt" transform="translate(12,182.5)" s:width="30" s:height="20" id="cell_B">
    <text x="15" y="-4" class="nodelabel cell_B" s:attribute="ref">B</text>
    <s:alias val="$_inputExt_"/>
    <path d="M0,0 L0,20 L15,20 L30,10 L15,0 Z" class="cell_B"/>
    <g s:x="28" s:y="10" s:pid="Y"/>
  </g>
  <g s:type="outputExt" transform="translate(539,77.5)" s:width="30" s:height="20" id="cell_result">
    <text x="15" y="-4" class="nodelabel cell_result" s:attribute="ref">result</text>
    <s:alias val="$_outputExt_"/>
    <path d="M30,0 L30,20 L15,20 L0,10 L15,0 Z" class="cell_result"/>
    <g s:x="0" s:y="10" s:pid="A"/>
  </g>
  <g s:type="outputExt" transform="translate(539,250.5)" s:width="30" s:height="20" id="cell_done">
    <text x="15" y="-4" class="nodelabel cell_done" s:attribute="ref">done</text>
    <s:alias val="$_outputExt_"/>
    <path d="M30,0 L30,20 L15,20 L0,10 L15,0 Z" class="cell_done"/>
    <g s:x="0" s:y="10" s:pid="A"/>
  </g>
  <line x1="318" x2="356" y1="42" y2="42" class="net_2"/>
  <line x1="356" x2="356" y1="42" y2="87.5" class="net_2"/>
  <line x1="356" x2="424" y1="87.5" y2="87.5" class="net_2"/>
  <line x1="319.3333333333333" x2="424" y1="107.5" y2="107.5" class="net_38,39,40,41,42,43,44,45,46,47,48,49,50,51,52,53"/>
  <line x1="321" x2="356" y1="280.5" y2="280.5" class="net_54"/>
  <line x1="356" x2="356" y1="280.5" y2="127.5" class="net_54"/>
  <line x1="356" x2="424" y1="127.5" y2="127.5" class="net_54"/>
  <line x1="318" x2="366" y1="195" y2="195" class="net_3"/>
  <line x1="366" x2="366" y1="195" y2="147.5" class="net_3"/>
  <line x1="366" x2="424" y1="147.5" y2="147.5" class="net_3"/>
  <line x1="455" x2="514" y1="87.5" y2="87.5" class="net_21,22,23,24,25,26,27,28,29,30,31,32,33,34,35,36"/>
  <line x1="514" x2="514" y1="87.5" y2="12" class="net_21,22,23,24,25,26,27,28,29,30,31,32,33,34,35,36"/>
  <line x1="514" x2="234" y1="12" y2="12" class="net_21,22,23,24,25,26,27,28,29,30,31,32,33,34,35,36"/>
  <line x1="234" x2="234" y1="12" y2="107.5" class="net_21,22,23,24,25,26,27,28,29,30,31,32,33,34,35,36"/>
  <circle cx="514" cy="87.5" r="2" style="fill:#000" class="net_21,22,23,24,25,26,27,28,29,30,31,32,33,34,35,36"/>
  <line x1="234" x2="288.3333333333333" y1="107.5" y2="107.5" class="net_21,22,23,24,25,26,27,28,29,30,31,32,33,34,35,36"/>
  <line x1="455" x2="539" y1="87.5" y2="87.5" class="net_21,22,23,24,25,26,27,28,29,30,31,32,33,34,35,36"/>
  <line x1="181" x2="288.3333333333333" y1="127.5" y2="127.5" class="net_55,56,57,58,59,60,61,62,63,64,65,66,67,68,69,70"/>
  <line x1="178" x2="290" y1="260.5" y2="260.5" class="net_4"/>
  <line x1="40" x2="150" y1="127.5" y2="127.5" class="net_5,6,7,8,9,10,11,12"/>
  <line x1="40" x2="52" y1="192.5" y2="192.5" class="net_13,14,15,16,17,18,19,20"/>
  <line x1="52" x2="52" y1="192.5" y2="147.5" class="net_13,14,15,16,17,18,19,20"/>
  <line x1="52" x2="150" y1="147.5" y2="147.5" class="net_13,14,15,16,17,18,19,20"/>
  <line x1="321" x2="539" y1="260.5" y2="260.5" class="net_37"/>
</svg>
