<svg xmlns="http://www.w3.org/2000/svg" xmlns:xlink="http://www.w3.org/1999/xlink" xmlns:s="https://github.com/nturley/netlistsvg" width="1035" height="707.5">
  <style>svg {
    stroke:#000;
    fill:none;
  }
  text {
    fill:#000;
    stroke:none;
    font-size:10px;
    font-weight: bold;
    font-family: "Courier New", monospace;
  }
  .nodelabel {
    text-anchor: middle;
  }
  .inputPortLabel {
    text-anchor: end;
  }
  .splitjoinBody {
    fill:#000;
  }</style>
  <g s:type="generic" transform="translate(557,113.5)" s:width="30" s:height="40" id="cell_PE00">
    <text x="15" y="-4" class="nodelabel cell_PE00" s:attribute="ref">pe</text>
    <rect width="30" height="100" s:generic="body" class="cell_PE00"/>
    <g transform="translate(0,10)" s:x="0" s:y="10" s:pid="in0" id="port_PE00~A_in">
      <text x="-3" y="-4" class="inputPortLabel cell_PE00">A_in</text>
    </g>
    <g transform="translate(0,30)" s:x="0" s:y="10" s:pid="in0" id="port_PE00~B_in">
      <text x="-3" y="-4" class="inputPortLabel cell_PE00">B_in</text>
    </g>
    <g transform="translate(0,50)" s:x="0" s:y="10" s:pid="in0" id="port_PE00~clk">
      <text x="-3" y="-4" class="inputPortLabel cell_PE00">clk</text>
    </g>
    <g transform="translate(0,70)" s:x="0" s:y="10" s:pid="in0" id="port_PE00~enable">
      <text x="-3" y="-4" class="inputPortLabel cell_PE00">enable</text>
    </g>
    <g transform="translate(0,90)" s:x="0" s:y="10" s:pid="in0" id="port_PE00~rst">
      <text x="-3" y="-4" class="inputPortLabel cell_PE00">rst</text>
    </g>
    <g transform="translate(30,10)" s:x="30" s:y="10" s:pid="out0" id="port_PE00~A_out">
      <text x="5" y="-4" style="fill:#000; stroke:none" class="cell_PE00">A_out</text>
    </g>
    <g transform="translate(30,30)" s:x="30" s:y="10" s:pid="out0" id="port_PE00~Acc_out">
      <text x="5" y="-4" style="fill:#000; stroke:none" class="cell_PE00">Acc_out</text>
    </g>
    <g transform="translate(30,50)" s:x="30" s:y="10" s:pid="out0" id="port_PE00~B_out">
      <text x="5" y="-4" style="fill:#000; stroke:none" class="cell_PE00">B_out</text>
    </g>
  </g>
  <g s:type="generic" transform="translate(738,527.5)" s:width="30" s:height="40" id="cell_PE01">
    <text x="15" y="-4" class="nodelabel cell_PE01" s:attribute="ref">pe</text>
    <rect width="30" height="100" s:generic="body" class="cell_PE01"/>
    <g transform="translate(0,10)" s:x="0" s:y="10" s:pid="in0" id="port_PE01~A_in">
      <text x="-3" y="-4" class="inputPortLabel cell_PE01">A_in</text>
    </g>
    <g transform="translate(0,30)" s:x="0" s:y="10" s:pid="in0" id="port_PE01~B_in">
      <text x="-3" y="-4" class="inputPortLabel cell_PE01">B_in</text>
    </g>
    <g transform="translate(0,50)" s:x="0" s:y="10" s:pid="in0" id="port_PE01~clk">
      <text x="-3" y="-4" class="inputPortLabel cell_PE01">clk</text>
    </g>
    <g transform="translate(0,70)" s:x="0" s:y="10" s:pid="in0" id="port_PE01~enable">
      <text x="-3" y="-4" class="inputPortLabel cell_PE01">enable</text>
    </g>
    <g transform="translate(0,90)" s:x="0" s:y="10" s:pid="in0" id="port_PE01~rst">
      <text x="-3" y="-4" class="inputPortLabel cell_PE01">rst</text>
    </g>
    <g transform="translate(30,10)" s:x="30" s:y="10" s:pid="out0" id="port_PE01~Acc_out">
      <text x="5" y="-4" style="fill:#000; stroke:none" class="cell_PE01">Acc_out</text>
    </g>
    <g transform="translate(30,30)" s:x="30" s:y="10" s:pid="out0" id="port_PE01~B_out">
      <text x="5" y="-4" style="fill:#000; stroke:none" class="cell_PE01">B_out</text>
    </g>
  </g>
  <g s:type="generic" transform="translate(738,66.5)" s:width="30" s:height="40" id="cell_PE10">
    <text x="15" y="-4" class="nodelabel cell_PE10" s:attribute="ref">pe</text>
    <rect width="30" height="100" s:generic="body" class="cell_PE10"/>
    <g transform="translate(0,10)" s:x="0" s:y="10" s:pid="in0" id="port_PE10~A_in">
      <text x="-3" y="-4" class="inputPortLabel cell_PE10">A_in</text>
    </g>
    <g transform="translate(0,30)" s:x="0" s:y="10" s:pid="in0" id="port_PE10~B_in">
      <text x="-3" y="-4" class="inputPortLabel cell_PE10">B_in</text>
    </g>
    <g transform="translate(0,50)" s:x="0" s:y="10" s:pid="in0" id="port_PE10~clk">
      <text x="-3" y="-4" class="inputPortLabel cell_PE10">clk</text>
    </g>
    <g transform="translate(0,70)" s:x="0" s:y="10" s:pid="in0" id="port_PE10~enable">
      <text x="-3" y="-4" class="inputPortLabel cell_PE10">enable</text>
    </g>
    <g transform="translate(0,90)" s:x="0" s:y="10" s:pid="in0" id="port_PE10~rst">
      <text x="-3" y="-4" class="inputPortLabel cell_PE10">rst</text>
    </g>
    <g transform="translate(30,10)" s:x="30" s:y="10" s:pid="out0" id="port_PE10~A_out">
      <text x="5" y="-4" style="fill:#000; stroke:none" class="cell_PE10">A_out</text>
    </g>
    <g transform="translate(30,30)" s:x="30" s:y="10" s:pid="out0" id="port_PE10~Acc_out">
      <text x="5" y="-4" style="fill:#000; stroke:none" class="cell_PE10">Acc_out</text>
    </g>
  </g>
  <g s:type="generic" transform="translate(884,592.5)" s:width="30" s:height="40" id="cell_PE11">
    <text x="15" y="-4" class="nodelabel cell_PE11" s:attribute="ref">pe</text>
    <rect width="30" height="100" s:generic="body" class="cell_PE11"/>
    <g transform="translate(0,10)" s:x="0" s:y="10" s:pid="in0" id="port_PE11~A_in">
      <text x="-3" y="-4" class="inputPortLabel cell_PE11">A_in</text>
    </g>
    <g transform="translate(0,30)" s:x="0" s:y="10" s:pid="in0" id="port_PE11~B_in">
      <text x="-3" y="-4" class="inputPortLabel cell_PE11">B_in</text>
    </g>
    <g transform="translate(0,50)" s:x="0" s:y="10" s:pid="in0" id="port_PE11~clk">
      <text x="-3" y="-4" class="inputPortLabel cell_PE11">clk</text>
    </g>
    <g transform="translate(0,70)" s:x="0" s:y="10" s:pid="in0" id="port_PE11~enable">
      <text x="-3" y="-4" class="inputPortLabel cell_PE11">enable</text>
    </g>
    <g transform="translate(0,90)" s:x="0" s:y="10" s:pid="in0" id="port_PE11~rst">
      <text x="-3" y="-4" class="inputPortLabel cell_PE11">rst</text>
    </g>
    <g transform="translate(30,10)" s:x="30" s:y="10" s:pid="out0" id="port_PE11~Acc_out">
      <text x="5" y="-4" style="fill:#000; stroke:none" class="cell_PE11">Acc_out</text>
    </g>
  </g>
  <g s:type="generic" transform="translate(414,46.5)" s:width="30" s:height="40" id="cell_u_A">
    <text x="15" y="-4" class="nodelabel cell_u_A" s:attribute="ref">wavefront_reg</text>
    <rect width="30" height="100" s:generic="body" class="cell_u_A"/>
    <g transform="translate(0,10)" s:x="0" s:y="10" s:pid="in0" id="port_u_A~D0">
      <text x="-3" y="-4" class="inputPortLabel cell_u_A">D0</text>
    </g>
    <g transform="translate(0,30)" s:x="0" s:y="10" s:pid="in0" id="port_u_A~D1">
      <text x="-3" y="-4" class="inputPortLabel cell_u_A">D1</text>
    </g>
    <g transform="translate(0,50)" s:x="0" s:y="10" s:pid="in0" id="port_u_A~clk">
      <text x="-3" y="-4" class="inputPortLabel cell_u_A">clk</text>
    </g>
    <g transform="translate(0,70)" s:x="0" s:y="10" s:pid="in0" id="port_u_A~cycle">
      <text x="-3" y="-4" class="inputPortLabel cell_u_A">cycle</text>
    </g>
    <g transform="translate(0,90)" s:x="0" s:y="10" s:pid="in0" id="port_u_A~rst">
      <text x="-3" y="-4" class="inputPortLabel cell_u_A">rst</text>
    </g>
    <g transform="translate(30,10)" s:x="30" s:y="10" s:pid="out0" id="port_u_A~Q0">
      <text x="5" y="-4" style="fill:#000; stroke:none" class="cell_u_A">Q0</text>
    </g>
    <g transform="translate(30,30)" s:x="30" s:y="10" s:pid="out0" id="port_u_A~Q1">
      <text x="5" y="-4" style="fill:#000; stroke:none" class="cell_u_A">Q1</text>
    </g>
  </g>
  <g s:type="generic" transform="translate(414,225)" s:width="30" s:height="40" id="cell_u_B">
    <text x="15" y="-4" class="nodelabel cell_u_B" s:attribute="ref">wavefront_reg</text>
    <rect width="30" height="100" s:generic="body" class="cell_u_B"/>
    <g transform="translate(0,10)" s:x="0" s:y="10" s:pid="in0" id="port_u_B~D0">
      <text x="-3" y="-4" class="inputPortLabel cell_u_B">D0</text>
    </g>
    <g transform="translate(0,30)" s:x="0" s:y="10" s:pid="in0" id="port_u_B~D1">
      <text x="-3" y="-4" class="inputPortLabel cell_u_B">D1</text>
    </g>
    <g transform="translate(0,50)" s:x="0" s:y="10" s:pid="in0" id="port_u_B~clk">
      <text x="-3" y="-4" class="inputPortLabel cell_u_B">clk</text>
    </g>
    <g transform="translate(0,70)" s:x="0" s:y="10" s:pid="in0" id="port_u_B~cycle">
      <text x="-3" y="-4" class="inputPortLabel cell_u_B">cycle</text>
    </g>
    <g transform="translate(0,90)" s:x="0" s:y="10" s:pid="in0" id="port_u_B~rst">
      <text x="-3" y="-4" class="inputPortLabel cell_u_B">rst</text>
    </g>
    <g transform="translate(30,10)" s:x="30" s:y="10" s:pid="out0" id="port_u_B~Q0">
      <text x="5" y="-4" style="fill:#000; stroke:none" class="cell_u_B">Q0</text>
    </g>
    <g transform="translate(30,30)" s:x="30" s:y="10" s:pid="out0" id="port_u_B~Q1">
      <text x="5" y="-4" style="fill:#000; stroke:none" class="cell_u_B">Q1</text>
    </g>
  </g>
  <g s:type="generic" transform="translate(269,341.5)" s:width="30" s:height="40" id="cell_u_count">
    <text x="15" y="-4" class="nodelabel cell_u_count" s:attribute="ref">cycle_counter</text>
    <rect width="30" height="60" s:generic="body" class="cell_u_count"/>
    <g transform="translate(0,10)" s:x="0" s:y="10" s:pid="in0" id="port_u_count~clk">
      <text x="-3" y="-4" class="inputPortLabel cell_u_count">clk</text>
    </g>
    <g transform="translate(0,30)" s:x="0" s:y="10" s:pid="in0" id="port_u_count~en">
      <text x="-3" y="-4" class="inputPortLabel cell_u_count">en</text>
    </g>
    <g transform="translate(0,50)" s:x="0" s:y="10" s:pid="in0" id="port_u_count~rst">
      <text x="-3" y="-4" class="inputPortLabel cell_u_count">rst</text>
    </g>
    <g transform="translate(30,10)" s:x="30" s:y="10" s:pid="out0" id="port_u_count~count">
      <text x="5" y="-4" style="fill:#000; stroke:none" class="cell_u_count">count</text>
    </g>
  </g>
  <g s:type="generic" transform="translate(412,514)" s:width="30" s:height="40" id="cell_u_en">
    <text x="15" y="-4" class="nodelabel cell_u_en" s:attribute="ref">enable_gen</text>
    <rect width="30" height="20" s:generic="body" class="cell_u_en"/>
    <g transform="translate(0,10)" s:x="0" s:y="10" s:pid="in0" id="port_u_en~cycle">
      <text x="-3" y="-4" class="inputPortLabel cell_u_en">cycle</text>
    </g>
    <g transform="translate(30,10)" s:x="30" s:y="10" s:pid="out0" id="port_u_en~enable">
      <text x="5" y="-4" style="fill:#000; stroke:none" class="cell_u_en">enable</text>
    </g>
  </g>
  <g s:type="inputExt" transform="translate(180,342)" s:width="30" s:height="20" id="cell_clk">
    <text x="15" y="-4" class="nodelabel cell_clk" s:attribute="ref">clk</text>
    <s:alias val="$_inputExt_"/>
    <path d="M0,0 L0,20 L15,20 L30,10 L15,0 Z" class="cell_clk"/>
    <g s:x="28" s:y="10" s:pid="Y"/>
  </g>
  <g s:type="inputExt" transform="translate(180,472)" s:width="30" s:height="20" id="cell_rst">
    <text x="15" y="-4" class="nodelabel cell_rst" s:attribute="ref">rst</text>
    <s:alias val="$_inputExt_"/>
    <path d="M0,0 L0,20 L15,20 L30,10 L15,0 Z" class="cell_rst"/>
    <g s:x="28" s:y="10" s:pid="Y"/>
  </g>
  <g s:type="inputExt" transform="translate(269,47)" s:width="30" s:height="20" id="cell_A00">
    <text x="15" y="-4" class="nodelabel cell_A00" s:attribute="ref">A00</text>
    <s:alias val="$_inputExt_"/>
    <path d="M0,0 L0,20 L15,20 L30,10 L15,0 Z" class="cell_A00"/>
    <g s:x="28" s:y="10" s:pid="Y"/>
  </g>
  <g s:type="inputExt" transform="translate(12,22)" s:width="30" s:height="20" id="cell_A01">
    <text x="15" y="-4" class="nodelabel cell_A01" s:attribute="ref">A01</text>
    <s:alias val="$_inputExt_"/>
    <path d="M0,0 L0,20 L15,20 L30,10 L15,0 Z" class="cell_A01"/>
    <g s:x="28" s:y="10" s:pid="Y"/>
  </g>
  <g s:type="inputExt" transform="translate(269,112)" s:width="30" s:height="20" id="cell_A10">
    <text x="15" y="-4" class="nodelabel cell_A10" s:attribute="ref">A10</text>
    <s:alias val="$_inputExt_"/>
    <path d="M0,0 L0,20 L15,20 L30,10 L15,0 Z" class="cell_A10"/>
    <g s:x="28" s:y="10" s:pid="Y"/>
  </g>
  <g s:type="inputExt" transform="translate(54,22)" s:width="30" s:height="20" id="cell_A11">
    <text x="15" y="-4" class="nodelabel cell_A11" s:attribute="ref">A11</text>
    <s:alias val="$_inputExt_"/>
    <path d="M0,0 L0,20 L15,20 L30,10 L15,0 Z" class="cell_A11"/>
    <g s:x="28" s:y="10" s:pid="Y"/>
  </g>
  <g s:type="inputExt" transform="translate(269,225.5)" s:width="30" s:height="20" id="cell_B00">
    <text x="15" y="-4" class="nodelabel cell_B00" s:attribute="ref">B00</text>
    <s:alias val="$_inputExt_"/>
    <path d="M0,0 L0,20 L15,20 L30,10 L15,0 Z" class="cell_B00"/>
    <g s:x="28" s:y="10" s:pid="Y"/>
  </g>
  <g s:type="inputExt" transform="translate(269,290.5)" s:width="30" s:height="20" id="cell_B01">
    <text x="15" y="-4" class="nodelabel cell_B01" s:attribute="ref">B01</text>
    <s:alias val="$_inputExt_"/>
    <path d="M0,0 L0,20 L15,20 L30,10 L15,0 Z" class="cell_B01"/>
    <g s:x="28" s:y="10" s:pid="Y"/>
  </g>
  <g s:type="inputExt" transform="translate(96,22)" s:width="30" s:height="20" id="cell_B10">
    <text x="15" y="-4" class="nodelabel cell_B10" s:attribute="ref">B10</text>
    <s:alias val="$_inputExt_"/>
    <path d="M0,0 L0,20 L15,20 L30,10 L15,0 Z" class="cell_B10"/>
    <g s:x="28" s:y="10" s:pid="Y"/>
  </g>
  <g s:type="inputExt" transform="translate(138,22)" s:width="30" s:height="20" id="cell_B11">
    <text x="15" y="-4" class="nodelabel cell_B11" s:attribute="ref">B11</text>
    <s:alias val="$_inputExt_"/>
    <path d="M0,0 L0,20 L15,20 L30,10 L15,0 Z" class="cell_B11"/>
    <g s:x="28" s:y="10" s:pid="Y"/>
  </g>
  <g s:type="outputExt" transform="translate(993,22)" s:width="30" s:height="20" id="cell_C00">
    <text x="15" y="-4" class="nodelabel cell_C00" s:attribute="ref">C00</text>
    <s:alias val="$_outputExt_"/>
    <path d="M30,0 L30,20 L15,20 L0,10 L15,0 Z" class="cell_C00"/>
    <g s:x="0" s:y="10" s:pid="A"/>
  </g>
  <g s:type="outputExt" transform="translate(993,528)" s:width="30" s:height="20" id="cell_C01">
    <text x="15" y="-4" class="nodelabel cell_C01" s:attribute="ref">C01</text>
    <s:alias val="$_outputExt_"/>
    <path d="M30,0 L30,20 L15,20 L0,10 L15,0 Z" class="cell_C01"/>
    <g s:x="0" s:y="10" s:pid="A"/>
  </g>
  <g s:type="outputExt" transform="translate(993,87)" s:width="30" s:height="20" id="cell_C10">
    <text x="15" y="-4" class="nodelabel cell_C10" s:attribute="ref">C10</text>
    <s:alias val="$_outputExt_"/>
    <path d="M30,0 L30,20 L15,20 L0,10 L15,0 Z" class="cell_C10"/>
    <g s:x="0" s:y="10" s:pid="A"/>
  </g>
  <g s:type="outputExt" transform="translate(993,593)" s:width="30" s:height="20" id="cell_C11">
    <text x="15" y="-4" class="nodelabel cell_C11" s:attribute="ref">C11</text>
    <s:alias val="$_outputExt_"/>
    <path d="M30,0 L30,20 L15,20 L0,10 L15,0 Z" class="cell_C11"/>
    <g s:x="0" s:y="10" s:pid="A"/>
  </g>
  <g s:type="constant" transform="translate(180,407)" s:width="30" s:height="20" id="cell_1">
    <text x="15" y="-4" class="nodelabel cell_1" s:attribute="ref">1</text>
    <s:alias val="$_constant_"/>
    <rect width="30" height="20" class="cell_1"/>
    <g s:x="30" s:y="10" s:pid="Y"/>
  </g>
  <line x1="445" x2="490" y1="57" y2="57" class="net_132,133,134,135,136,137,138,139"/>
  <line x1="490" x2="490" y1="57" y2="124" class="net_132,133,134,135,136,137,138,139"/>
  <line x1="490" x2="557" y1="124" y2="124" class="net_132,133,134,135,136,137,138,139"/>
  <line x1="445" x2="490" y1="235.5" y2="235.5" class="net_148,149,150,151,152,153,154,155"/>
  <line x1="490" x2="490" y1="235.5" y2="144" class="net_148,149,150,151,152,153,154,155"/>
  <line x1="490" x2="557" y1="144" y2="144" class="net_148,149,150,151,152,153,154,155"/>
  <line x1="208" x2="240" y1="352" y2="352" class="net_2"/>
  <line x1="240" x2="240" y1="352" y2="164" class="net_2"/>
  <circle cx="240" cy="352" r="2" style="fill:#000" class="net_2"/>
  <circle cx="240" cy="164" r="2" style="fill:#000" class="net_2"/>
  <line x1="240" x2="557" y1="164" y2="164" class="net_2"/>
  <line x1="208" x2="240" y1="352" y2="352" class="net_2"/>
  <line x1="240" x2="240" y1="352" y2="578" class="net_2"/>
  <circle cx="240" cy="578" r="2" style="fill:#000" class="net_2"/>
  <line x1="240" x2="738" y1="578" y2="578" class="net_2"/>
  <line x1="208" x2="240" y1="352" y2="352" class="net_2"/>
  <line x1="240" x2="240" y1="352" y2="493" class="net_2"/>
  <line x1="240" x2="661" y1="493" y2="493" class="net_2"/>
  <line x1="661" x2="661" y1="493" y2="117" class="net_2"/>
  <circle cx="240" cy="493" r="2" style="fill:#000" class="net_2"/>
  <line x1="661" x2="738" y1="117" y2="117" class="net_2"/>
  <line x1="208" x2="240" y1="352" y2="352" class="net_2"/>
  <line x1="240" x2="240" y1="352" y2="643" class="net_2"/>
  <line x1="240" x2="884" y1="643" y2="643" class="net_2"/>
  <line x1="208" x2="240" y1="352" y2="352" class="net_2"/>
  <line x1="240" x2="240" y1="352" y2="142" class="net_2"/>
  <line x1="240" x2="351" y1="142" y2="142" class="net_2"/>
  <line x1="351" x2="351" y1="142" y2="97" class="net_2"/>
  <line x1="351" x2="414" y1="97" y2="97" class="net_2"/>
  <line x1="208" x2="240" y1="352" y2="352" class="net_2"/>
  <line x1="240" x2="240" y1="352" y2="320.5" class="net_2"/>
  <line x1="240" x2="351" y1="320.5" y2="320.5" class="net_2"/>
  <line x1="351" x2="351" y1="320.5" y2="275.5" class="net_2"/>
  <circle cx="240" cy="320.5" r="2" style="fill:#000" class="net_2"/>
  <line x1="351" x2="414" y1="275.5" y2="275.5" class="net_2"/>
  <line x1="208" x2="269" y1="352" y2="352" class="net_2"/>
  <line x1="443" x2="500" y1="524.5" y2="524.5" class="net_164"/>
  <line x1="500" x2="500" y1="524.5" y2="184" class="net_164"/>
  <circle cx="500" cy="524.5" r="2" style="fill:#000" class="net_164"/>
  <line x1="500" x2="557" y1="184" y2="184" class="net_164"/>
  <line x1="443" x2="500" y1="524.5" y2="524.5" class="net_164"/>
  <line x1="500" x2="500" y1="524.5" y2="598" class="net_164"/>
  <circle cx="500" cy="598" r="2" style="fill:#000" class="net_164"/>
  <line x1="500" x2="738" y1="598" y2="598" class="net_164"/>
  <line x1="443" x2="671" y1="524.5" y2="524.5" class="net_164"/>
  <line x1="671" x2="671" y1="524.5" y2="137" class="net_164"/>
  <line x1="671" x2="738" y1="137" y2="137" class="net_164"/>
  <line x1="443" x2="500" y1="524.5" y2="524.5" class="net_164"/>
  <line x1="500" x2="500" y1="524.5" y2="663" class="net_164"/>
  <line x1="500" x2="884" y1="663" y2="663" class="net_164"/>
  <line x1="208" x2="230" y1="482" y2="482" class="net_3"/>
  <line x1="230" x2="230" y1="482" y2="204" class="net_3"/>
  <circle cx="230" cy="482" r="2" style="fill:#000" class="net_3"/>
  <circle cx="230" cy="204" r="2" style="fill:#000" class="net_3"/>
  <line x1="230" x2="557" y1="204" y2="204" class="net_3"/>
  <line x1="208" x2="230" y1="482" y2="482" class="net_3"/>
  <line x1="230" x2="230" y1="482" y2="618" class="net_3"/>
  <circle cx="230" cy="618" r="2" style="fill:#000" class="net_3"/>
  <line x1="230" x2="738" y1="618" y2="618" class="net_3"/>
  <line x1="208" x2="230" y1="482" y2="482" class="net_3"/>
  <line x1="230" x2="230" y1="482" y2="547" class="net_3"/>
  <line x1="230" x2="681" y1="547" y2="547" class="net_3"/>
  <line x1="681" x2="681" y1="547" y2="157" class="net_3"/>
  <circle cx="230" cy="547" r="2" style="fill:#000" class="net_3"/>
  <line x1="681" x2="738" y1="157" y2="157" class="net_3"/>
  <line x1="208" x2="230" y1="482" y2="482" class="net_3"/>
  <line x1="230" x2="230" y1="482" y2="683" class="net_3"/>
  <line x1="230" x2="884" y1="683" y2="683" class="net_3"/>
  <line x1="208" x2="230" y1="482" y2="482" class="net_3"/>
  <line x1="230" x2="230" y1="482" y2="153" class="net_3"/>
  <line x1="230" x2="371" y1="153" y2="153" class="net_3"/>
  <line x1="371" x2="371" y1="153" y2="137" class="net_3"/>
  <line x1="371" x2="414" y1="137" y2="137" class="net_3"/>
  <line x1="208" x2="371" y1="482" y2="482" class="net_3"/>
  <line x1="371" x2="371" y1="482" y2="315.5" class="net_3"/>
  <line x1="371" x2="414" y1="315.5" y2="315.5" class="net_3"/>
  <line x1="208" x2="230" y1="482" y2="482" class="net_3"/>
  <line x1="230" x2="230" y1="482" y2="392" class="net_3"/>
  <circle cx="230" cy="392" r="2" style="fill:#000" class="net_3"/>
  <line x1="230" x2="269" y1="392" y2="392" class="net_3"/>
  <line x1="588" x2="691" y1="124" y2="124" class="net_140,141,142,143,144,145,146,147"/>
  <line x1="691" x2="691" y1="124" y2="538" class="net_140,141,142,143,144,145,146,147"/>
  <line x1="691" x2="738" y1="538" y2="538" class="net_140,141,142,143,144,145,146,147"/>
  <line x1="445" x2="510" y1="255.5" y2="255.5" class="net_165,166,167,168,169,170,171,172"/>
  <line x1="510" x2="510" y1="255.5" y2="558" class="net_165,166,167,168,169,170,171,172"/>
  <line x1="510" x2="738" y1="558" y2="558" class="net_165,166,167,168,169,170,171,172"/>
  <line x1="445" x2="738" y1="77" y2="77" class="net_181,182,183,184,185,186,187,188"/>
  <line x1="588" x2="651" y1="164" y2="164" class="net_156,157,158,159,160,161,162,163"/>
  <line x1="651" x2="651" y1="164" y2="97" class="net_156,157,158,159,160,161,162,163"/>
  <line x1="651" x2="738" y1="97" y2="97" class="net_156,157,158,159,160,161,162,163"/>
  <line x1="769" x2="832" y1="77" y2="77" class="net_189,190,191,192,193,194,195,196"/>
  <line x1="832" x2="832" y1="77" y2="603" class="net_189,190,191,192,193,194,195,196"/>
  <line x1="832" x2="884" y1="603" y2="603" class="net_189,190,191,192,193,194,195,196"/>
  <line x1="769" x2="822" y1="558" y2="558" class="net_173,174,175,176,177,178,179,180"/>
  <line x1="822" x2="822" y1="558" y2="623" class="net_173,174,175,176,177,178,179,180"/>
  <line x1="822" x2="884" y1="623" y2="623" class="net_173,174,175,176,177,178,179,180"/>
  <line x1="297" x2="414" y1="57" y2="57" class="net_4,5,6,7,8,9,10,11"/>
  <line x1="297" x2="341" y1="122" y2="122" class="net_20,21,22,23,24,25,26,27"/>
  <line x1="341" x2="341" y1="122" y2="77" class="net_20,21,22,23,24,25,26,27"/>
  <line x1="341" x2="414" y1="77" y2="77" class="net_20,21,22,23,24,25,26,27"/>
  <line x1="300" x2="361" y1="352" y2="352" class="net_197,198,199"/>
  <line x1="361" x2="361" y1="352" y2="117" class="net_197,198,199"/>
  <circle cx="361" cy="352" r="2" style="fill:#000" class="net_197,198,199"/>
  <line x1="361" x2="414" y1="117" y2="117" class="net_197,198,199"/>
  <line x1="300" x2="361" y1="352" y2="352" class="net_197,198,199"/>
  <line x1="361" x2="361" y1="352" y2="295.5" class="net_197,198,199"/>
  <circle cx="361" cy="295.5" r="2" style="fill:#000" class="net_197,198,199"/>
  <line x1="361" x2="414" y1="295.5" y2="295.5" class="net_197,198,199"/>
  <line x1="300" x2="361" y1="352" y2="352" class="net_197,198,199"/>
  <line x1="361" x2="361" y1="352" y2="524.5" class="net_197,198,199"/>
  <line x1="361" x2="412" y1="524.5" y2="524.5" class="net_197,198,199"/>
  <line x1="297" x2="414" y1="235.5" y2="235.5" class="net_36,37,38,39,40,41,42,43"/>
  <line x1="297" x2="341" y1="300.5" y2="300.5" class="net_44,45,46,47,48,49,50,51"/>
  <line x1="341" x2="341" y1="300.5" y2="255.5" class="net_44,45,46,47,48,49,50,51"/>
  <line x1="341" x2="414" y1="255.5" y2="255.5" class="net_44,45,46,47,48,49,50,51"/>
  <line x1="210" x2="220" y1="417" y2="417" class="net_200"/>
  <line x1="220" x2="220" y1="417" y2="372" class="net_200"/>
  <line x1="220" x2="269" y1="372" y2="372" class="net_200"/>
  <line x1="588" x2="641" y1="144" y2="144" class="net_68,69,70,71,72,73,74,75,76,77,78,79,80,81,82,83"/>
  <line x1="641" x2="641" y1="144" y2="32" class="net_68,69,70,71,72,73,74,75,76,77,78,79,80,81,82,83"/>
  <line x1="641" x2="993" y1="32" y2="32" class="net_68,69,70,71,72,73,74,75,76,77,78,79,80,81,82,83"/>
  <line x1="769" x2="993" y1="538" y2="538" class="net_84,85,86,87,88,89,90,91,92,93,94,95,96,97,98,99"/>
  <line x1="769" x2="993" y1="97" y2="97" class="net_100,101,102,103,104,105,106,107,108,109,110,111,112,113,114,115"/>
  <line x1="915" x2="993" y1="603" y2="603" class="net_116,117,118,119,120,121,122,123,124,125,126,127,128,129,130,131"/>
</svg>
