<svg xmlns="http://www.w3.org/2000/svg" xmlns:xlink="http://www.w3.org/1999/xlink" xmlns:s="https://github.com/nturley/netlistsvg" width="1315" height="534.5">
  <style>svg {
    stroke:#000;
    fill:none;
  }
  text {
    fill:#000;
    stroke:none;
    font-size:10px;
    font-weight: bold;
    font-family: "Courier New", monospace;
  }
  .nodelabel {
    text-anchor: middle;
  }
  .inputPortLabel {
    text-anchor: end;
  }
  .splitjoinBody {
    fill:#000;
  }</style>
  <g s:type="generic" transform="translate(516.3333333333334,354.5)" s:width="30" s:height="40" id="cell_a0">
    <text x="15" y="-4" class="nodelabel cell_a0" s:attribute="ref">pp_accumulator</text>
    <rect width="30" height="40" s:generic="body" class="cell_a0"/>
    <g transform="translate(0,10)" s:x="0" s:y="10" s:pid="in0" id="port_a0~pp_in">
      <text x="-3" y="-4" class="inputPortLabel cell_a0">pp_in</text>
    </g>
    <g transform="translate(0,30)" s:x="0" s:y="10" s:pid="in0" id="port_a0~sum_in">
      <text x="-3" y="-4" class="inputPortLabel cell_a0">sum_in</text>
    </g>
    <g transform="translate(30,10)" s:x="30" s:y="10" s:pid="out0" id="port_a0~sum_out">
      <text x="5" y="-4" style="fill:#000; stroke:none" class="cell_a0">sum_out</text>
    </g>
  </g>
  <g s:type="generic" transform="translate(746.3333333333334,246.5)" s:width="30" s:height="40" id="cell_a1">
    <text x="15" y="-4" class="nodelabel cell_a1" s:attribute="ref">pp_accumulator</text>
    <rect width="30" height="40" s:generic="body" class="cell_a1"/>
    <g transform="translate(0,10)" s:x="0" s:y="10" s:pid="in0" id="port_a1~pp_in">
      <text x="-3" y="-4" class="inputPortLabel cell_a1">pp_in</text>
    </g>
    <g transform="translate(0,30)" s:x="0" s:y="10" s:pid="in0" id="port_a1~sum_in">
      <text x="-3" y="-4" class="inputPortLabel cell_a1">sum_in</text>
    </g>
    <g transform="translate(30,10)" s:x="30" s:y="10" s:pid="out0" id="port_a1~sum_out">
      <text x="5" y="-4" style="fill:#000; stroke:none" class="cell_a1">sum_out</text>
    </g>
  </g>
  <g s:type="generic" transform="translate(976.3333333333334,138.5)" s:width="30" s:height="40" id="cell_a2">
    <text x="15" y="-4" class="nodelabel cell_a2" s:attribute="ref">pp_accumulator</text>
    <rect width="30" height="40" s:generic="body" class="cell_a2"/>
    <g transform="translate(0,10)" s:x="0" s:y="10" s:pid="in0" id="port_a2~pp_in">
      <text x="-3" y="-4" class="inputPortLabel cell_a2">pp_in</text>
    </g>
    <g transform="translate(0,30)" s:x="0" s:y="10" s:pid="in0" id="port_a2~sum_in">
      <text x="-3" y="-4" class="inputPortLabel cell_a2">sum_in</text>
    </g>
    <g transform="translate(30,10)" s:x="30" s:y="10" s:pid="out0" id="port_a2~sum_out">
      <text x="5" y="-4" style="fill:#000; stroke:none" class="cell_a2">sum_out</text>
    </g>
  </g>
  <g s:type="generic" transform="translate(1164,22)" s:width="30" s:height="40" id="cell_a3">
    <text x="15" y="-4" class="nodelabel cell_a3" s:attribute="ref">pp_accumulator</text>
    <rect width="30" height="40" s:generic="body" class="cell_a3"/>
    <g transform="translate(0,10)" s:x="0" s:y="10" s:pid="in0" id="port_a3~pp_in">
      <text x="-3" y="-4" class="inputPortLabel cell_a3">pp_in</text>
    </g>
    <g transform="translate(0,30)" s:x="0" s:y="10" s:pid="in0" id="port_a3~sum_in">
      <text x="-3" y="-4" class="inputPortLabel cell_a3">sum_in</text>
    </g>
    <g transform="translate(30,10)" s:x="30" s:y="10" s:pid="out0" id="port_a3~sum_out">
      <text x="5" y="-4" style="fill:#000; stroke:none" class="cell_a3">sum_out</text>
    </g>
  </g>
  <g s:type="generic" transform="translate(280,354.5)" s:width="30" s:height="40" id="cell_u0">
    <text x="15" y="-4" class="nodelabel cell_u0" s:attribute="ref">booth_encoder</text>
    <rect width="30" height="60" s:generic="body" class="cell_u0"/>
    <g transform="translate(0,10)" s:x="0" s:y="10" s:pid="in0" id="port_u0~booth_code">
      <text x="-3" y="-4" class="inputPortLabel cell_u0">booth_code</text>
    </g>
    <g transform="translate(0,30)" s:x="0" s:y="10" s:pid="in0" id="port_u0~multiplicand">
      <text x="-3" y="-4" class="inputPortLabel cell_u0">multiplicand</text>
    </g>
    <g transform="translate(0,50)" s:x="0" s:y="10" s:pid="in0" id="port_u0~shift">
      <text x="-3" y="-4" class="inputPortLabel cell_u0">shift</text>
    </g>
    <g transform="translate(30,10)" s:x="30" s:y="10" s:pid="out0" id="port_u0~partial_product">
      <text x="5" y="-4" style="fill:#000; stroke:none" class="cell_u0">partial_product</text>
    </g>
  </g>
  <g s:type="generic" transform="translate(510,246.5)" s:width="30" s:height="40" id="cell_u1">
    <text x="15" y="-4" class="nodelabel cell_u1" s:attribute="ref">booth_encoder</text>
    <rect width="30" height="60" s:generic="body" class="cell_u1"/>
    <g transform="translate(0,10)" s:x="0" s:y="10" s:pid="in0" id="port_u1~booth_code">
      <text x="-3" y="-4" class="inputPortLabel cell_u1">booth_code</text>
    </g>
    <g transform="translate(0,30)" s:x="0" s:y="10" s:pid="in0" id="port_u1~multiplicand">
      <text x="-3" y="-4" class="inputPortLabel cell_u1">multiplicand</text>
    </g>
    <g transform="translate(0,50)" s:x="0" s:y="10" s:pid="in0" id="port_u1~shift">
      <text x="-3" y="-4" class="inputPortLabel cell_u1">shift</text>
    </g>
    <g transform="translate(30,10)" s:x="30" s:y="10" s:pid="out0" id="port_u1~partial_product">
      <text x="5" y="-4" style="fill:#000; stroke:none" class="cell_u1">partial_product</text>
    </g>
  </g>
  <g s:type="generic" transform="translate(740,138.5)" s:width="30" s:height="40" id="cell_u2">
    <text x="15" y="-4" class="nodelabel cell_u2" s:attribute="ref">booth_encoder</text>
    <rect width="30" height="60" s:generic="body" class="cell_u2"/>
    <g transform="translate(0,10)" s:x="0" s:y="10" s:pid="in0" id="port_u2~booth_code">
      <text x="-3" y="-4" class="inputPortLabel cell_u2">booth_code</text>
    </g>
    <g transform="translate(0,30)" s:x="0" s:y="10" s:pid="in0" id="port_u2~multiplicand">
      <text x="-3" y="-4" class="inputPortLabel cell_u2">multiplicand</text>
    </g>
    <g transform="translate(0,50)" s:x="0" s:y="10" s:pid="in0" id="port_u2~shift">
      <text x="-3" y="-4" class="inputPortLabel cell_u2">shift</text>
    </g>
    <g transform="translate(30,10)" s:x="30" s:y="10" s:pid="out0" id="port_u2~partial_product">
      <text x="5" y="-4" style="fill:#000; stroke:none" class="cell_u2">partial_product</text>
    </g>
  </g>
  <g s:type="generic" transform="translate(970,22)" s:width="30" s:height="40" id="cell_u3">
    <text x="15" y="-4" class="nodelabel cell_u3" s:attribute="ref">booth_encoder</text>
    <rect width="30" height="60" s:generic="body" class="cell_u3"/>
    <g transform="translate(0,10)" s:x="0" s:y="10" s:pid="in0" id="port_u3~booth_code">
      <text x="-3" y="-4" class="inputPortLabel cell_u3">booth_code</text>
    </g>
    <g transform="translate(0,30)" s:x="0" s:y="10" s:pid="in0" id="port_u3~multiplicand">
      <text x="-3" y="-4" class="inputPortLabel cell_u3">multiplicand</text>
    </g>
    <g transform="translate(0,50)" s:x="0" s:y="10" s:pid="in0" id="port_u3~shift">
      <text x="-3" y="-4" class="inputPortLabel cell_u3">shift</text>
    </g>
    <g transform="translate(30,10)" s:x="30" s:y="10" s:pid="out0" id="port_u3~partial_product">
      <text x="5" y="-4" style="fill:#000; stroke:none" class="cell_u3">partial_product</text>
    </g>
  </g>
  <g s:type="inputExt" transform="translate(12,195)" s:width="30" s:height="20" id="cell_A">
    <text x="15" y="-4" class="nodelabel cell_A" s:attribute="ref">A</text>
    <s:alias val="$_inputExt_"/>
    <path d="M0,0 L0,20 L15,20 L30,10 L15,0 Z" class="cell_A"/>
    <g s:x="28" s:y="10" s:pid="Y"/>
  </g>
  <g s:type="inputExt" transform="translate(12,439.5)" s:width="30" s:height="20" id="cell_B">
    <text x="15" y="-4" class="nodelabel cell_B" s:attribute="ref">B</text>
    <s:alias val="$_inputExt_"/>
    <path d="M0,0 L0,20 L15,20 L30,10 L15,0 Z" class="cell_B"/>
    <g s:x="28" s:y="10" s:pid="Y"/>
  </g>
  <g s:type="outputExt" transform="translate(1273,22.5)" s:width="30" s:height="20" id="cell_P">
    <text x="15" y="-4" class="nodelabel cell_P" s:attribute="ref">P</text>
    <s:alias val="$_outputExt_"/>
    <path d="M30,0 L30,20 L15,20 L0,10 L15,0 Z" class="cell_P"/>
    <g s:x="0" s:y="10" s:pid="A"/>
  </g>
  <g s:type="constant" transform="translate(280,480.5)" s:width="30" s:height="20" id="cell_0000000000000000">
    <text x="15" y="-4" class="nodelabel cell_0000000000000000" s:attribute="ref">0x0</text>
    <s:alias val="$_constant_"/>
    <rect width="30" height="20" class="cell_0000000000000000"/>
    <g s:x="30" s:y="10" s:pid="Y"/>
  </g>
  <g s:type="constant" transform="translate(77,345)" s:width="30" s:height="20" id="cell_0">
    <text x="15" y="-4" class="nodelabel cell_0" s:attribute="ref">0</text>
    <s:alias val="$_constant_"/>
    <rect width="30" height="20" class="cell_0"/>
    <g s:x="30" s:y="10" s:pid="Y"/>
  </g>
  <g s:type="constant" transform="translate(142,429.5)" s:width="30" s:height="20" id="cell_0000">
    <text x="15" y="-4" class="nodelabel cell_0000" s:attribute="ref">0x0</text>
    <s:alias val="$_constant_"/>
    <rect width="30" height="20" class="cell_0000"/>
    <g s:x="30" s:y="10" s:pid="Y"/>
  </g>
  <g s:type="constant" transform="translate(280,287)" s:width="30" s:height="20" id="cell_0010">
    <text x="15" y="-4" class="nodelabel cell_0010" s:attribute="ref">0x2</text>
    <s:alias val="$_constant_"/>
    <rect width="30" height="20" class="cell_0010"/>
    <g s:x="30" s:y="10" s:pid="Y"/>
  </g>
  <g s:type="constant" transform="translate(510,179)" s:width="30" s:height="20" id="cell_0100">
    <text x="15" y="-4" class="nodelabel cell_0100" s:attribute="ref">0x4</text>
    <s:alias val="$_constant_"/>
    <rect width="30" height="20" class="cell_0100"/>
    <g s:x="30" s:y="10" s:pid="Y"/>
  </g>
  <g s:type="constant" transform="translate(740,73.5)" s:width="30" s:height="20" id="cell_0110">
    <text x="15" y="-4" class="nodelabel cell_0110" s:attribute="ref">0x6</text>
    <s:alias val="$_constant_"/>
    <rect width="30" height="20" class="cell_0110"/>
    <g s:x="30" s:y="10" s:pid="Y"/>
  </g>
  <g s:type="join" transform="translate(153,344.5)" s:width="4" s:height="40" id="cell_$join$,162,10,11,">
    <rect width="5" height="40" class="splitjoinBody" s:generic="body"/>
    <s:alias val="$_join_"/>
    <g s:x="5" s:y="20" s:pid="out"/>
    <g transform="translate(0,10)" s:x="0" s:y="10" s:pid="in0">
      <text x="-3" y="-4" class="inputPortLabel">0</text>
    </g>
    <g transform="translate(0,30)" s:x="0" s:y="10" s:pid="in0">
      <text x="-3" y="-4" class="inputPortLabel">1:2</text>
    </g>
  </g>
  <g s:type="join" transform="translate(150.5,32)" s:width="4" s:height="40" id="cell_$join$,2,3,4,5,6,7,8,9,9,9,9,9,9,9,9,9,">
    <rect width="5" height="180" class="splitjoinBody" s:generic="body"/>
    <s:alias val="$_join_"/>
    <g s:x="5" s:y="20" s:pid="out"/>
    <g transform="translate(0,10)" s:x="0" s:y="10" s:pid="in0">
      <text x="-3" y="-4" class="inputPortLabel">0:7</text>
    </g>
    <g transform="translate(0,30)" s:x="0" s:y="10" s:pid="in0">
      <text x="-3" y="-4" class="inputPortLabel">8</text>
    </g>
    <g transform="translate(0,50)" s:x="0" s:y="10" s:pid="in0">
      <text x="-3" y="-4" class="inputPortLabel">9</text>
    </g>
    <g transform="translate(0,70)" s:x="0" s:y="10" s:pid="in0">
      <text x="-3" y="-4" class="inputPortLabel">10</text>
    </g>
    <g transform="translate(0,90)" s:x="0" s:y="10" s:pid="in0">
      <text x="-3" y="-4" class="inputPortLabel">11</text>
    </g>
    <g transform="translate(0,110)" s:x="0" s:y="10" s:pid="in0">
      <text x="-3" y="-4" class="inputPortLabel">12</text>
    </g>
    <g transform="translate(0,130)" s:x="0" s:y="10" s:pid="in0">
      <text x="-3" y="-4" class="inputPortLabel">13</text>
    </g>
    <g transform="translate(0,150)" s:x="0" s:y="10" s:pid="in0">
      <text x="-3" y="-4" class="inputPortLabel">14</text>
    </g>
    <g transform="translate(0,170)" s:x="0" s:y="10" s:pid="in0">
      <text x="-3" y="-4" class="inputPortLabel">15</text>
    </g>
  </g>
  <g s:type="split" transform="translate(83,429)" s:width="5" s:height="40" id="cell_$split$,10,11,12,13,14,15,16,17,">
    <rect width="5" height="80" class="splitjoinBody" s:generic="body"/>
    <s:alias val="$_split_"/>
    <g s:x="0" s:y="20" s:pid="in"/>
    <g transform="translate(4,10)" s:x="4" s:y="10" s:pid="out0">
      <text x="5" y="-4">0:1</text>
    </g>
    <g transform="translate(4,30)" s:x="4" s:y="10" s:pid="out0">
      <text x="5" y="-4">1:3</text>
    </g>
    <g transform="translate(4,50)" s:x="4" s:y="10" s:pid="out0">
      <text x="5" y="-4">3:5</text>
    </g>
    <g transform="translate(4,70)" s:x="4" s:y="10" s:pid="out0">
      <text x="5" y="-4">5:7</text>
    </g>
  </g>
  <g s:type="split" transform="translate(83,172)" s:width="5" s:height="40" id="cell_$split$,2,3,4,5,6,7,8,9,">
    <rect width="5" height="20" class="splitjoinBody" s:generic="body"/>
    <s:alias val="$_split_"/>
    <g s:x="0" s:y="20" s:pid="in"/>
    <g transform="translate(4,10)" s:x="4" s:y="10" s:pid="out0">
      <text x="5" y="-4">7</text>
    </g>
  </g>
  <line x1="311" x2="516.3333333333334" y1="365" y2="365" class="net_34,35,36,37,38,39,40,41,42,43,44,45,46,47,48,49"/>
  <line x1="310" x2="422" y1="490.5" y2="490.5" class="net_146,147,148,149,150,151,152,153,154,155,156,157,158,159,160,161"/>
  <line x1="422" x2="422" y1="490.5" y2="385" class="net_146,147,148,149,150,151,152,153,154,155,156,157,158,159,160,161"/>
  <line x1="422" x2="516.3333333333334" y1="385" y2="385" class="net_146,147,148,149,150,151,152,153,154,155,156,157,158,159,160,161"/>
  <line x1="541" x2="746.3333333333334" y1="257" y2="257" class="net_66,67,68,69,70,71,72,73,74,75,76,77,78,79,80,81"/>
  <line x1="547.3333333333334" x2="652" y1="365" y2="365" class="net_50,51,52,53,54,55,56,57,58,59,60,61,62,63,64,65"/>
  <line x1="652" x2="652" y1="365" y2="277" class="net_50,51,52,53,54,55,56,57,58,59,60,61,62,63,64,65"/>
  <line x1="652" x2="746.3333333333334" y1="277" y2="277" class="net_50,51,52,53,54,55,56,57,58,59,60,61,62,63,64,65"/>
  <line x1="771" x2="976.3333333333334" y1="149" y2="149" class="net_98,99,100,101,102,103,104,105,106,107,108,109,110,111,112,113"/>
  <line x1="777.3333333333334" x2="882" y1="257" y2="257" class="net_82,83,84,85,86,87,88,89,90,91,92,93,94,95,96,97"/>
  <line x1="882" x2="882" y1="257" y2="169" class="net_82,83,84,85,86,87,88,89,90,91,92,93,94,95,96,97"/>
  <line x1="882" x2="976.3333333333334" y1="169" y2="169" class="net_82,83,84,85,86,87,88,89,90,91,92,93,94,95,96,97"/>
  <line x1="1001" x2="1164" y1="32.5" y2="32.5" class="net_130,131,132,133,134,135,136,137,138,139,140,141,142,143,144,145"/>
  <line x1="1007.3333333333334" x2="1102" y1="149" y2="149" class="net_114,115,116,117,118,119,120,121,122,123,124,125,126,127,128,129"/>
  <line x1="1102" x2="1102" y1="149" y2="52.5" class="net_114,115,116,117,118,119,120,121,122,123,124,125,126,127,128,129"/>
  <line x1="1102" x2="1164" y1="52.5" y2="52.5" class="net_114,115,116,117,118,119,120,121,122,123,124,125,126,127,128,129"/>
  <line x1="159" x2="280" y1="365" y2="365" class="net_162,10,11"/>
  <line x1="156.5" x2="182" y1="52.5" y2="52.5" class="net_2,3,4,5,6,7,8,9,9,9,9,9,9,9,9,9"/>
  <line x1="182" x2="182" y1="52.5" y2="385" class="net_2,3,4,5,6,7,8,9,9,9,9,9,9,9,9,9"/>
  <circle cx="182" cy="52.5" r="2" style="fill:#000" class="net_2,3,4,5,6,7,8,9,9,9,9,9,9,9,9,9"/>
  <line x1="182" x2="280" y1="385" y2="385" class="net_2,3,4,5,6,7,8,9,9,9,9,9,9,9,9,9"/>
  <line x1="156.5" x2="422" y1="52.5" y2="52.5" class="net_2,3,4,5,6,7,8,9,9,9,9,9,9,9,9,9"/>
  <line x1="422" x2="422" y1="52.5" y2="277" class="net_2,3,4,5,6,7,8,9,9,9,9,9,9,9,9,9"/>
  <circle cx="422" cy="52.5" r="2" style="fill:#000" class="net_2,3,4,5,6,7,8,9,9,9,9,9,9,9,9,9"/>
  <line x1="422" x2="510" y1="277" y2="277" class="net_2,3,4,5,6,7,8,9,9,9,9,9,9,9,9,9"/>
  <line x1="156.5" x2="652" y1="52.5" y2="52.5" class="net_2,3,4,5,6,7,8,9,9,9,9,9,9,9,9,9"/>
  <line x1="652" x2="652" y1="52.5" y2="169" class="net_2,3,4,5,6,7,8,9,9,9,9,9,9,9,9,9"/>
  <circle cx="652" cy="52.5" r="2" style="fill:#000" class="net_2,3,4,5,6,7,8,9,9,9,9,9,9,9,9,9"/>
  <line x1="652" x2="740" y1="169" y2="169" class="net_2,3,4,5,6,7,8,9,9,9,9,9,9,9,9,9"/>
  <line x1="156.5" x2="970" y1="52.5" y2="52.5" class="net_2,3,4,5,6,7,8,9,9,9,9,9,9,9,9,9"/>
  <line x1="172" x2="182" y1="439.5" y2="439.5" class="net_163,164,165,166"/>
  <line x1="182" x2="182" y1="439.5" y2="405" class="net_163,164,165,166"/>
  <line x1="182" x2="280" y1="405" y2="405" class="net_163,164,165,166"/>
  <line x1="88" x2="412" y1="459.5" y2="459.5" class="net_11,12,13"/>
  <line x1="412" x2="412" y1="459.5" y2="257" class="net_11,12,13"/>
  <line x1="412" x2="510" y1="257" y2="257" class="net_11,12,13"/>
  <line x1="310" x2="510" y1="297" y2="297" class="net_167,168,169,170"/>
  <line x1="88" x2="127" y1="479.5" y2="479.5" class="net_13,14,15"/>
  <line x1="127" x2="127" y1="479.5" y2="510.5" class="net_13,14,15"/>
  <line x1="127" x2="642" y1="510.5" y2="510.5" class="net_13,14,15"/>
  <line x1="642" x2="642" y1="510.5" y2="149" class="net_13,14,15"/>
  <line x1="642" x2="740" y1="149" y2="149" class="net_13,14,15"/>
  <line x1="540" x2="740" y1="189" y2="189" class="net_171,172,173,174"/>
  <line x1="88" x2="117" y1="499.5" y2="499.5" class="net_15,16,17"/>
  <line x1="117" x2="117" y1="499.5" y2="521.5" class="net_15,16,17"/>
  <line x1="117" x2="872" y1="521.5" y2="521.5" class="net_15,16,17"/>
  <line x1="872" x2="872" y1="521.5" y2="32.5" class="net_15,16,17"/>
  <line x1="872" x2="970" y1="32.5" y2="32.5" class="net_15,16,17"/>
  <line x1="770" x2="882" y1="83.5" y2="83.5" class="net_175,176,177,178"/>
  <line x1="882" x2="882" y1="83.5" y2="72.5" class="net_175,176,177,178"/>
  <line x1="882" x2="970" y1="72.5" y2="72.5" class="net_175,176,177,178"/>
  <line x1="1195" x2="1273" y1="32.5" y2="32.5" class="net_18,19,20,21,22,23,24,25,26,27,28,29,30,31,32,33"/>
  <line x1="107" x2="153" y1="355" y2="355" class="net_162"/>
  <line x1="88" x2="117" y1="439.5" y2="439.5" class="net_10,11"/>
  <line x1="117" x2="117" y1="439.5" y2="375" class="net_10,11"/>
  <line x1="117" x2="153" y1="375" y2="375" class="net_10,11"/>
  <line x1="40" x2="52" y1="205" y2="205" class="net_2,3,4,5,6,7,8,9"/>
  <line x1="52" x2="52" y1="205" y2="215" class="net_2,3,4,5,6,7,8,9"/>
  <line x1="52" x2="117" y1="215" y2="215" class="net_2,3,4,5,6,7,8,9"/>
  <line x1="117" x2="117" y1="215" y2="20" class="net_2,3,4,5,6,7,8,9"/>
  <line x1="117" x2="151" y1="20" y2="20" class="net_2,3,4,5,6,7,8,9"/>
  <circle cx="52" cy="205" r="2" style="fill:#000" class="net_2,3,4,5,6,7,8,9"/>
  <line x1="151" x2="151" y1="20" y2="42" class="net_2,3,4,5,6,7,8,9"/>
  <line x1="40" x2="83.5" y1="205" y2="205" class="net_2,3,4,5,6,7,8,9"/>
  <line x1="83.5" x2="83.5" y1="205" y2="193" class="net_2,3,4,5,6,7,8,9"/>
  <line x1="88" x2="127" y1="182.5" y2="182.5" class="net_9"/>
  <line x1="127" x2="127" y1="182.5" y2="62.5" class="net_9"/>
  <circle cx="127" cy="182.5" r="2" style="fill:#000" class="net_9"/>
  <line x1="127" x2="150.5" y1="62.5" y2="62.5" class="net_9"/>
  <line x1="88" x2="127" y1="182.5" y2="182.5" class="net_9"/>
  <line x1="127" x2="127" y1="182.5" y2="82.5" class="net_9"/>
  <circle cx="127" cy="82.5" r="2" style="fill:#000" class="net_9"/>
  <line x1="127" x2="150.5" y1="82.5" y2="82.5" class="net_9"/>
  <line x1="88" x2="127" y1="182.5" y2="182.5" class="net_9"/>
  <line x1="127" x2="127" y1="182.5" y2="102.5" class="net_9"/>
  <circle cx="127" cy="102.5" r="2" style="fill:#000" class="net_9"/>
  <line x1="127" x2="150.5" y1="102.5" y2="102.5" class="net_9"/>
  <line x1="88" x2="127" y1="182.5" y2="182.5" class="net_9"/>
  <line x1="127" x2="127" y1="182.5" y2="122.5" class="net_9"/>
  <circle cx="127" cy="122.5" r="2" style="fill:#000" class="net_9"/>
  <line x1="127" x2="150.5" y1="122.5" y2="122.5" class="net_9"/>
  <line x1="88" x2="127" y1="182.5" y2="182.5" class="net_9"/>
  <line x1="127" x2="127" y1="182.5" y2="142.5" class="net_9"/>
  <circle cx="127" cy="142.5" r="2" style="fill:#000" class="net_9"/>
  <line x1="127" x2="150.5" y1="142.5" y2="142.5" class="net_9"/>
  <line x1="88" x2="127" y1="182.5" y2="182.5" class="net_9"/>
  <line x1="127" x2="127" y1="182.5" y2="162.5" class="net_9"/>
  <circle cx="127" cy="162.5" r="2" style="fill:#000" class="net_9"/>
  <line x1="127" x2="150.5" y1="162.5" y2="162.5" class="net_9"/>
  <line x1="88" x2="150.5" y1="182.5" y2="182.5" class="net_9"/>
  <line x1="88" x2="127" y1="182.5" y2="182.5" class="net_9"/>
  <line x1="127" x2="127" y1="182.5" y2="222" class="net_9"/>
  <line x1="127" x2="151" y1="222" y2="222" class="net_9"/>
  <line x1="151" x2="151" y1="222" y2="203" class="net_9"/>
  <line x1="40" x2="83" y1="449.5" y2="449.5" class="net_10,11,12,13,14,15,16,17"/>
</svg>
