<svg xmlns="http://www.w3.org/2000/svg" xmlns:xlink="http://www.w3.org/1999/xlink" xmlns:s="https://github.com/nturley/netlistsvg" width="507" height="207">
  <style>svg {
    stroke:#000;
    fill:none;
  }
  text {
    fill:#000;
    stroke:none;
    font-size:10px;
    font-weight: bold;
    font-family: "Courier New", monospace;
  }
  .nodelabel {
    text-anchor: middle;
  }
  .inputPortLabel {
    text-anchor: end;
  }
  .splitjoinBody {
    fill:#000;
  }</style>
  <g s:type="generic" transform="translate(376,109.5)" s:width="30" s:height="40" id="cell_add_inst">
    <text x="15" y="-4" class="nodelabel cell_add_inst" s:attribute="ref">adder</text>
    <rect width="30" height="40" s:generic="body" class="cell_add_inst"/>
    <g transform="translate(0,10)" s:x="0" s:y="10" s:pid="in0" id="port_add_inst~A">
      <text x="-3" y="-4" class="inputPortLabel cell_add_inst">A</text>
    </g>
    <g transform="translate(0,30)" s:x="0" s:y="10" s:pid="in0" id="port_add_inst~B">
      <text x="-3" y="-4" class="inputPortLabel cell_add_inst">B</text>
    </g>
    <g transform="translate(30,10)" s:x="30" s:y="10" s:pid="out0" id="port_add_inst~Y">
      <text x="5" y="-4" style="fill:#000; stroke:none" class="cell_add_inst">Y</text>
    </g>
  </g>
  <g s:type="generic" transform="translate(164,89.5)" s:width="30" s:height="40" id="cell_csa_inst">
    <text x="15" y="-4" class="nodelabel cell_csa_inst" s:attribute="ref">csa</text>
    <rect width="30" height="60" s:generic="body" class="cell_csa_inst"/>
    <g transform="translate(0,10)" s:x="0" s:y="10" s:pid="in0" id="port_csa_inst~A">
      <text x="-3" y="-4" class="inputPortLabel cell_csa_inst">A</text>
    </g>
    <g transform="translate(0,30)" s:x="0" s:y="10" s:pid="in0" id="port_csa_inst~B">
      <text x="-3" y="-4" class="inputPortLabel cell_csa_inst">B</text>
    </g>
    <g transform="translate(0,50)" s:x="0" s:y="10" s:pid="in0" id="port_csa_inst~C">
      <text x="-3" y="-4" class="inputPortLabel cell_csa_inst">C</text>
    </g>
    <g transform="translate(30,10)" s:x="30" s:y="10" s:pid="out0" id="port_csa_inst~Carry">
      <text x="5" y="-4" style="fill:#000; stroke:none" class="cell_csa_inst">Carry</text>
    </g>
    <g transform="translate(30,30)" s:x="30" s:y="10" s:pid="out0" id="port_csa_inst~Sum">
      <text x="5" y="-4" style="fill:#000; stroke:none" class="cell_csa_inst">Sum</text>
    </g>
  </g>
  <g s:type="generic" transform="translate(84,22)" s:width="30" s:height="40" id="cell_mul">
    <text x="15" y="-4" class="nodelabel cell_mul" s:attribute="ref">mbe</text>
    <rect width="30" height="40" s:generic="body" class="cell_mul"/>
    <g transform="translate(0,10)" s:x="0" s:y="10" s:pid="in0" id="port_mul~A">
      <text x="-3" y="-4" class="inputPortLabel cell_mul">A</text>
    </g>
    <g transform="translate(0,30)" s:x="0" s:y="10" s:pid="in0" id="port_mul~B">
      <text x="-3" y="-4" class="inputPortLabel cell_mul">B</text>
    </g>
    <g transform="translate(30,10)" s:x="30" s:y="10" s:pid="out0" id="port_mul~P">
      <text x="5" y="-4" style="fill:#000; stroke:none" class="cell_mul">P</text>
    </g>
  </g>
  <g s:type="generic" transform="translate(274,141)" s:width="30" s:height="40" id="cell_shift_inst">
    <text x="15" y="-4" class="nodelabel cell_shift_inst" s:attribute="ref">shifter</text>
    <rect width="30" height="20" s:generic="body" class="cell_shift_inst"/>
    <g transform="translate(0,10)" s:x="0" s:y="10" s:pid="in0" id="port_shift_inst~in">
      <text x="-3" y="-4" class="inputPortLabel cell_shift_inst">in</text>
    </g>
    <g transform="translate(30,10)" s:x="30" s:y="10" s:pid="out0" id="port_shift_inst~out">
      <text x="5" y="-4" style="fill:#000; stroke:none" class="cell_shift_inst">out</text>
    </g>
  </g>
  <g s:type="inputExt" transform="translate(12,22.5)" s:width="30" s:height="20" id="cell_A">
    <text x="15" y="-4" class="nodelabel cell_A" s:attribute="ref">A</text>
    <s:alias val="$_inputExt_"/>
    <path d="M0,0 L0,20 L15,20 L30,10 L15,0 Z" class="cell_A"/>
    <g s:x="28" s:y="10" s:pid="Y"/>
  </g>
  <g s:type="inputExt" transform="translate(12,87.5)" s:width="30" s:height="20" id="cell_B">
    <text x="15" y="-4" class="nodelabel cell_B" s:attribute="ref">B</text>
    <s:alias val="$_inputExt_"/>
    <path d="M0,0 L0,20 L15,20 L30,10 L15,0 Z" class="cell_B"/>
    <g s:x="28" s:y="10" s:pid="Y"/>
  </g>
  <g s:type="inputExt" transform="translate(84,110)" s:width="30" s:height="20" id="cell_AccIn">
    <text x="15" y="-4" class="nodelabel cell_AccIn" s:attribute="ref">AccIn</text>
    <s:alias val="$_inputExt_"/>
    <path d="M0,0 L0,20 L15,20 L30,10 L15,0 Z" class="cell_AccIn"/>
    <g s:x="28" s:y="10" s:pid="Y"/>
  </g>
  <g s:type="outputExt" transform="translate(459,110)" s:width="30" s:height="20" id="cell_AccOut">
    <text x="15" y="-4" class="nodelabel cell_AccOut" s:attribute="ref">AccOut</text>
    <s:alias val="$_outputExt_"/>
    <path d="M30,0 L30,20 L15,20 L0,10 L15,0 Z" class="cell_AccOut"/>
    <g s:x="0" s:y="10" s:pid="A"/>
  </g>
  <g s:type="constant" transform="translate(84,175)" s:width="30" s:height="20" id="cell_0000000000000000">
    <text x="15" y="-4" class="nodelabel cell_0000000000000000" s:attribute="ref">0x0</text>
    <s:alias val="$_constant_"/>
    <rect width="30" height="20" class="cell_0000000000000000"/>
    <g s:x="30" s:y="10" s:pid="Y"/>
  </g>
  <line x1="195" x2="376" y1="120" y2="120" class="net_50,51,52,53,54,55,56,57,58,59,60,61,62,63,64,65"/>
  <line x1="305" x2="344" y1="151.5" y2="151.5" class="net_66,67,68,69,70,71,72,73,74,75,76,77,78,79,80,81"/>
  <line x1="344" x2="344" y1="151.5" y2="140" class="net_66,67,68,69,70,71,72,73,74,75,76,77,78,79,80,81"/>
  <line x1="344" x2="376" y1="140" y2="140" class="net_66,67,68,69,70,71,72,73,74,75,76,77,78,79,80,81"/>
  <line x1="115" x2="132" y1="32.5" y2="32.5" class="net_82,83,84,85,86,87,88,89,90,91,92,93,94,95,96,97"/>
  <line x1="132" x2="132" y1="32.5" y2="100" class="net_82,83,84,85,86,87,88,89,90,91,92,93,94,95,96,97"/>
  <line x1="132" x2="164" y1="100" y2="100" class="net_82,83,84,85,86,87,88,89,90,91,92,93,94,95,96,97"/>
  <line x1="112" x2="164" y1="120" y2="120" class="net_18,19,20,21,22,23,24,25,26,27,28,29,30,31,32,33"/>
  <line x1="114" x2="132" y1="185" y2="185" class="net_114,115,116,117,118,119,120,121,122,123,124,125,126,127,128,129"/>
  <line x1="132" x2="132" y1="185" y2="140" class="net_114,115,116,117,118,119,120,121,122,123,124,125,126,127,128,129"/>
  <line x1="132" x2="164" y1="140" y2="140" class="net_114,115,116,117,118,119,120,121,122,123,124,125,126,127,128,129"/>
  <line x1="40" x2="84" y1="32.5" y2="32.5" class="net_2,3,4,5,6,7,8,9"/>
  <line x1="40" x2="52" y1="97.5" y2="97.5" class="net_10,11,12,13,14,15,16,17"/>
  <line x1="52" x2="52" y1="97.5" y2="52.5" class="net_10,11,12,13,14,15,16,17"/>
  <line x1="52" x2="84" y1="52.5" y2="52.5" class="net_10,11,12,13,14,15,16,17"/>
  <line x1="195" x2="236" y1="100" y2="100" class="net_98,99,100,101,102,103,104,105,106,107,108,109,110,111,112,113"/>
  <line x1="236" x2="236" y1="100" y2="151.5" class="net_98,99,100,101,102,103,104,105,106,107,108,109,110,111,112,113"/>
  <line x1="236" x2="274" y1="151.5" y2="151.5" class="net_98,99,100,101,102,103,104,105,106,107,108,109,110,111,112,113"/>
  <line x1="407" x2="459" y1="120" y2="120" class="net_34,35,36,37,38,39,40,41,42,43,44,45,46,47,48,49"/>
</svg>
