<svg xmlns="http://www.w3.org/2000/svg" xmlns:xlink="http://www.w3.org/1999/xlink" xmlns:s="https://github.com/nturley/netlistsvg" width="1703" height="389">
  <style>svg {
    stroke:#000;
    fill:none;
  }
  text {
    fill:#000;
    stroke:none;
    font-size:10px;
    font-weight: bold;
    font-family: "Courier New", monospace;
  }
  .nodelabel {
    text-anchor: middle;
  }
  .inputPortLabel {
    text-anchor: end;
  }
  .splitjoinBody {
    fill:#000;
  }</style>
  <g s:type="generic" transform="translate(343,86.5)" s:width="30" s:height="40" id="cell_u_b1">
    <text x="15" y="-4" class="nodelabel cell_u_b1" s:attribute="ref">black_cell_16</text>
    <rect width="30" height="80" s:generic="body" class="cell_u_b1"/>
    <g transform="translate(0,10)" s:x="0" s:y="10" s:pid="in0" id="port_u_b1~Gk">
      <text x="-3" y="-4" class="inputPortLabel cell_u_b1">Gk</text>
    </g>
    <g transform="translate(0,30)" s:x="0" s:y="10" s:pid="in0" id="port_u_b1~Gk_minus1">
      <text x="-3" y="-4" class="inputPortLabel cell_u_b1">Gk_minus1</text>
    </g>
    <g transform="translate(0,50)" s:x="0" s:y="10" s:pid="in0" id="port_u_b1~Pk">
      <text x="-3" y="-4" class="inputPortLabel cell_u_b1">Pk</text>
    </g>
    <g transform="translate(0,70)" s:x="0" s:y="10" s:pid="in0" id="port_u_b1~Pk_minus1">
      <text x="-3" y="-4" class="inputPortLabel cell_u_b1">Pk_minus1</text>
    </g>
    <g transform="translate(30,10)" s:x="30" s:y="10" s:pid="out0" id="port_u_b1~G_out">
      <text x="5" y="-4" style="fill:#000; stroke:none" class="cell_u_b1">G_out</text>
    </g>
    <g transform="translate(30,30)" s:x="30" s:y="10" s:pid="out0" id="port_u_b1~P_out">
      <text x="5" y="-4" style="fill:#000; stroke:none" class="cell_u_b1">P_out</text>
    </g>
  </g>
  <g s:type="generic" transform="translate(631,110.5)" s:width="30" s:height="40" id="cell_u_b2">
    <text x="15" y="-4" class="nodelabel cell_u_b2" s:attribute="ref">black_cell_16</text>
    <rect width="30" height="80" s:generic="body" class="cell_u_b2"/>
    <g transform="translate(0,10)" s:x="0" s:y="10" s:pid="in0" id="port_u_b2~Gk">
      <text x="-3" y="-4" class="inputPortLabel cell_u_b2">Gk</text>
    </g>
    <g transform="translate(0,30)" s:x="0" s:y="10" s:pid="in0" id="port_u_b2~Gk_minus1">
      <text x="-3" y="-4" class="inputPortLabel cell_u_b2">Gk_minus1</text>
    </g>
    <g transform="translate(0,50)" s:x="0" s:y="10" s:pid="in0" id="port_u_b2~Pk">
      <text x="-3" y="-4" class="inputPortLabel cell_u_b2">Pk</text>
    </g>
    <g transform="translate(0,70)" s:x="0" s:y="10" s:pid="in0" id="port_u_b2~Pk_minus1">
      <text x="-3" y="-4" class="inputPortLabel cell_u_b2">Pk_minus1</text>
    </g>
    <g transform="translate(30,10)" s:x="30" s:y="10" s:pid="out0" id="port_u_b2~G_out">
      <text x="5" y="-4" style="fill:#000; stroke:none" class="cell_u_b2">G_out</text>
    </g>
    <g transform="translate(30,30)" s:x="30" s:y="10" s:pid="out0" id="port_u_b2~P_out">
      <text x="5" y="-4" style="fill:#000; stroke:none" class="cell_u_b2">P_out</text>
    </g>
  </g>
  <g s:type="generic" transform="translate(919,134.5)" s:width="30" s:height="40" id="cell_u_b3">
    <text x="15" y="-4" class="nodelabel cell_u_b3" s:attribute="ref">black_cell_16</text>
    <rect width="30" height="80" s:generic="body" class="cell_u_b3"/>
    <g transform="translate(0,10)" s:x="0" s:y="10" s:pid="in0" id="port_u_b3~Gk">
      <text x="-3" y="-4" class="inputPortLabel cell_u_b3">Gk</text>
    </g>
    <g transform="translate(0,30)" s:x="0" s:y="10" s:pid="in0" id="port_u_b3~Gk_minus1">
      <text x="-3" y="-4" class="inputPortLabel cell_u_b3">Gk_minus1</text>
    </g>
    <g transform="translate(0,50)" s:x="0" s:y="10" s:pid="in0" id="port_u_b3~Pk">
      <text x="-3" y="-4" class="inputPortLabel cell_u_b3">Pk</text>
    </g>
    <g transform="translate(0,70)" s:x="0" s:y="10" s:pid="in0" id="port_u_b3~Pk_minus1">
      <text x="-3" y="-4" class="inputPortLabel cell_u_b3">Pk_minus1</text>
    </g>
    <g transform="translate(30,10)" s:x="30" s:y="10" s:pid="out0" id="port_u_b3~G_out">
      <text x="5" y="-4" style="fill:#000; stroke:none" class="cell_u_b3">G_out</text>
    </g>
    <g transform="translate(30,30)" s:x="30" s:y="10" s:pid="out0" id="port_u_b3~P_out">
      <text x="5" y="-4" style="fill:#000; stroke:none" class="cell_u_b3">P_out</text>
    </g>
  </g>
  <g s:type="generic" transform="translate(1201,158.5)" s:width="30" s:height="40" id="cell_u_b4">
    <text x="15" y="-4" class="nodelabel cell_u_b4" s:attribute="ref">black_cell_16</text>
    <rect width="30" height="80" s:generic="body" class="cell_u_b4"/>
    <g transform="translate(0,10)" s:x="0" s:y="10" s:pid="in0" id="port_u_b4~Gk">
      <text x="-3" y="-4" class="inputPortLabel cell_u_b4">Gk</text>
    </g>
    <g transform="translate(0,30)" s:x="0" s:y="10" s:pid="in0" id="port_u_b4~Gk_minus1">
      <text x="-3" y="-4" class="inputPortLabel cell_u_b4">Gk_minus1</text>
    </g>
    <g transform="translate(0,50)" s:x="0" s:y="10" s:pid="in0" id="port_u_b4~Pk">
      <text x="-3" y="-4" class="inputPortLabel cell_u_b4">Pk</text>
    </g>
    <g transform="translate(0,70)" s:x="0" s:y="10" s:pid="in0" id="port_u_b4~Pk_minus1">
      <text x="-3" y="-4" class="inputPortLabel cell_u_b4">Pk_minus1</text>
    </g>
    <g transform="translate(30,10)" s:x="30" s:y="10" s:pid="out0" id="port_u_b4~G_out">
      <text x="5" y="-4" style="fill:#000; stroke:none" class="cell_u_b4">G_out</text>
    </g>
    <g transform="translate(30,30)" s:x="30" s:y="10" s:pid="out0" id="port_u_b4~P_out">
      <text x="5" y="-4" style="fill:#000; stroke:none" class="cell_u_b4">P_out</text>
    </g>
  </g>
  <g s:type="generic" transform="translate(1484,306.5)" s:width="30" s:height="40" id="cell_u_gray">
    <text x="15" y="-4" class="nodelabel cell_u_gray" s:attribute="ref">gray_cell_16</text>
    <rect width="30" height="60" s:generic="body" class="cell_u_gray"/>
    <g transform="translate(0,10)" s:x="0" s:y="10" s:pid="in0" id="port_u_gray~Gk">
      <text x="-3" y="-4" class="inputPortLabel cell_u_gray">Gk</text>
    </g>
    <g transform="translate(0,30)" s:x="0" s:y="10" s:pid="in0" id="port_u_gray~Gk_minus1">
      <text x="-3" y="-4" class="inputPortLabel cell_u_gray">Gk_minus1</text>
    </g>
    <g transform="translate(0,50)" s:x="0" s:y="10" s:pid="in0" id="port_u_gray~Pk_minus1">
      <text x="-3" y="-4" class="inputPortLabel cell_u_gray">Pk_minus1</text>
    </g>
    <g transform="translate(30,10)" s:x="30" s:y="10" s:pid="out0" id="port_u_gray~G_out">
      <text x="5" y="-4" style="fill:#000; stroke:none" class="cell_u_gray">G_out</text>
    </g>
  </g>
  <g s:type="generic" transform="translate(84,116.5)" s:width="30" s:height="40" id="cell_u_pg">
    <text x="15" y="-4" class="nodelabel cell_u_pg" s:attribute="ref">pg_cell_16</text>
    <rect width="30" height="40" s:generic="body" class="cell_u_pg"/>
    <g transform="translate(0,10)" s:x="0" s:y="10" s:pid="in0" id="port_u_pg~A">
      <text x="-3" y="-4" class="inputPortLabel cell_u_pg">A</text>
    </g>
    <g transform="translate(0,30)" s:x="0" s:y="10" s:pid="in0" id="port_u_pg~B">
      <text x="-3" y="-4" class="inputPortLabel cell_u_pg">B</text>
    </g>
    <g transform="translate(30,10)" s:x="30" s:y="10" s:pid="out0" id="port_u_pg~G">
      <text x="5" y="-4" style="fill:#000; stroke:none" class="cell_u_pg">G</text>
    </g>
    <g transform="translate(30,30)" s:x="30" s:y="10" s:pid="out0" id="port_u_pg~P">
      <text x="5" y="-4" style="fill:#000; stroke:none" class="cell_u_pg">P</text>
    </g>
  </g>
  <g s:type="generic" transform="translate(1588,286.5)" s:width="30" s:height="40" id="cell_u_sum">
    <text x="15" y="-4" class="nodelabel cell_u_sum" s:attribute="ref">xor2_16</text>
    <rect width="30" height="40" s:generic="body" class="cell_u_sum"/>
    <g transform="translate(0,10)" s:x="0" s:y="10" s:pid="in0" id="port_u_sum~A">
      <text x="-3" y="-4" class="inputPortLabel cell_u_sum">A</text>
    </g>
    <g transform="translate(0,30)" s:x="0" s:y="10" s:pid="in0" id="port_u_sum~B">
      <text x="-3" y="-4" class="inputPortLabel cell_u_sum">B</text>
    </g>
    <g transform="translate(30,10)" s:x="30" s:y="10" s:pid="out0" id="port_u_sum~Y">
      <text x="5" y="-4" style="fill:#000; stroke:none" class="cell_u_sum">Y</text>
    </g>
  </g>
  <g s:type="inputExt" transform="translate(12,72)" s:width="30" s:height="20" id="cell_A">
    <text x="15" y="-4" class="nodelabel cell_A" s:attribute="ref">A</text>
    <s:alias val="$_inputExt_"/>
    <path d="M0,0 L0,20 L15,20 L30,10 L15,0 Z" class="cell_A"/>
    <g s:x="28" s:y="10" s:pid="Y"/>
  </g>
  <g s:type="inputExt" transform="translate(12,137)" s:width="30" s:height="20" id="cell_B">
    <text x="15" y="-4" class="nodelabel cell_B" s:attribute="ref">B</text>
    <s:alias val="$_inputExt_"/>
    <path d="M0,0 L0,20 L15,20 L30,10 L15,0 Z" class="cell_B"/>
    <g s:x="28" s:y="10" s:pid="Y"/>
  </g>
  <g s:type="outputExt" transform="translate(1661,287)" s:width="30" s:height="20" id="cell_SUM">
    <text x="15" y="-4" class="nodelabel cell_SUM" s:attribute="ref">SUM</text>
    <s:alias val="$_outputExt_"/>
    <path d="M30,0 L30,20 L15,20 L0,10 L15,0 Z" class="cell_SUM"/>
    <g s:x="0" s:y="10" s:pid="A"/>
  </g>
  <g s:type="constant" transform="translate(157,249)" s:width="30" s:height="20" id="cell_0">
    <text x="15" y="-4" class="nodelabel cell_0" s:attribute="ref">0</text>
    <s:alias val="$_constant_"/>
    <rect width="30" height="20" class="cell_0"/>
    <g s:x="30" s:y="10" s:pid="Y"/>
  </g>
  <g s:type="constant" transform="translate(157,357)" s:width="30" s:height="20" id="cell_1">
    <text x="15" y="-4" class="nodelabel cell_1" s:attribute="ref">1</text>
    <s:alias val="$_constant_"/>
    <rect width="30" height="20" class="cell_1"/>
    <g s:x="30" s:y="10" s:pid="Y"/>
  </g>
  <g s:type="constant" transform="translate(440,87)" s:width="30" s:height="20" id="cell_00">
    <text x="15" y="-4" class="nodelabel cell_00" s:attribute="ref">00</text>
    <s:alias val="$_constant_"/>
    <rect width="30" height="20" class="cell_00"/>
    <g s:x="30" s:y="10" s:pid="Y"/>
  </g>
  <g s:type="constant" transform="translate(440,181)" s:width="30" s:height="20" id="cell_01">
    <text x="15" y="-4" class="nodelabel cell_01" s:attribute="ref">01</text>
    <s:alias val="$_constant_"/>
    <rect width="30" height="20" class="cell_01"/>
    <g s:x="30" s:y="10" s:pid="Y"/>
  </g>
  <g s:type="constant" transform="translate(728,111)" s:width="30" s:height="20" id="cell_0000">
    <text x="15" y="-4" class="nodelabel cell_0000" s:attribute="ref">0x0</text>
    <s:alias val="$_constant_"/>
    <rect width="30" height="20" class="cell_0000"/>
    <g s:x="30" s:y="10" s:pid="Y"/>
  </g>
  <g s:type="constant" transform="translate(728,205)" s:width="30" s:height="20" id="cell_0001">
    <text x="15" y="-4" class="nodelabel cell_0001" s:attribute="ref">0x1</text>
    <s:alias val="$_constant_"/>
    <rect width="30" height="20" class="cell_0001"/>
    <g s:x="30" s:y="10" s:pid="Y"/>
  </g>
  <g s:type="constant" transform="translate(1016,135)" s:width="30" s:height="20" id="cell_00000000">
    <text x="15" y="-4" class="nodelabel cell_00000000" s:attribute="ref">0x0</text>
    <s:alias val="$_constant_"/>
    <rect width="30" height="20" class="cell_00000000"/>
    <g s:x="30" s:y="10" s:pid="Y"/>
  </g>
  <g s:type="constant" transform="translate(1016,229)" s:width="30" s:height="20" id="cell_00000001">
    <text x="15" y="-4" class="nodelabel cell_00000001" s:attribute="ref">0x1</text>
    <s:alias val="$_constant_"/>
    <rect width="30" height="20" class="cell_00000001"/>
    <g s:x="30" s:y="10" s:pid="Y"/>
  </g>
  <g s:type="join" transform="translate(247,87)" s:width="4" s:height="40" id="cell_$join$,67,68,69,70,71,72,73,74,75,76,77,78,79,80,81,226,">
    <rect width="5" height="40" class="splitjoinBody" s:generic="body"/>
    <s:alias val="$_join_"/>
    <g s:x="5" s:y="20" s:pid="out"/>
    <g transform="translate(0,10)" s:x="0" s:y="10" s:pid="in0">
      <text x="-3" y="-4" class="inputPortLabel">0:14</text>
    </g>
    <g transform="translate(0,30)" s:x="0" s:y="10" s:pid="in0">
      <text x="-3" y="-4" class="inputPortLabel">15</text>
    </g>
  </g>
  <g s:type="join" transform="translate(247,304)" s:width="4" s:height="40" id="cell_$join$,99,100,101,102,103,104,105,106,107,108,109,110,111,112,113,227,">
    <rect width="5" height="40" class="splitjoinBody" s:generic="body"/>
    <s:alias val="$_join_"/>
    <g s:x="5" s:y="20" s:pid="out"/>
    <g transform="translate(0,10)" s:x="0" s:y="10" s:pid="in0">
      <text x="-3" y="-4" class="inputPortLabel">0:14</text>
    </g>
    <g transform="translate(0,30)" s:x="0" s:y="10" s:pid="in0">
      <text x="-3" y="-4" class="inputPortLabel">15</text>
    </g>
  </g>
  <g s:type="join" transform="translate(530,66.5)" s:width="4" s:height="40" id="cell_$join$,52,53,54,55,56,57,58,59,60,61,62,63,64,65,228,229,">
    <rect width="5" height="40" class="splitjoinBody" s:generic="body"/>
    <s:alias val="$_join_"/>
    <g s:x="5" s:y="20" s:pid="out"/>
    <g transform="translate(0,10)" s:x="0" s:y="10" s:pid="in0">
      <text x="-3" y="-4" class="inputPortLabel">0:13</text>
    </g>
    <g transform="translate(0,30)" s:x="0" s:y="10" s:pid="in0">
      <text x="-3" y="-4" class="inputPortLabel">14:15</text>
    </g>
  </g>
  <g s:type="join" transform="translate(530,160.5)" s:width="4" s:height="40" id="cell_$join$,84,85,86,87,88,89,90,91,92,93,94,95,96,97,230,231,">
    <rect width="5" height="40" class="splitjoinBody" s:generic="body"/>
    <s:alias val="$_join_"/>
    <g s:x="5" s:y="20" s:pid="out"/>
    <g transform="translate(0,10)" s:x="0" s:y="10" s:pid="in0">
      <text x="-3" y="-4" class="inputPortLabel">0:13</text>
    </g>
    <g transform="translate(0,30)" s:x="0" s:y="10" s:pid="in0">
      <text x="-3" y="-4" class="inputPortLabel">14:15</text>
    </g>
  </g>
  <g s:type="join" transform="translate(818,90.5)" s:width="4" s:height="40" id="cell_$join$,118,119,120,121,122,123,124,125,126,127,128,129,232,233,234,235,">
    <rect width="5" height="40" class="splitjoinBody" s:generic="body"/>
    <s:alias val="$_join_"/>
    <g s:x="5" s:y="20" s:pid="out"/>
    <g transform="translate(0,10)" s:x="0" s:y="10" s:pid="in0">
      <text x="-3" y="-4" class="inputPortLabel">0:11</text>
    </g>
    <g transform="translate(0,30)" s:x="0" s:y="10" s:pid="in0">
      <text x="-3" y="-4" class="inputPortLabel">12:15</text>
    </g>
  </g>
  <g s:type="join" transform="translate(818,184.5)" s:width="4" s:height="40" id="cell_$join$,134,135,136,137,138,139,140,141,142,143,144,145,236,237,238,239,">
    <rect width="5" height="40" class="splitjoinBody" s:generic="body"/>
    <s:alias val="$_join_"/>
    <g s:x="5" s:y="20" s:pid="out"/>
    <g transform="translate(0,10)" s:x="0" s:y="10" s:pid="in0">
      <text x="-3" y="-4" class="inputPortLabel">0:11</text>
    </g>
    <g transform="translate(0,30)" s:x="0" s:y="10" s:pid="in0">
      <text x="-3" y="-4" class="inputPortLabel">12:15</text>
    </g>
  </g>
  <g s:type="join" transform="translate(1100,114.5)" s:width="4" s:height="40" id="cell_$join$,154,155,156,157,158,159,160,161,240,241,242,243,244,245,246,247,">
    <rect width="5" height="40" class="splitjoinBody" s:generic="body"/>
    <s:alias val="$_join_"/>
    <g s:x="5" s:y="20" s:pid="out"/>
    <g transform="translate(0,10)" s:x="0" s:y="10" s:pid="in0">
      <text x="-3" y="-4" class="inputPortLabel">0:7</text>
    </g>
    <g transform="translate(0,30)" s:x="0" s:y="10" s:pid="in0">
      <text x="-3" y="-4" class="inputPortLabel">8:15</text>
    </g>
  </g>
  <g s:type="join" transform="translate(1100,208.5)" s:width="4" s:height="40" id="cell_$join$,170,171,172,173,174,175,176,177,248,249,250,251,252,253,254,255,">
    <rect width="5" height="40" class="splitjoinBody" s:generic="body"/>
    <s:alias val="$_join_"/>
    <g s:x="5" s:y="20" s:pid="out"/>
    <g transform="translate(0,10)" s:x="0" s:y="10" s:pid="in0">
      <text x="-3" y="-4" class="inputPortLabel">0:7</text>
    </g>
    <g transform="translate(0,30)" s:x="0" s:y="10" s:pid="in0">
      <text x="-3" y="-4" class="inputPortLabel">8:15</text>
    </g>
  </g>
  <g s:type="join" transform="translate(1388,228.5)" s:width="4" s:height="40" id="cell_$join$,179,180,181,182,183,184,185,186,187,188,189,190,191,192,193,226,">
    <rect width="5" height="40" class="splitjoinBody" s:generic="body"/>
    <s:alias val="$_join_"/>
    <g s:x="5" s:y="20" s:pid="out"/>
    <g transform="translate(0,10)" s:x="0" s:y="10" s:pid="in0">
      <text x="-3" y="-4" class="inputPortLabel">0:14</text>
    </g>
    <g transform="translate(0,30)" s:x="0" s:y="10" s:pid="in0">
      <text x="-3" y="-4" class="inputPortLabel">15</text>
    </g>
  </g>
  <g s:type="join" transform="translate(1388,336.5)" s:width="4" s:height="40" id="cell_$join$,195,196,197,198,199,200,201,202,203,204,205,206,207,208,209,227,">
    <rect width="5" height="40" class="splitjoinBody" s:generic="body"/>
    <s:alias val="$_join_"/>
    <g s:x="5" s:y="20" s:pid="out"/>
    <g transform="translate(0,10)" s:x="0" s:y="10" s:pid="in0">
      <text x="-3" y="-4" class="inputPortLabel">0:14</text>
    </g>
    <g transform="translate(0,30)" s:x="0" s:y="10" s:pid="in0">
      <text x="-3" y="-4" class="inputPortLabel">15</text>
    </g>
  </g>
  <g s:type="split" transform="translate(157,87)" s:width="5" s:height="40" id="cell_$split$,66,67,68,69,70,71,72,73,74,75,76,77,78,79,80,81,">
    <rect width="5" height="20" class="splitjoinBody" s:generic="body"/>
    <s:alias val="$_split_"/>
    <g s:x="0" s:y="20" s:pid="in"/>
    <g transform="translate(4,10)" s:x="4" s:y="10" s:pid="out0">
      <text x="5" y="-4">1:15</text>
    </g>
  </g>
  <g s:type="split" transform="translate(157,304)" s:width="5" s:height="40" id="cell_$split$,98,99,100,101,102,103,104,105,106,107,108,109,110,111,112,113,">
    <rect width="5" height="20" class="splitjoinBody" s:generic="body"/>
    <s:alias val="$_split_"/>
    <g s:x="0" s:y="20" s:pid="in"/>
    <g transform="translate(4,10)" s:x="4" s:y="10" s:pid="out0">
      <text x="5" y="-4">1:15</text>
    </g>
  </g>
  <g s:type="split" transform="translate(440,34)" s:width="5" s:height="40" id="cell_$split$,50,51,52,53,54,55,56,57,58,59,60,61,62,63,64,65,">
    <rect width="5" height="20" class="splitjoinBody" s:generic="body"/>
    <s:alias val="$_split_"/>
    <g s:x="0" s:y="20" s:pid="in"/>
    <g transform="translate(4,10)" s:x="4" s:y="10" s:pid="out0">
      <text x="5" y="-4">2:15</text>
    </g>
  </g>
  <g s:type="split" transform="translate(440,128)" s:width="5" s:height="40" id="cell_$split$,82,83,84,85,86,87,88,89,90,91,92,93,94,95,96,97,">
    <rect width="5" height="20" class="splitjoinBody" s:generic="body"/>
    <s:alias val="$_split_"/>
    <g s:x="0" s:y="20" s:pid="in"/>
    <g transform="translate(4,10)" s:x="4" s:y="10" s:pid="out0">
      <text x="5" y="-4">2:15</text>
    </g>
  </g>
  <g s:type="split" transform="translate(728,58)" s:width="5" s:height="40" id="cell_$split$,114,115,116,117,118,119,120,121,122,123,124,125,126,127,128,129,">
    <rect width="5" height="20" class="splitjoinBody" s:generic="body"/>
    <s:alias val="$_split_"/>
    <g s:x="0" s:y="20" s:pid="in"/>
    <g transform="translate(4,10)" s:x="4" s:y="10" s:pid="out0">
      <text x="5" y="-4">4:15</text>
    </g>
  </g>
  <g s:type="split" transform="translate(728,152)" s:width="5" s:height="40" id="cell_$split$,130,131,132,133,134,135,136,137,138,139,140,141,142,143,144,145,">
    <rect width="5" height="20" class="splitjoinBody" s:generic="body"/>
    <s:alias val="$_split_"/>
    <g s:x="0" s:y="20" s:pid="in"/>
    <g transform="translate(4,10)" s:x="4" s:y="10" s:pid="out0">
      <text x="5" y="-4">4:15</text>
    </g>
  </g>
  <g s:type="split" transform="translate(1016,82)" s:width="5" s:height="40" id="cell_$split$,146,147,148,149,150,151,152,153,154,155,156,157,158,159,160,161,">
    <rect width="5" height="20" class="splitjoinBody" s:generic="body"/>
    <s:alias val="$_split_"/>
    <g s:x="0" s:y="20" s:pid="in"/>
    <g transform="translate(4,10)" s:x="4" s:y="10" s:pid="out0">
      <text x="5" y="-4">8:15</text>
    </g>
  </g>
  <g s:type="split" transform="translate(1016,176)" s:width="5" s:height="40" id="cell_$split$,162,163,164,165,166,167,168,169,170,171,172,173,174,175,176,177,">
    <rect width="5" height="20" class="splitjoinBody" s:generic="body"/>
    <s:alias val="$_split_"/>
    <g s:x="0" s:y="20" s:pid="in"/>
    <g transform="translate(4,10)" s:x="4" s:y="10" s:pid="out0">
      <text x="5" y="-4">8:15</text>
    </g>
  </g>
  <g s:type="split" transform="translate(1298,136)" s:width="5" s:height="40" id="cell_$split$,178,179,180,181,182,183,184,185,186,187,188,189,190,191,192,193,">
    <rect width="5" height="20" class="splitjoinBody" s:generic="body"/>
    <s:alias val="$_split_"/>
    <g s:x="0" s:y="20" s:pid="in"/>
    <g transform="translate(4,10)" s:x="4" s:y="10" s:pid="out0">
      <text x="5" y="-4">1:15</text>
    </g>
  </g>
  <g s:type="split" transform="translate(1298,216)" s:width="5" s:height="40" id="cell_$split$,194,195,196,197,198,199,200,201,202,203,204,205,206,207,208,209,">
    <rect width="5" height="20" class="splitjoinBody" s:generic="body"/>
    <s:alias val="$_split_"/>
    <g s:x="0" s:y="20" s:pid="in"/>
    <g transform="translate(4,10)" s:x="4" s:y="10" s:pid="out0">
      <text x="5" y="-4">1:15</text>
    </g>
  </g>
  <line x1="115" x2="142" y1="127" y2="127" class="net_66,67,68,69,70,71,72,73,74,75,76,77,78,79,80,81"/>
  <line x1="142" x2="142" y1="127" y2="74" class="net_66,67,68,69,70,71,72,73,74,75,76,77,78,79,80,81"/>
  <line x1="142" x2="263" y1="74" y2="74" class="net_66,67,68,69,70,71,72,73,74,75,76,77,78,79,80,81"/>
  <line x1="263" x2="263" y1="74" y2="97" class="net_66,67,68,69,70,71,72,73,74,75,76,77,78,79,80,81"/>
  <circle cx="142" cy="127" r="2" style="fill:#000" class="net_66,67,68,69,70,71,72,73,74,75,76,77,78,79,80,81"/>
  <line x1="263" x2="343" y1="97" y2="97" class="net_66,67,68,69,70,71,72,73,74,75,76,77,78,79,80,81"/>
  <line x1="115" x2="157.5" y1="127" y2="127" class="net_66,67,68,69,70,71,72,73,74,75,76,77,78,79,80,81"/>
  <line x1="157.5" x2="157.5" y1="127" y2="108" class="net_66,67,68,69,70,71,72,73,74,75,76,77,78,79,80,81"/>
  <line x1="253" x2="263" y1="107.5" y2="107.5" class="net_67,68,69,70,71,72,73,74,75,76,77,78,79,80,81,226"/>
  <line x1="263" x2="263" y1="107.5" y2="117" class="net_67,68,69,70,71,72,73,74,75,76,77,78,79,80,81,226"/>
  <line x1="263" x2="343" y1="117" y2="117" class="net_67,68,69,70,71,72,73,74,75,76,77,78,79,80,81,226"/>
  <line x1="115" x2="132" y1="147" y2="147" class="net_98,99,100,101,102,103,104,105,106,107,108,109,110,111,112,113"/>
  <line x1="132" x2="132" y1="147" y2="137" class="net_98,99,100,101,102,103,104,105,106,107,108,109,110,111,112,113"/>
  <circle cx="132" cy="147" r="2" style="fill:#000" class="net_98,99,100,101,102,103,104,105,106,107,108,109,110,111,112,113"/>
  <circle cx="132" cy="137" r="2" style="fill:#000" class="net_98,99,100,101,102,103,104,105,106,107,108,109,110,111,112,113"/>
  <line x1="132" x2="343" y1="137" y2="137" class="net_98,99,100,101,102,103,104,105,106,107,108,109,110,111,112,113"/>
  <line x1="115" x2="132" y1="147" y2="147" class="net_98,99,100,101,102,103,104,105,106,107,108,109,110,111,112,113"/>
  <line x1="132" x2="132" y1="147" y2="12" class="net_98,99,100,101,102,103,104,105,106,107,108,109,110,111,112,113"/>
  <line x1="132" x2="1556" y1="12" y2="12" class="net_98,99,100,101,102,103,104,105,106,107,108,109,110,111,112,113"/>
  <line x1="1556" x2="1556" y1="12" y2="297" class="net_98,99,100,101,102,103,104,105,106,107,108,109,110,111,112,113"/>
  <line x1="1556" x2="1588" y1="297" y2="297" class="net_98,99,100,101,102,103,104,105,106,107,108,109,110,111,112,113"/>
  <line x1="115" x2="132" y1="147" y2="147" class="net_98,99,100,101,102,103,104,105,106,107,108,109,110,111,112,113"/>
  <line x1="132" x2="132" y1="147" y2="337" class="net_98,99,100,101,102,103,104,105,106,107,108,109,110,111,112,113"/>
  <line x1="132" x2="157.5" y1="337" y2="337" class="net_98,99,100,101,102,103,104,105,106,107,108,109,110,111,112,113"/>
  <line x1="157.5" x2="157.5" y1="337" y2="325" class="net_98,99,100,101,102,103,104,105,106,107,108,109,110,111,112,113"/>
  <line x1="253" x2="263" y1="324.5" y2="324.5" class="net_99,100,101,102,103,104,105,106,107,108,109,110,111,112,113,227"/>
  <line x1="263" x2="263" y1="324.5" y2="157" class="net_99,100,101,102,103,104,105,106,107,108,109,110,111,112,113,227"/>
  <line x1="263" x2="343" y1="157" y2="157" class="net_99,100,101,102,103,104,105,106,107,108,109,110,111,112,113,227"/>
  <line x1="374" x2="415" y1="97" y2="97" class="net_50,51,52,53,54,55,56,57,58,59,60,61,62,63,64,65"/>
  <line x1="415" x2="415" y1="97" y2="23" class="net_50,51,52,53,54,55,56,57,58,59,60,61,62,63,64,65"/>
  <line x1="415" x2="566" y1="23" y2="23" class="net_50,51,52,53,54,55,56,57,58,59,60,61,62,63,64,65"/>
  <line x1="566" x2="566" y1="23" y2="121" class="net_50,51,52,53,54,55,56,57,58,59,60,61,62,63,64,65"/>
  <line x1="566" x2="631" y1="121" y2="121" class="net_50,51,52,53,54,55,56,57,58,59,60,61,62,63,64,65"/>
  <line x1="374" x2="415" y1="97" y2="97" class="net_50,51,52,53,54,55,56,57,58,59,60,61,62,63,64,65"/>
  <line x1="415" x2="415" y1="97" y2="67" class="net_50,51,52,53,54,55,56,57,58,59,60,61,62,63,64,65"/>
  <line x1="415" x2="440.5" y1="67" y2="67" class="net_50,51,52,53,54,55,56,57,58,59,60,61,62,63,64,65"/>
  <circle cx="415" cy="67" r="2" style="fill:#000" class="net_50,51,52,53,54,55,56,57,58,59,60,61,62,63,64,65"/>
  <line x1="440.5" x2="440.5" y1="67" y2="55" class="net_50,51,52,53,54,55,56,57,58,59,60,61,62,63,64,65"/>
  <line x1="536" x2="556" y1="87" y2="87" class="net_52,53,54,55,56,57,58,59,60,61,62,63,64,65,228,229"/>
  <line x1="556" x2="556" y1="87" y2="141" class="net_52,53,54,55,56,57,58,59,60,61,62,63,64,65,228,229"/>
  <line x1="556" x2="631" y1="141" y2="141" class="net_52,53,54,55,56,57,58,59,60,61,62,63,64,65,228,229"/>
  <line x1="374" x2="546" y1="117" y2="117" class="net_82,83,84,85,86,87,88,89,90,91,92,93,94,95,96,97"/>
  <line x1="546" x2="546" y1="117" y2="161" class="net_82,83,84,85,86,87,88,89,90,91,92,93,94,95,96,97"/>
  <line x1="546" x2="631" y1="161" y2="161" class="net_82,83,84,85,86,87,88,89,90,91,92,93,94,95,96,97"/>
  <line x1="374" x2="415" y1="117" y2="117" class="net_82,83,84,85,86,87,88,89,90,91,92,93,94,95,96,97"/>
  <line x1="415" x2="415" y1="117" y2="161" class="net_82,83,84,85,86,87,88,89,90,91,92,93,94,95,96,97"/>
  <line x1="415" x2="440.5" y1="161" y2="161" class="net_82,83,84,85,86,87,88,89,90,91,92,93,94,95,96,97"/>
  <circle cx="415" cy="117" r="2" style="fill:#000" class="net_82,83,84,85,86,87,88,89,90,91,92,93,94,95,96,97"/>
  <line x1="440.5" x2="440.5" y1="161" y2="149" class="net_82,83,84,85,86,87,88,89,90,91,92,93,94,95,96,97"/>
  <line x1="536" x2="631" y1="181" y2="181" class="net_84,85,86,87,88,89,90,91,92,93,94,95,96,97,230,231"/>
  <line x1="662" x2="703" y1="121" y2="121" class="net_114,115,116,117,118,119,120,121,122,123,124,125,126,127,128,129"/>
  <line x1="703" x2="703" y1="121" y2="47" class="net_114,115,116,117,118,119,120,121,122,123,124,125,126,127,128,129"/>
  <line x1="703" x2="854" y1="47" y2="47" class="net_114,115,116,117,118,119,120,121,122,123,124,125,126,127,128,129"/>
  <line x1="854" x2="854" y1="47" y2="145" class="net_114,115,116,117,118,119,120,121,122,123,124,125,126,127,128,129"/>
  <line x1="854" x2="919" y1="145" y2="145" class="net_114,115,116,117,118,119,120,121,122,123,124,125,126,127,128,129"/>
  <line x1="662" x2="703" y1="121" y2="121" class="net_114,115,116,117,118,119,120,121,122,123,124,125,126,127,128,129"/>
  <line x1="703" x2="703" y1="121" y2="91" class="net_114,115,116,117,118,119,120,121,122,123,124,125,126,127,128,129"/>
  <line x1="703" x2="728.5" y1="91" y2="91" class="net_114,115,116,117,118,119,120,121,122,123,124,125,126,127,128,129"/>
  <circle cx="703" cy="91" r="2" style="fill:#000" class="net_114,115,116,117,118,119,120,121,122,123,124,125,126,127,128,129"/>
  <line x1="728.5" x2="728.5" y1="91" y2="79" class="net_114,115,116,117,118,119,120,121,122,123,124,125,126,127,128,129"/>
  <line x1="824" x2="844" y1="111" y2="111" class="net_118,119,120,121,122,123,124,125,126,127,128,129,232,233,234,235"/>
  <line x1="844" x2="844" y1="111" y2="165" class="net_118,119,120,121,122,123,124,125,126,127,128,129,232,233,234,235"/>
  <line x1="844" x2="919" y1="165" y2="165" class="net_118,119,120,121,122,123,124,125,126,127,128,129,232,233,234,235"/>
  <line x1="662" x2="834" y1="141" y2="141" class="net_130,131,132,133,134,135,136,137,138,139,140,141,142,143,144,145"/>
  <line x1="834" x2="834" y1="141" y2="185" class="net_130,131,132,133,134,135,136,137,138,139,140,141,142,143,144,145"/>
  <line x1="834" x2="919" y1="185" y2="185" class="net_130,131,132,133,134,135,136,137,138,139,140,141,142,143,144,145"/>
  <line x1="662" x2="703" y1="141" y2="141" class="net_130,131,132,133,134,135,136,137,138,139,140,141,142,143,144,145"/>
  <line x1="703" x2="703" y1="141" y2="185" class="net_130,131,132,133,134,135,136,137,138,139,140,141,142,143,144,145"/>
  <line x1="703" x2="728.5" y1="185" y2="185" class="net_130,131,132,133,134,135,136,137,138,139,140,141,142,143,144,145"/>
  <circle cx="703" cy="141" r="2" style="fill:#000" class="net_130,131,132,133,134,135,136,137,138,139,140,141,142,143,144,145"/>
  <line x1="728.5" x2="728.5" y1="185" y2="173" class="net_130,131,132,133,134,135,136,137,138,139,140,141,142,143,144,145"/>
  <line x1="824" x2="919" y1="205" y2="205" class="net_134,135,136,137,138,139,140,141,142,143,144,145,236,237,238,239"/>
  <line x1="950" x2="991" y1="145" y2="145" class="net_146,147,148,149,150,151,152,153,154,155,156,157,158,159,160,161"/>
  <line x1="991" x2="991" y1="145" y2="71" class="net_146,147,148,149,150,151,152,153,154,155,156,157,158,159,160,161"/>
  <line x1="991" x2="1136" y1="71" y2="71" class="net_146,147,148,149,150,151,152,153,154,155,156,157,158,159,160,161"/>
  <line x1="1136" x2="1136" y1="71" y2="169" class="net_146,147,148,149,150,151,152,153,154,155,156,157,158,159,160,161"/>
  <line x1="1136" x2="1201" y1="169" y2="169" class="net_146,147,148,149,150,151,152,153,154,155,156,157,158,159,160,161"/>
  <line x1="950" x2="991" y1="145" y2="145" class="net_146,147,148,149,150,151,152,153,154,155,156,157,158,159,160,161"/>
  <line x1="991" x2="991" y1="145" y2="115" class="net_146,147,148,149,150,151,152,153,154,155,156,157,158,159,160,161"/>
  <line x1="991" x2="1016.5" y1="115" y2="115" class="net_146,147,148,149,150,151,152,153,154,155,156,157,158,159,160,161"/>
  <circle cx="991" cy="115" r="2" style="fill:#000" class="net_146,147,148,149,150,151,152,153,154,155,156,157,158,159,160,161"/>
  <line x1="1016.5" x2="1016.5" y1="115" y2="103" class="net_146,147,148,149,150,151,152,153,154,155,156,157,158,159,160,161"/>
  <line x1="1106" x2="1126" y1="135" y2="135" class="net_154,155,156,157,158,159,160,161,240,241,242,243,244,245,246,247"/>
  <line x1="1126" x2="1126" y1="135" y2="189" class="net_154,155,156,157,158,159,160,161,240,241,242,243,244,245,246,247"/>
  <line x1="1126" x2="1201" y1="189" y2="189" class="net_154,155,156,157,158,159,160,161,240,241,242,243,244,245,246,247"/>
  <line x1="950" x2="1116" y1="165" y2="165" class="net_162,163,164,165,166,167,168,169,170,171,172,173,174,175,176,177"/>
  <line x1="1116" x2="1116" y1="165" y2="209" class="net_162,163,164,165,166,167,168,169,170,171,172,173,174,175,176,177"/>
  <line x1="1116" x2="1201" y1="209" y2="209" class="net_162,163,164,165,166,167,168,169,170,171,172,173,174,175,176,177"/>
  <line x1="950" x2="991" y1="165" y2="165" class="net_162,163,164,165,166,167,168,169,170,171,172,173,174,175,176,177"/>
  <line x1="991" x2="991" y1="165" y2="209" class="net_162,163,164,165,166,167,168,169,170,171,172,173,174,175,176,177"/>
  <line x1="991" x2="1016.5" y1="209" y2="209" class="net_162,163,164,165,166,167,168,169,170,171,172,173,174,175,176,177"/>
  <circle cx="991" cy="165" r="2" style="fill:#000" class="net_162,163,164,165,166,167,168,169,170,171,172,173,174,175,176,177"/>
  <line x1="1016.5" x2="1016.5" y1="209" y2="197" class="net_162,163,164,165,166,167,168,169,170,171,172,173,174,175,176,177"/>
  <line x1="1106" x2="1201" y1="229" y2="229" class="net_170,171,172,173,174,175,176,177,248,249,250,251,252,253,254,255"/>
  <line x1="1232" x2="1273" y1="169" y2="169" class="net_178,179,180,181,182,183,184,185,186,187,188,189,190,191,192,193"/>
  <line x1="1273" x2="1273" y1="169" y2="125" class="net_178,179,180,181,182,183,184,185,186,187,188,189,190,191,192,193"/>
  <line x1="1273" x2="1414" y1="125" y2="125" class="net_178,179,180,181,182,183,184,185,186,187,188,189,190,191,192,193"/>
  <line x1="1414" x2="1414" y1="125" y2="317" class="net_178,179,180,181,182,183,184,185,186,187,188,189,190,191,192,193"/>
  <circle cx="1273" cy="169" r="2" style="fill:#000" class="net_178,179,180,181,182,183,184,185,186,187,188,189,190,191,192,193"/>
  <line x1="1414" x2="1484" y1="317" y2="317" class="net_178,179,180,181,182,183,184,185,186,187,188,189,190,191,192,193"/>
  <line x1="1232" x2="1298.5" y1="169" y2="169" class="net_178,179,180,181,182,183,184,185,186,187,188,189,190,191,192,193"/>
  <line x1="1298.5" x2="1298.5" y1="169" y2="157" class="net_178,179,180,181,182,183,184,185,186,187,188,189,190,191,192,193"/>
  <line x1="1394" x2="1404" y1="249" y2="249" class="net_179,180,181,182,183,184,185,186,187,188,189,190,191,192,193,226"/>
  <line x1="1404" x2="1404" y1="249" y2="337" class="net_179,180,181,182,183,184,185,186,187,188,189,190,191,192,193,226"/>
  <line x1="1404" x2="1484" y1="337" y2="337" class="net_179,180,181,182,183,184,185,186,187,188,189,190,191,192,193,226"/>
  <line x1="1394" x2="1484" y1="357" y2="357" class="net_195,196,197,198,199,200,201,202,203,204,205,206,207,208,209,227"/>
  <line x1="40" x2="52" y1="82" y2="82" class="net_2,3,4,5,6,7,8,9,10,11,12,13,14,15,16,17"/>
  <line x1="52" x2="52" y1="82" y2="127" class="net_2,3,4,5,6,7,8,9,10,11,12,13,14,15,16,17"/>
  <line x1="52" x2="84" y1="127" y2="127" class="net_2,3,4,5,6,7,8,9,10,11,12,13,14,15,16,17"/>
  <line x1="40" x2="84" y1="147" y2="147" class="net_18,19,20,21,22,23,24,25,26,27,28,29,30,31,32,33"/>
  <line x1="1515" x2="1588" y1="317" y2="317" class="net_210,211,212,213,214,215,216,217,218,219,220,221,222,223,224,225"/>
  <line x1="1619" x2="1661" y1="297" y2="297" class="net_34,35,36,37,38,39,40,41,42,43,44,45,46,47,48,49"/>
  <line x1="162" x2="247" y1="97.5" y2="97.5" class="net_67,68,69,70,71,72,73,74,75,76,77,78,79,80,81"/>
  <line x1="187" x2="197" y1="259" y2="259" class="net_226"/>
  <line x1="197" x2="197" y1="259" y2="117.5" class="net_226"/>
  <circle cx="197" cy="259" r="2" style="fill:#000" class="net_226"/>
  <line x1="197" x2="247" y1="117.5" y2="117.5" class="net_226"/>
  <line x1="187" x2="1388" y1="259" y2="259" class="net_226"/>
  <line x1="162" x2="247" y1="314.5" y2="314.5" class="net_99,100,101,102,103,104,105,106,107,108,109,110,111,112,113"/>
  <line x1="187" x2="197" y1="367" y2="367" class="net_227"/>
  <line x1="197" x2="197" y1="367" y2="334.5" class="net_227"/>
  <circle cx="197" cy="367" r="2" style="fill:#000" class="net_227"/>
  <line x1="197" x2="247" y1="334.5" y2="334.5" class="net_227"/>
  <line x1="187" x2="1388" y1="367" y2="367" class="net_227"/>
  <line x1="445" x2="480" y1="44.5" y2="44.5" class="net_52,53,54,55,56,57,58,59,60,61,62,63,64,65"/>
  <line x1="480" x2="480" y1="44.5" y2="77" class="net_52,53,54,55,56,57,58,59,60,61,62,63,64,65"/>
  <line x1="480" x2="530" y1="77" y2="77" class="net_52,53,54,55,56,57,58,59,60,61,62,63,64,65"/>
  <line x1="470" x2="530" y1="97" y2="97" class="net_228,229"/>
  <line x1="445" x2="480" y1="138.5" y2="138.5" class="net_84,85,86,87,88,89,90,91,92,93,94,95,96,97"/>
  <line x1="480" x2="480" y1="138.5" y2="171" class="net_84,85,86,87,88,89,90,91,92,93,94,95,96,97"/>
  <line x1="480" x2="530" y1="171" y2="171" class="net_84,85,86,87,88,89,90,91,92,93,94,95,96,97"/>
  <line x1="470" x2="530" y1="191" y2="191" class="net_230,231"/>
  <line x1="733" x2="768" y1="68.5" y2="68.5" class="net_118,119,120,121,122,123,124,125,126,127,128,129"/>
  <line x1="768" x2="768" y1="68.5" y2="101" class="net_118,119,120,121,122,123,124,125,126,127,128,129"/>
  <line x1="768" x2="818" y1="101" y2="101" class="net_118,119,120,121,122,123,124,125,126,127,128,129"/>
  <line x1="758" x2="818" y1="121" y2="121" class="net_232,233,234,235"/>
  <line x1="733" x2="768" y1="162.5" y2="162.5" class="net_134,135,136,137,138,139,140,141,142,143,144,145"/>
  <line x1="768" x2="768" y1="162.5" y2="195" class="net_134,135,136,137,138,139,140,141,142,143,144,145"/>
  <line x1="768" x2="818" y1="195" y2="195" class="net_134,135,136,137,138,139,140,141,142,143,144,145"/>
  <line x1="758" x2="818" y1="215" y2="215" class="net_236,237,238,239"/>
  <line x1="1021" x2="1056" y1="92.5" y2="92.5" class="net_154,155,156,157,158,159,160,161"/>
  <line x1="1056" x2="1056" y1="92.5" y2="125" class="net_154,155,156,157,158,159,160,161"/>
  <line x1="1056" x2="1100" y1="125" y2="125" class="net_154,155,156,157,158,159,160,161"/>
  <line x1="1046" x2="1100" y1="145" y2="145" class="net_240,241,242,243,244,245,246,247"/>
  <line x1="1021" x2="1056" y1="186.5" y2="186.5" class="net_170,171,172,173,174,175,176,177"/>
  <line x1="1056" x2="1056" y1="186.5" y2="219" class="net_170,171,172,173,174,175,176,177"/>
  <line x1="1056" x2="1100" y1="219" y2="219" class="net_170,171,172,173,174,175,176,177"/>
  <line x1="1046" x2="1100" y1="239" y2="239" class="net_248,249,250,251,252,253,254,255"/>
  <line x1="1303" x2="1348" y1="146.5" y2="146.5" class="net_179,180,181,182,183,184,185,186,187,188,189,190,191,192,193"/>
  <line x1="1348" x2="1348" y1="146.5" y2="239" class="net_179,180,181,182,183,184,185,186,187,188,189,190,191,192,193"/>
  <line x1="1348" x2="1388" y1="239" y2="239" class="net_179,180,181,182,183,184,185,186,187,188,189,190,191,192,193"/>
  <line x1="1303" x2="1338" y1="226.5" y2="226.5" class="net_195,196,197,198,199,200,201,202,203,204,205,206,207,208,209"/>
  <line x1="1338" x2="1338" y1="226.5" y2="347" class="net_195,196,197,198,199,200,201,202,203,204,205,206,207,208,209"/>
  <line x1="1338" x2="1388" y1="347" y2="347" class="net_195,196,197,198,199,200,201,202,203,204,205,206,207,208,209"/>
  <line x1="1232" x2="1273" y1="189" y2="189" class="net_194,195,196,197,198,199,200,201,202,203,204,205,206,207,208,209"/>
  <line x1="1273" x2="1273" y1="189" y2="249" class="net_194,195,196,197,198,199,200,201,202,203,204,205,206,207,208,209"/>
  <line x1="1273" x2="1298.5" y1="249" y2="249" class="net_194,195,196,197,198,199,200,201,202,203,204,205,206,207,208,209"/>
  <line x1="1298.5" x2="1298.5" y1="249" y2="237" class="net_194,195,196,197,198,199,200,201,202,203,204,205,206,207,208,209"/>
</svg>
