<svg xmlns="http://www.w3.org/2000/svg" xmlns:xlink="http://www.w3.org/1999/xlink" xmlns:s="https://github.com/nturley/netlistsvg" width="284" height="306.5">
  <style>svg {
    stroke:#000;
    fill:none;
  }
  text {
    fill:#000;
    stroke:none;
    font-size:10px;
    font-weight: bold;
    font-family: "Courier New", monospace;
  }
  .nodelabel {
    text-anchor: middle;
  }
  .inputPortLabel {
    text-anchor: end;
  }
  .splitjoinBody {
    fill:#000;
  }</style>
  <g s:type="generic" transform="translate(89,22)" s:width="30" s:height="40" id="cell_u1">
    <text x="15" y="-4" class="nodelabel cell_u1" s:attribute="ref">and2</text>
    <rect width="30" height="40" s:generic="body" class="cell_u1"/>
    <g transform="translate(0,10)" s:x="0" s:y="10" s:pid="in0" id="port_u1~A">
      <text x="-3" y="-4" class="inputPortLabel cell_u1">A</text>
    </g>
    <g transform="translate(0,30)" s:x="0" s:y="10" s:pid="in0" id="port_u1~B">
      <text x="-3" y="-4" class="inputPortLabel cell_u1">B</text>
    </g>
    <g transform="translate(30,10)" s:x="30" s:y="10" s:pid="out0" id="port_u1~Y">
      <text x="5" y="-4" style="fill:#000; stroke:none" class="cell_u1">Y</text>
    </g>
  </g>
  <g s:type="generic" transform="translate(89,110)" s:width="30" s:height="40" id="cell_u2">
    <text x="15" y="-4" class="nodelabel cell_u2" s:attribute="ref">and2</text>
    <rect width="30" height="40" s:generic="body" class="cell_u2"/>
    <g transform="translate(0,10)" s:x="0" s:y="10" s:pid="in0" id="port_u2~A">
      <text x="-3" y="-4" class="inputPortLabel cell_u2">A</text>
    </g>
    <g transform="translate(0,30)" s:x="0" s:y="10" s:pid="in0" id="port_u2~B">
      <text x="-3" y="-4" class="inputPortLabel cell_u2">B</text>
    </g>
    <g transform="translate(30,10)" s:x="30" s:y="10" s:pid="out0" id="port_u2~Y">
      <text x="5" y="-4" style="fill:#000; stroke:none" class="cell_u2">Y</text>
    </g>
  </g>
  <g s:type="generic" transform="translate(89,198)" s:width="30" s:height="40" id="cell_u3">
    <text x="15" y="-4" class="nodelabel cell_u3" s:attribute="ref">and2</text>
    <rect width="30" height="40" s:generic="body" class="cell_u3"/>
    <g transform="translate(0,10)" s:x="0" s:y="10" s:pid="in0" id="port_u3~A">
      <text x="-3" y="-4" class="inputPortLabel cell_u3">A</text>
    </g>
    <g transform="translate(0,30)" s:x="0" s:y="10" s:pid="in0" id="port_u3~B">
      <text x="-3" y="-4" class="inputPortLabel cell_u3">B</text>
    </g>
    <g transform="translate(30,10)" s:x="30" s:y="10" s:pid="out0" id="port_u3~Y">
      <text x="5" y="-4" style="fill:#000; stroke:none" class="cell_u3">Y</text>
    </g>
  </g>
  <g s:type="generic" transform="translate(169,231.5)" s:width="30" s:height="40" id="cell_u4">
    <text x="15" y="-4" class="nodelabel cell_u4" s:attribute="ref">xor3</text>
    <rect width="30" height="60" s:generic="body" class="cell_u4"/>
    <g transform="translate(0,10)" s:x="0" s:y="10" s:pid="in0" id="port_u4~A">
      <text x="-3" y="-4" class="inputPortLabel cell_u4">A</text>
    </g>
    <g transform="translate(0,30)" s:x="0" s:y="10" s:pid="in0" id="port_u4~B">
      <text x="-3" y="-4" class="inputPortLabel cell_u4">B</text>
    </g>
    <g transform="translate(0,50)" s:x="0" s:y="10" s:pid="in0" id="port_u4~C">
      <text x="-3" y="-4" class="inputPortLabel cell_u4">C</text>
    </g>
    <g transform="translate(30,10)" s:x="30" s:y="10" s:pid="out0" id="port_u4~Y">
      <text x="5" y="-4" style="fill:#000; stroke:none" class="cell_u4">Y</text>
    </g>
  </g>
  <g s:type="generic" transform="translate(169,90)" s:width="30" s:height="40" id="cell_u5">
    <text x="15" y="-4" class="nodelabel cell_u5" s:attribute="ref">or3</text>
    <rect width="30" height="60" s:generic="body" class="cell_u5"/>
    <g transform="translate(0,10)" s:x="0" s:y="10" s:pid="in0" id="port_u5~A">
      <text x="-3" y="-4" class="inputPortLabel cell_u5">A</text>
    </g>
    <g transform="translate(0,30)" s:x="0" s:y="10" s:pid="in0" id="port_u5~B">
      <text x="-3" y="-4" class="inputPortLabel cell_u5">B</text>
    </g>
    <g transform="translate(0,50)" s:x="0" s:y="10" s:pid="in0" id="port_u5~C">
      <text x="-3" y="-4" class="inputPortLabel cell_u5">C</text>
    </g>
    <g transform="translate(30,10)" s:x="30" s:y="10" s:pid="out0" id="port_u5~Y">
      <text x="5" y="-4" style="fill:#000; stroke:none" class="cell_u5">Y</text>
    </g>
  </g>
  <g s:type="inputExt" transform="translate(12,22.5)" s:width="30" s:height="20" id="cell_A">
    <text x="15" y="-4" class="nodelabel cell_A" s:attribute="ref">A</text>
    <s:alias val="$_inputExt_"/>
    <path d="M0,0 L0,20 L15,20 L30,10 L15,0 Z" class="cell_A"/>
    <g s:x="28" s:y="10" s:pid="Y"/>
  </g>
  <g s:type="inputExt" transform="translate(12,110.5)" s:width="30" s:height="20" id="cell_B">
    <text x="15" y="-4" class="nodelabel cell_B" s:attribute="ref">B</text>
    <s:alias val="$_inputExt_"/>
    <path d="M0,0 L0,20 L15,20 L30,10 L15,0 Z" class="cell_B"/>
    <g s:x="28" s:y="10" s:pid="Y"/>
  </g>
  <g s:type="inputExt" transform="translate(12,198.5)" s:width="30" s:height="20" id="cell_C">
    <text x="15" y="-4" class="nodelabel cell_C" s:attribute="ref">C</text>
    <s:alias val="$_inputExt_"/>
    <path d="M0,0 L0,20 L15,20 L30,10 L15,0 Z" class="cell_C"/>
    <g s:x="28" s:y="10" s:pid="Y"/>
  </g>
  <g s:type="outputExt" transform="translate(242,232)" s:width="30" s:height="20" id="cell_Sum">
    <text x="15" y="-4" class="nodelabel cell_Sum" s:attribute="ref">Sum</text>
    <s:alias val="$_outputExt_"/>
    <path d="M30,0 L30,20 L15,20 L0,10 L15,0 Z" class="cell_Sum"/>
    <g s:x="0" s:y="10" s:pid="A"/>
  </g>
  <g s:type="outputExt" transform="translate(242,90.5)" s:width="30" s:height="20" id="cell_Carry">
    <text x="15" y="-4" class="nodelabel cell_Carry" s:attribute="ref">Carry</text>
    <s:alias val="$_outputExt_"/>
    <path d="M30,0 L30,20 L15,20 L0,10 L15,0 Z" class="cell_Carry"/>
    <g s:x="0" s:y="10" s:pid="A"/>
  </g>
  <line x1="40" x2="89" y1="32.5" y2="32.5" class="net_2,3,4,5,6,7,8,9,10,11,12,13,14,15,16,17"/>
  <line x1="40" x2="72" y1="32.5" y2="32.5" class="net_2,3,4,5,6,7,8,9,10,11,12,13,14,15,16,17"/>
  <line x1="72" x2="72" y1="32.5" y2="228.5" class="net_2,3,4,5,6,7,8,9,10,11,12,13,14,15,16,17"/>
  <circle cx="72" cy="32.5" r="2" style="fill:#000" class="net_2,3,4,5,6,7,8,9,10,11,12,13,14,15,16,17"/>
  <circle cx="72" cy="228.5" r="2" style="fill:#000" class="net_2,3,4,5,6,7,8,9,10,11,12,13,14,15,16,17"/>
  <line x1="72" x2="89" y1="228.5" y2="228.5" class="net_2,3,4,5,6,7,8,9,10,11,12,13,14,15,16,17"/>
  <line x1="40" x2="72" y1="32.5" y2="32.5" class="net_2,3,4,5,6,7,8,9,10,11,12,13,14,15,16,17"/>
  <line x1="72" x2="72" y1="32.5" y2="251" class="net_2,3,4,5,6,7,8,9,10,11,12,13,14,15,16,17"/>
  <line x1="72" x2="137" y1="251" y2="251" class="net_2,3,4,5,6,7,8,9,10,11,12,13,14,15,16,17"/>
  <line x1="137" x2="137" y1="251" y2="242" class="net_2,3,4,5,6,7,8,9,10,11,12,13,14,15,16,17"/>
  <line x1="137" x2="169" y1="242" y2="242" class="net_2,3,4,5,6,7,8,9,10,11,12,13,14,15,16,17"/>
  <line x1="40" x2="52" y1="120.5" y2="120.5" class="net_18,19,20,21,22,23,24,25,26,27,28,29,30,31,32,33"/>
  <line x1="52" x2="52" y1="120.5" y2="52.5" class="net_18,19,20,21,22,23,24,25,26,27,28,29,30,31,32,33"/>
  <circle cx="52" cy="120.5" r="2" style="fill:#000" class="net_18,19,20,21,22,23,24,25,26,27,28,29,30,31,32,33"/>
  <line x1="52" x2="89" y1="52.5" y2="52.5" class="net_18,19,20,21,22,23,24,25,26,27,28,29,30,31,32,33"/>
  <line x1="40" x2="89" y1="120.5" y2="120.5" class="net_18,19,20,21,22,23,24,25,26,27,28,29,30,31,32,33"/>
  <line x1="40" x2="52" y1="120.5" y2="120.5" class="net_18,19,20,21,22,23,24,25,26,27,28,29,30,31,32,33"/>
  <line x1="52" x2="52" y1="120.5" y2="262" class="net_18,19,20,21,22,23,24,25,26,27,28,29,30,31,32,33"/>
  <line x1="52" x2="169" y1="262" y2="262" class="net_18,19,20,21,22,23,24,25,26,27,28,29,30,31,32,33"/>
  <line x1="40" x2="62" y1="208.5" y2="208.5" class="net_34,35,36,37,38,39,40,41,42,43,44,45,46,47,48,49"/>
  <line x1="62" x2="62" y1="208.5" y2="140.5" class="net_34,35,36,37,38,39,40,41,42,43,44,45,46,47,48,49"/>
  <circle cx="62" cy="208.5" r="2" style="fill:#000" class="net_34,35,36,37,38,39,40,41,42,43,44,45,46,47,48,49"/>
  <line x1="62" x2="89" y1="140.5" y2="140.5" class="net_34,35,36,37,38,39,40,41,42,43,44,45,46,47,48,49"/>
  <line x1="40" x2="89" y1="208.5" y2="208.5" class="net_34,35,36,37,38,39,40,41,42,43,44,45,46,47,48,49"/>
  <line x1="40" x2="62" y1="208.5" y2="208.5" class="net_34,35,36,37,38,39,40,41,42,43,44,45,46,47,48,49"/>
  <line x1="62" x2="62" y1="208.5" y2="273" class="net_34,35,36,37,38,39,40,41,42,43,44,45,46,47,48,49"/>
  <line x1="62" x2="137" y1="273" y2="273" class="net_34,35,36,37,38,39,40,41,42,43,44,45,46,47,48,49"/>
  <line x1="137" x2="137" y1="273" y2="282" class="net_34,35,36,37,38,39,40,41,42,43,44,45,46,47,48,49"/>
  <line x1="137" x2="169" y1="282" y2="282" class="net_34,35,36,37,38,39,40,41,42,43,44,45,46,47,48,49"/>
  <line x1="120" x2="137" y1="32.5" y2="32.5" class="net_82,83,84,85,86,87,88,89,90,91,92,93,94,95,96,97"/>
  <line x1="137" x2="137" y1="32.5" y2="100.5" class="net_82,83,84,85,86,87,88,89,90,91,92,93,94,95,96,97"/>
  <line x1="137" x2="169" y1="100.5" y2="100.5" class="net_82,83,84,85,86,87,88,89,90,91,92,93,94,95,96,97"/>
  <line x1="120" x2="169" y1="120.5" y2="120.5" class="net_98,99,100,101,102,103,104,105,106,107,108,109,110,111,112,113"/>
  <line x1="120" x2="137" y1="208.5" y2="208.5" class="net_114,115,116,117,118,119,120,121,122,123,124,125,126,127,128,129"/>
  <line x1="137" x2="137" y1="208.5" y2="140.5" class="net_114,115,116,117,118,119,120,121,122,123,124,125,126,127,128,129"/>
  <line x1="137" x2="169" y1="140.5" y2="140.5" class="net_114,115,116,117,118,119,120,121,122,123,124,125,126,127,128,129"/>
  <line x1="200" x2="242" y1="242" y2="242" class="net_50,51,52,53,54,55,56,57,58,59,60,61,62,63,64,65"/>
  <line x1="200" x2="242" y1="100.5" y2="100.5" class="net_66,67,68,69,70,71,72,73,74,75,76,77,78,79,80,81"/>
</svg>
