<svg xmlns="http://www.w3.org/2000/svg" xmlns:xlink="http://www.w3.org/1999/xlink" xmlns:s="https://github.com/nturley/netlistsvg" width="566" height="458.5">
  <style>svg {
    stroke:#000;
    fill:none;
  }
  text {
    fill:#000;
    stroke:none;
    font-size:10px;
    font-weight: bold;
    font-family: "Courier New", monospace;
  }
  .nodelabel {
    text-anchor: middle;
  }
  .inputPortLabel {
    text-anchor: end;
  }
  .splitjoinBody {
    fill:#000;
  }</style>
  <g s:type="generic" transform="translate(242,72)" s:width="30" s:height="40" id="cell_acc_reg_inst">
    <text x="15" y="-4" class="nodelabel cell_acc_reg_inst" s:attribute="ref">mac_reg_16</text>
    <rect width="30" height="80" s:generic="body" class="cell_acc_reg_inst"/>
    <g transform="translate(0,10)" s:x="0" s:y="10" s:pid="in0" id="port_acc_reg_inst~clk">
      <text x="-3" y="-4" class="inputPortLabel cell_acc_reg_inst">clk</text>
    </g>
    <g transform="translate(0,30)" s:x="0" s:y="10" s:pid="in0" id="port_acc_reg_inst~data_in">
      <text x="-3" y="-4" class="inputPortLabel cell_acc_reg_inst">data_in</text>
    </g>
    <g transform="translate(0,50)" s:x="0" s:y="10" s:pid="in0" id="port_acc_reg_inst~en">
      <text x="-3" y="-4" class="inputPortLabel cell_acc_reg_inst">en</text>
    </g>
    <g transform="translate(0,70)" s:x="0" s:y="10" s:pid="in0" id="port_acc_reg_inst~rst">
      <text x="-3" y="-4" class="inputPortLabel cell_acc_reg_inst">rst</text>
    </g>
    <g transform="translate(30,10)" s:x="30" s:y="10" s:pid="out0" id="port_acc_reg_inst~data_out">
      <text x="5" y="-4" style="fill:#000; stroke:none" class="cell_acc_reg_inst">data_out</text>
    </g>
  </g>
  <g s:type="generic" transform="translate(423,234)" s:width="30" s:height="40" id="cell_add_inst">
    <text x="15" y="-4" class="nodelabel cell_add_inst" s:attribute="ref">rca</text>
    <rect width="30" height="40" s:generic="body" class="cell_add_inst"/>
    <g transform="translate(0,10)" s:x="0" s:y="10" s:pid="in0" id="port_add_inst~A">
      <text x="-3" y="-4" class="inputPortLabel cell_add_inst">A</text>
    </g>
    <g transform="translate(0,30)" s:x="0" s:y="10" s:pid="in0" id="port_add_inst~B">
      <text x="-3" y="-4" class="inputPortLabel cell_add_inst">B</text>
    </g>
    <g transform="translate(30,10)" s:x="30" s:y="10" s:pid="out0" id="port_add_inst~SUM">
      <text x="5" y="-4" style="fill:#000; stroke:none" class="cell_add_inst">SUM</text>
    </g>
  </g>
  <g s:type="generic" transform="translate(108,202.5)" s:width="30" s:height="40" id="cell_ctrl_inst">
    <text x="15" y="-4" class="nodelabel cell_ctrl_inst" s:attribute="ref">mac_ctrl</text>
    <rect width="30" height="40" s:generic="body" class="cell_ctrl_inst"/>
    <g transform="translate(0,10)" s:x="0" s:y="10" s:pid="in0" id="port_ctrl_inst~start">
      <text x="-3" y="-4" class="inputPortLabel cell_ctrl_inst">start</text>
    </g>
    <g transform="translate(30,10)" s:x="30" s:y="10" s:pid="out0" id="port_ctrl_inst~done">
      <text x="5" y="-4" style="fill:#000; stroke:none" class="cell_ctrl_inst">done</text>
    </g>
    <g transform="translate(30,30)" s:x="30" s:y="10" s:pid="out0" id="port_ctrl_inst~en">
      <text x="5" y="-4" style="fill:#000; stroke:none" class="cell_ctrl_inst">en</text>
    </g>
  </g>
  <g s:type="generic" transform="translate(244.33333333333334,299.5)" s:width="30" s:height="40" id="cell_mult_inst">
    <text x="15" y="-4" class="nodelabel cell_mult_inst" s:attribute="ref">baugh</text>
    <rect width="30" height="40" s:generic="body" class="cell_mult_inst"/>
    <g transform="translate(0,10)" s:x="0" s:y="10" s:pid="in0" id="port_mult_inst~A">
      <text x="-3" y="-4" class="inputPortLabel cell_mult_inst">A</text>
    </g>
    <g transform="translate(0,30)" s:x="0" s:y="10" s:pid="in0" id="port_mult_inst~B">
      <text x="-3" y="-4" class="inputPortLabel cell_mult_inst">B</text>
    </g>
    <g transform="translate(30,10)" s:x="30" s:y="10" s:pid="out0" id="port_mult_inst~P">
      <text x="5" y="-4" style="fill:#000; stroke:none" class="cell_mult_inst">P</text>
    </g>
  </g>
  <g s:type="inputExt" transform="translate(108,72.5)" s:width="30" s:height="20" id="cell_clk">
    <text x="15" y="-4" class="nodelabel cell_clk" s:attribute="ref">clk</text>
    <s:alias val="$_inputExt_"/>
    <path d="M0,0 L0,20 L15,20 L30,10 L15,0 Z" class="cell_clk"/>
    <g s:x="28" s:y="10" s:pid="Y"/>
  </g>
  <g s:type="inputExt" transform="translate(108,137.5)" s:width="30" s:height="20" id="cell_rst">
    <text x="15" y="-4" class="nodelabel cell_rst" s:attribute="ref">rst</text>
    <s:alias val="$_inputExt_"/>
    <path d="M0,0 L0,20 L15,20 L30,10 L15,0 Z" class="cell_rst"/>
    <g s:x="28" s:y="10" s:pid="Y"/>
  </g>
  <g s:type="inputExt" transform="translate(12,203)" s:width="30" s:height="20" id="cell_start">
    <text x="15" y="-4" class="nodelabel cell_start" s:attribute="ref">start</text>
    <s:alias val="$_inputExt_"/>
    <path d="M0,0 L0,20 L15,20 L30,10 L15,0 Z" class="cell_start"/>
    <g s:x="28" s:y="10" s:pid="Y"/>
  </g>
  <g s:type="inputExt" transform="translate(108,300)" s:width="30" s:height="20" id="cell_A">
    <text x="15" y="-4" class="nodelabel cell_A" s:attribute="ref">A</text>
    <s:alias val="$_inputExt_"/>
    <path d="M0,0 L0,20 L15,20 L30,10 L15,0 Z" class="cell_A"/>
    <g s:x="28" s:y="10" s:pid="Y"/>
  </g>
  <g s:type="inputExt" transform="translate(108,365)" s:width="30" s:height="20" id="cell_B">
    <text x="15" y="-4" class="nodelabel cell_B" s:attribute="ref">B</text>
    <s:alias val="$_inputExt_"/>
    <path d="M0,0 L0,20 L15,20 L30,10 L15,0 Z" class="cell_B"/>
    <g s:x="28" s:y="10" s:pid="Y"/>
  </g>
  <g s:type="outputExt" transform="translate(508,22)" s:width="30" s:height="20" id="cell_result">
    <text x="15" y="-4" class="nodelabel cell_result" s:attribute="ref">result</text>
    <s:alias val="$_outputExt_"/>
    <path d="M30,0 L30,20 L15,20 L0,10 L15,0 Z" class="cell_result"/>
    <g s:x="0" s:y="10" s:pid="A"/>
  </g>
  <g s:type="outputExt" transform="translate(508,203)" s:width="30" s:height="20" id="cell_done">
    <text x="15" y="-4" class="nodelabel cell_done" s:attribute="ref">done</text>
    <s:alias val="$_outputExt_"/>
    <path d="M30,0 L30,20 L15,20 L0,10 L15,0 Z" class="cell_done"/>
    <g s:x="0" s:y="10" s:pid="A"/>
  </g>
  <g s:type="join" transform="translate(508,256.5)" s:width="4" s:height="40" id="cell_$join$,38,39,40,41,42,43,44,45,45,45,45,45,45,45,45,45,">
    <rect width="5" height="180" class="splitjoinBody" s:generic="body"/>
    <s:alias val="$_join_"/>
    <g s:x="5" s:y="20" s:pid="out"/>
    <g transform="translate(0,10)" s:x="0" s:y="10" s:pid="in0">
      <text x="-3" y="-4" class="inputPortLabel">0:7</text>
    </g>
    <g transform="translate(0,30)" s:x="0" s:y="10" s:pid="in0">
      <text x="-3" y="-4" class="inputPortLabel">8</text>
    </g>
    <g transform="translate(0,50)" s:x="0" s:y="10" s:pid="in0">
      <text x="-3" y="-4" class="inputPortLabel">9</text>
    </g>
    <g transform="translate(0,70)" s:x="0" s:y="10" s:pid="in0">
      <text x="-3" y="-4" class="inputPortLabel">10</text>
    </g>
    <g transform="translate(0,90)" s:x="0" s:y="10" s:pid="in0">
      <text x="-3" y="-4" class="inputPortLabel">11</text>
    </g>
    <g transform="translate(0,110)" s:x="0" s:y="10" s:pid="in0">
      <text x="-3" y="-4" class="inputPortLabel">12</text>
    </g>
    <g transform="translate(0,130)" s:x="0" s:y="10" s:pid="in0">
      <text x="-3" y="-4" class="inputPortLabel">13</text>
    </g>
    <g transform="translate(0,150)" s:x="0" s:y="10" s:pid="in0">
      <text x="-3" y="-4" class="inputPortLabel">14</text>
    </g>
    <g transform="translate(0,170)" s:x="0" s:y="10" s:pid="in0">
      <text x="-3" y="-4" class="inputPortLabel">15</text>
    </g>
  </g>
  <g s:type="split" transform="translate(357,396.5)" s:width="5" s:height="40" id="cell_$split$,38,39,40,41,42,43,44,45,">
    <rect width="5" height="20" class="splitjoinBody" s:generic="body"/>
    <s:alias val="$_split_"/>
    <g s:x="0" s:y="20" s:pid="in"/>
    <g transform="translate(4,10)" s:x="4" s:y="10" s:pid="out0">
      <text x="5" y="-4">7</text>
    </g>
  </g>
  <g s:type="split" transform="translate(357,234)" s:width="5" s:height="40" id="cell_$split$,21,22,23,24,25,26,27,28,29,30,31,32,33,34,35,36,">
    <rect width="5" height="20" class="splitjoinBody" s:generic="body"/>
    <s:alias val="$_split_"/>
    <g s:x="0" s:y="20" s:pid="in"/>
    <g transform="translate(4,10)" s:x="4" s:y="10" s:pid="out0">
      <text x="5" y="-4">0:7</text>
    </g>
  </g>
  <g s:type="split" transform="translate(357,277)" s:width="5" s:height="40" id="cell_$split$,47,48,49,50,51,52,53,54,55,56,57,58,59,60,61,62,">
    <rect width="5" height="20" class="splitjoinBody" s:generic="body"/>
    <s:alias val="$_split_"/>
    <g s:x="0" s:y="20" s:pid="in"/>
    <g transform="translate(4,10)" s:x="4" s:y="10" s:pid="out0">
      <text x="5" y="-4">0:7</text>
    </g>
  </g>
  <line x1="136" x2="242" y1="82.5" y2="82.5" class="net_2"/>
  <line x1="514" x2="554" y1="277" y2="277" class="net_38,39,40,41,42,43,44,45,45,45,45,45,45,45,45,45"/>
  <line x1="554" x2="554" y1="277" y2="52" class="net_38,39,40,41,42,43,44,45,45,45,45,45,45,45,45,45"/>
  <line x1="554" x2="184" y1="52" y2="52" class="net_38,39,40,41,42,43,44,45,45,45,45,45,45,45,45,45"/>
  <line x1="184" x2="184" y1="52" y2="102.5" class="net_38,39,40,41,42,43,44,45,45,45,45,45,45,45,45,45"/>
  <line x1="184" x2="242" y1="102.5" y2="102.5" class="net_38,39,40,41,42,43,44,45,45,45,45,45,45,45,45,45"/>
  <line x1="139" x2="174" y1="233" y2="233" class="net_46"/>
  <line x1="174" x2="174" y1="233" y2="122.5" class="net_46"/>
  <line x1="174" x2="242" y1="122.5" y2="122.5" class="net_46"/>
  <line x1="136" x2="184" y1="147.5" y2="147.5" class="net_3"/>
  <line x1="184" x2="184" y1="147.5" y2="142.5" class="net_3"/>
  <line x1="184" x2="242" y1="142.5" y2="142.5" class="net_3"/>
  <line x1="362" x2="423" y1="244.5" y2="244.5" class="net_21,22,23,24,25,26,27,28"/>
  <line x1="362" x2="391" y1="287.5" y2="287.5" class="net_47,48,49,50,51,52,53,54"/>
  <line x1="391" x2="391" y1="287.5" y2="264.5" class="net_47,48,49,50,51,52,53,54"/>
  <line x1="391" x2="423" y1="264.5" y2="264.5" class="net_47,48,49,50,51,52,53,54"/>
  <line x1="40" x2="108" y1="213" y2="213" class="net_4"/>
  <line x1="136" x2="244.33333333333334" y1="310" y2="310" class="net_5,6,7,8,9,10,11,12"/>
  <line x1="136" x2="174" y1="375" y2="375" class="net_13,14,15,16,17,18,19,20"/>
  <line x1="174" x2="174" y1="375" y2="330" class="net_13,14,15,16,17,18,19,20"/>
  <line x1="174" x2="244.33333333333334" y1="330" y2="330" class="net_13,14,15,16,17,18,19,20"/>
  <line x1="273" x2="332" y1="82.5" y2="82.5" class="net_21,22,23,24,25,26,27,28,29,30,31,32,33,34,35,36"/>
  <line x1="332" x2="332" y1="82.5" y2="32" class="net_21,22,23,24,25,26,27,28,29,30,31,32,33,34,35,36"/>
  <circle cx="332" cy="82.5" r="2" style="fill:#000" class="net_21,22,23,24,25,26,27,28,29,30,31,32,33,34,35,36"/>
  <line x1="332" x2="508" y1="32" y2="32" class="net_21,22,23,24,25,26,27,28,29,30,31,32,33,34,35,36"/>
  <line x1="273" x2="332" y1="82.5" y2="82.5" class="net_21,22,23,24,25,26,27,28,29,30,31,32,33,34,35,36"/>
  <line x1="332" x2="332" y1="82.5" y2="267" class="net_21,22,23,24,25,26,27,28,29,30,31,32,33,34,35,36"/>
  <line x1="332" x2="357.5" y1="267" y2="267" class="net_21,22,23,24,25,26,27,28,29,30,31,32,33,34,35,36"/>
  <line x1="357.5" x2="357.5" y1="267" y2="255" class="net_21,22,23,24,25,26,27,28,29,30,31,32,33,34,35,36"/>
  <line x1="139" x2="508" y1="213" y2="213" class="net_37"/>
  <line x1="454" x2="508.5" y1="244.5" y2="244.5" class="net_38,39,40,41,42,43,44,45"/>
  <line x1="508.5" x2="508.5" y1="244.5" y2="266.5" class="net_38,39,40,41,42,43,44,45"/>
  <line x1="454" x2="483" y1="244.5" y2="244.5" class="net_38,39,40,41,42,43,44,45"/>
  <line x1="483" x2="483" y1="244.5" y2="287" class="net_38,39,40,41,42,43,44,45"/>
  <line x1="483" x2="401" y1="287" y2="287" class="net_38,39,40,41,42,43,44,45"/>
  <line x1="401" x2="401" y1="287" y2="429.5" class="net_38,39,40,41,42,43,44,45"/>
  <line x1="401" x2="357.5" y1="429.5" y2="429.5" class="net_38,39,40,41,42,43,44,45"/>
  <circle cx="483" cy="244.5" r="2" style="fill:#000" class="net_38,39,40,41,42,43,44,45"/>
  <line x1="357.5" x2="357.5" y1="429.5" y2="417.5" class="net_38,39,40,41,42,43,44,45"/>
  <line x1="362" x2="493" y1="407" y2="407" class="net_45"/>
  <line x1="493" x2="493" y1="407" y2="287" class="net_45"/>
  <circle cx="493" cy="407" r="2" style="fill:#000" class="net_45"/>
  <line x1="493" x2="508" y1="287" y2="287" class="net_45"/>
  <line x1="362" x2="493" y1="407" y2="407" class="net_45"/>
  <line x1="493" x2="493" y1="407" y2="307" class="net_45"/>
  <circle cx="493" cy="307" r="2" style="fill:#000" class="net_45"/>
  <line x1="493" x2="508" y1="307" y2="307" class="net_45"/>
  <line x1="362" x2="493" y1="407" y2="407" class="net_45"/>
  <line x1="493" x2="493" y1="407" y2="327" class="net_45"/>
  <circle cx="493" cy="327" r="2" style="fill:#000" class="net_45"/>
  <line x1="493" x2="508" y1="327" y2="327" class="net_45"/>
  <line x1="362" x2="493" y1="407" y2="407" class="net_45"/>
  <line x1="493" x2="493" y1="407" y2="347" class="net_45"/>
  <circle cx="493" cy="347" r="2" style="fill:#000" class="net_45"/>
  <line x1="493" x2="508" y1="347" y2="347" class="net_45"/>
  <line x1="362" x2="493" y1="407" y2="407" class="net_45"/>
  <line x1="493" x2="493" y1="407" y2="367" class="net_45"/>
  <circle cx="493" cy="367" r="2" style="fill:#000" class="net_45"/>
  <line x1="493" x2="508" y1="367" y2="367" class="net_45"/>
  <line x1="362" x2="493" y1="407" y2="407" class="net_45"/>
  <line x1="493" x2="493" y1="407" y2="387" class="net_45"/>
  <circle cx="493" cy="387" r="2" style="fill:#000" class="net_45"/>
  <line x1="493" x2="508" y1="387" y2="387" class="net_45"/>
  <line x1="362" x2="508" y1="407" y2="407" class="net_45"/>
  <line x1="362" x2="493" y1="407" y2="407" class="net_45"/>
  <line x1="493" x2="493" y1="407" y2="446.5" class="net_45"/>
  <line x1="493" x2="508.5" y1="446.5" y2="446.5" class="net_45"/>
  <line x1="508.5" x2="508.5" y1="446.5" y2="427.5" class="net_45"/>
  <line x1="275.33333333333337" x2="357.5" y1="310" y2="310" class="net_47,48,49,50,51,52,53,54,55,56,57,58,59,60,61,62"/>
  <line x1="357.5" x2="357.5" y1="310" y2="298" class="net_47,48,49,50,51,52,53,54,55,56,57,58,59,60,61,62"/>
</svg>
