<svg xmlns="http://www.w3.org/2000/svg" xmlns:xlink="http://www.w3.org/1999/xlink" xmlns:s="https://github.com/nturley/netlistsvg" width="633" height="737">
  <style>svg {
    stroke:#000;
    fill:none;
  }
  text {
    fill:#000;
    stroke:none;
    font-size:10px;
    font-weight: bold;
    font-family: "Courier New", monospace;
  }
  .nodelabel {
    text-anchor: middle;
  }
  .inputPortLabel {
    text-anchor: end;
  }
  .splitjoinBody {
    fill:#000;
  }</style>
  <g s:type="or" transform="translate(124,58)" s:width="30" s:height="25" id="cell_$abc$4213$auto$blifparse.cc:386:parse_blif$4214">
    <s:alias val="$or"/>
    <s:alias val="$logic_or"/>
    <s:alias val="$_OR_"/>
    <path d="M0,25 L0,25 L15,25 A15 12.5 0 0 0 15,0 L0,0" class="cell_$abc$4213$auto$blifparse.cc:386:parse_blif$4214"/>
    <path d="M0,0 A30 25 0 0 1 0,25" class="cell_$abc$4213$auto$blifparse.cc:386:parse_blif$4214"/>
    <g s:x="3" s:y="5" s:pid="A"/>
    <g s:x="3" s:y="20" s:pid="B"/>
    <g s:x="30" s:y="12.5" s:pid="Y"/>
  </g>
  <g s:type="or" transform="translate(124,120.5)" s:width="30" s:height="25" id="cell_$abc$4213$auto$blifparse.cc:386:parse_blif$4215">
    <s:alias val="$or"/>
    <s:alias val="$logic_or"/>
    <s:alias val="$_OR_"/>
    <path d="M0,25 L0,25 L15,25 A15 12.5 0 0 0 15,0 L0,0" class="cell_$abc$4213$auto$blifparse.cc:386:parse_blif$4215"/>
    <path d="M0,0 A30 25 0 0 1 0,25" class="cell_$abc$4213$auto$blifparse.cc:386:parse_blif$4215"/>
    <g s:x="3" s:y="5" s:pid="A"/>
    <g s:x="3" s:y="20" s:pid="B"/>
    <g s:x="30" s:y="12.5" s:pid="Y"/>
  </g>
  <g s:type="or" transform="translate(191,50.5)" s:width="30" s:height="25" id="cell_$abc$4213$auto$blifparse.cc:386:parse_blif$4216">
    <s:alias val="$or"/>
    <s:alias val="$logic_or"/>
    <s:alias val="$_OR_"/>
    <path d="M0,25 L0,25 L15,25 A15 12.5 0 0 0 15,0 L0,0" class="cell_$abc$4213$auto$blifparse.cc:386:parse_blif$4216"/>
    <path d="M0,0 A30 25 0 0 1 0,25" class="cell_$abc$4213$auto$blifparse.cc:386:parse_blif$4216"/>
    <g s:x="3" s:y="5" s:pid="A"/>
    <g s:x="3" s:y="20" s:pid="B"/>
    <g s:x="30" s:y="12.5" s:pid="Y"/>
  </g>
  <g s:type="or" transform="translate(124,180.5)" s:width="30" s:height="25" id="cell_$abc$4213$auto$blifparse.cc:386:parse_blif$4217">
    <s:alias val="$or"/>
    <s:alias val="$logic_or"/>
    <s:alias val="$_OR_"/>
    <path d="M0,25 L0,25 L15,25 A15 12.5 0 0 0 15,0 L0,0" class="cell_$abc$4213$auto$blifparse.cc:386:parse_blif$4217"/>
    <path d="M0,0 A30 25 0 0 1 0,25" class="cell_$abc$4213$auto$blifparse.cc:386:parse_blif$4217"/>
    <g s:x="3" s:y="5" s:pid="A"/>
    <g s:x="3" s:y="20" s:pid="B"/>
    <g s:x="30" s:y="12.5" s:pid="Y"/>
  </g>
  <g s:type="or" transform="translate(124,240.5)" s:width="30" s:height="25" id="cell_$abc$4213$auto$blifparse.cc:386:parse_blif$4218">
    <s:alias val="$or"/>
    <s:alias val="$logic_or"/>
    <s:alias val="$_OR_"/>
    <path d="M0,25 L0,25 L15,25 A15 12.5 0 0 0 15,0 L0,0" class="cell_$abc$4213$auto$blifparse.cc:386:parse_blif$4218"/>
    <path d="M0,0 A30 25 0 0 1 0,25" class="cell_$abc$4213$auto$blifparse.cc:386:parse_blif$4218"/>
    <g s:x="3" s:y="5" s:pid="A"/>
    <g s:x="3" s:y="20" s:pid="B"/>
    <g s:x="30" s:y="12.5" s:pid="Y"/>
  </g>
  <g s:type="or" transform="translate(191,173)" s:width="30" s:height="25" id="cell_$abc$4213$auto$blifparse.cc:386:parse_blif$4219">
    <s:alias val="$or"/>
    <s:alias val="$logic_or"/>
    <s:alias val="$_OR_"/>
    <path d="M0,25 L0,25 L15,25 A15 12.5 0 0 0 15,0 L0,0" class="cell_$abc$4213$auto$blifparse.cc:386:parse_blif$4219"/>
    <path d="M0,0 A30 25 0 0 1 0,25" class="cell_$abc$4213$auto$blifparse.cc:386:parse_blif$4219"/>
    <g s:x="3" s:y="5" s:pid="A"/>
    <g s:x="3" s:y="20" s:pid="B"/>
    <g s:x="30" s:y="12.5" s:pid="Y"/>
  </g>
  <g s:type="or" transform="translate(281.6666666666667,43)" s:width="30" s:height="25" id="cell_$abc$4213$auto$blifparse.cc:386:parse_blif$4220">
    <s:alias val="$or"/>
    <s:alias val="$logic_or"/>
    <s:alias val="$_OR_"/>
    <path d="M0,25 L0,25 L15,25 A15 12.5 0 0 0 15,0 L0,0" class="cell_$abc$4213$auto$blifparse.cc:386:parse_blif$4220"/>
    <path d="M0,0 A30 25 0 0 1 0,25" class="cell_$abc$4213$auto$blifparse.cc:386:parse_blif$4220"/>
    <g s:x="3" s:y="5" s:pid="A"/>
    <g s:x="3" s:y="20" s:pid="B"/>
    <g s:x="30" s:y="12.5" s:pid="Y"/>
  </g>
  <g s:type="or" transform="translate(124,444)" s:width="30" s:height="25" id="cell_$abc$4213$auto$blifparse.cc:386:parse_blif$4221">
    <s:alias val="$or"/>
    <s:alias val="$logic_or"/>
    <s:alias val="$_OR_"/>
    <path d="M0,25 L0,25 L15,25 A15 12.5 0 0 0 15,0 L0,0" class="cell_$abc$4213$auto$blifparse.cc:386:parse_blif$4221"/>
    <path d="M0,0 A30 25 0 0 1 0,25" class="cell_$abc$4213$auto$blifparse.cc:386:parse_blif$4221"/>
    <g s:x="3" s:y="5" s:pid="A"/>
    <g s:x="3" s:y="20" s:pid="B"/>
    <g s:x="30" s:y="12.5" s:pid="Y"/>
  </g>
  <g s:type="or" transform="translate(124,506.5)" s:width="30" s:height="25" id="cell_$abc$4213$auto$blifparse.cc:386:parse_blif$4222">
    <s:alias val="$or"/>
    <s:alias val="$logic_or"/>
    <s:alias val="$_OR_"/>
    <path d="M0,25 L0,25 L15,25 A15 12.5 0 0 0 15,0 L0,0" class="cell_$abc$4213$auto$blifparse.cc:386:parse_blif$4222"/>
    <path d="M0,0 A30 25 0 0 1 0,25" class="cell_$abc$4213$auto$blifparse.cc:386:parse_blif$4222"/>
    <g s:x="3" s:y="5" s:pid="A"/>
    <g s:x="3" s:y="20" s:pid="B"/>
    <g s:x="30" s:y="12.5" s:pid="Y"/>
  </g>
  <g s:type="or" transform="translate(191,436.5)" s:width="30" s:height="25" id="cell_$abc$4213$auto$blifparse.cc:386:parse_blif$4223">
    <s:alias val="$or"/>
    <s:alias val="$logic_or"/>
    <s:alias val="$_OR_"/>
    <path d="M0,25 L0,25 L15,25 A15 12.5 0 0 0 15,0 L0,0" class="cell_$abc$4213$auto$blifparse.cc:386:parse_blif$4223"/>
    <path d="M0,0 A30 25 0 0 1 0,25" class="cell_$abc$4213$auto$blifparse.cc:386:parse_blif$4223"/>
    <g s:x="3" s:y="5" s:pid="A"/>
    <g s:x="3" s:y="20" s:pid="B"/>
    <g s:x="30" s:y="12.5" s:pid="Y"/>
  </g>
  <g s:type="or" transform="translate(124,566.5)" s:width="30" s:height="25" id="cell_$abc$4213$auto$blifparse.cc:386:parse_blif$4224">
    <s:alias val="$or"/>
    <s:alias val="$logic_or"/>
    <s:alias val="$_OR_"/>
    <path d="M0,25 L0,25 L15,25 A15 12.5 0 0 0 15,0 L0,0" class="cell_$abc$4213$auto$blifparse.cc:386:parse_blif$4224"/>
    <path d="M0,0 A30 25 0 0 1 0,25" class="cell_$abc$4213$auto$blifparse.cc:386:parse_blif$4224"/>
    <g s:x="3" s:y="5" s:pid="A"/>
    <g s:x="3" s:y="20" s:pid="B"/>
    <g s:x="30" s:y="12.5" s:pid="Y"/>
  </g>
  <g s:type="or" transform="translate(124,626.5)" s:width="30" s:height="25" id="cell_$abc$4213$auto$blifparse.cc:386:parse_blif$4225">
    <s:alias val="$or"/>
    <s:alias val="$logic_or"/>
    <s:alias val="$_OR_"/>
    <path d="M0,25 L0,25 L15,25 A15 12.5 0 0 0 15,0 L0,0" class="cell_$abc$4213$auto$blifparse.cc:386:parse_blif$4225"/>
    <path d="M0,0 A30 25 0 0 1 0,25" class="cell_$abc$4213$auto$blifparse.cc:386:parse_blif$4225"/>
    <g s:x="3" s:y="5" s:pid="A"/>
    <g s:x="3" s:y="20" s:pid="B"/>
    <g s:x="30" s:y="12.5" s:pid="Y"/>
  </g>
  <g s:type="or" transform="translate(191,559)" s:width="30" s:height="25" id="cell_$abc$4213$auto$blifparse.cc:386:parse_blif$4226">
    <s:alias val="$or"/>
    <s:alias val="$logic_or"/>
    <s:alias val="$_OR_"/>
    <path d="M0,25 L0,25 L15,25 A15 12.5 0 0 0 15,0 L0,0" class="cell_$abc$4213$auto$blifparse.cc:386:parse_blif$4226"/>
    <path d="M0,0 A30 25 0 0 1 0,25" class="cell_$abc$4213$auto$blifparse.cc:386:parse_blif$4226"/>
    <g s:x="3" s:y="5" s:pid="A"/>
    <g s:x="3" s:y="20" s:pid="B"/>
    <g s:x="30" s:y="12.5" s:pid="Y"/>
  </g>
  <g s:type="or" transform="translate(281.6666666666667,429)" s:width="30" s:height="25" id="cell_$abc$4213$auto$blifparse.cc:386:parse_blif$4227">
    <s:alias val="$or"/>
    <s:alias val="$logic_or"/>
    <s:alias val="$_OR_"/>
    <path d="M0,25 L0,25 L15,25 A15 12.5 0 0 0 15,0 L0,0" class="cell_$abc$4213$auto$blifparse.cc:386:parse_blif$4227"/>
    <path d="M0,0 A30 25 0 0 1 0,25" class="cell_$abc$4213$auto$blifparse.cc:386:parse_blif$4227"/>
    <g s:x="3" s:y="5" s:pid="A"/>
    <g s:x="3" s:y="20" s:pid="B"/>
    <g s:x="30" s:y="12.5" s:pid="Y"/>
  </g>
  <g s:type="or" transform="translate(449.3333333333333,436.5)" s:width="30" s:height="25" id="cell_$abc$4213$auto$blifparse.cc:386:parse_blif$4228">
    <s:alias val="$or"/>
    <s:alias val="$logic_or"/>
    <s:alias val="$_OR_"/>
    <path d="M0,25 L0,25 L15,25 A15 12.5 0 0 0 15,0 L0,0" class="cell_$abc$4213$auto$blifparse.cc:386:parse_blif$4228"/>
    <path d="M0,0 A30 25 0 0 1 0,25" class="cell_$abc$4213$auto$blifparse.cc:386:parse_blif$4228"/>
    <g s:x="3" s:y="5" s:pid="A"/>
    <g s:x="3" s:y="20" s:pid="B"/>
    <g s:x="30" s:y="12.5" s:pid="Y"/>
  </g>
  <g s:type="generic" transform="translate(448.4,506.5)" s:width="30" s:height="40" id="cell_a_reg">
    <text x="15" y="-4" class="nodelabel cell_a_reg" s:attribute="ref">reg8_en_rst</text>
    <rect width="30" height="80" s:generic="body" class="cell_a_reg"/>
    <g transform="translate(0,10)" s:x="0" s:y="10" s:pid="in0" id="port_a_reg~D">
      <text x="-3" y="-4" class="inputPortLabel cell_a_reg">D</text>
    </g>
    <g transform="translate(0,30)" s:x="0" s:y="10" s:pid="in0" id="port_a_reg~clk">
      <text x="-3" y="-4" class="inputPortLabel cell_a_reg">clk</text>
    </g>
    <g transform="translate(0,50)" s:x="0" s:y="10" s:pid="in0" id="port_a_reg~en">
      <text x="-3" y="-4" class="inputPortLabel cell_a_reg">en</text>
    </g>
    <g transform="translate(0,70)" s:x="0" s:y="10" s:pid="in0" id="port_a_reg~rst">
      <text x="-3" y="-4" class="inputPortLabel cell_a_reg">rst</text>
    </g>
    <g transform="translate(30,10)" s:x="30" s:y="10" s:pid="out0" id="port_a_reg~Q">
      <text x="5" y="-4" style="fill:#000; stroke:none" class="cell_a_reg">Q</text>
    </g>
  </g>
  <g s:type="generic" transform="translate(569,299)" s:width="30" s:height="40" id="cell_acc_mux">
    <text x="15" y="-4" class="nodelabel cell_acc_mux" s:attribute="ref">mux2_16</text>
    <rect width="30" height="60" s:generic="body" class="cell_acc_mux"/>
    <g transform="translate(0,10)" s:x="0" s:y="10" s:pid="in0" id="port_acc_mux~D0">
      <text x="-3" y="-4" class="inputPortLabel cell_acc_mux">D0</text>
    </g>
    <g transform="translate(0,30)" s:x="0" s:y="10" s:pid="in0" id="port_acc_mux~D1">
      <text x="-3" y="-4" class="inputPortLabel cell_acc_mux">D1</text>
    </g>
    <g transform="translate(0,50)" s:x="0" s:y="10" s:pid="in0" id="port_acc_mux~sel">
      <text x="-3" y="-4" class="inputPortLabel cell_acc_mux">sel</text>
    </g>
    <g transform="translate(30,10)" s:x="30" s:y="10" s:pid="out0" id="port_acc_mux~Y">
      <text x="5" y="-4" style="fill:#000; stroke:none" class="cell_acc_mux">Y</text>
    </g>
  </g>
  <g s:type="generic" transform="translate(284,287.5)" s:width="30" s:height="40" id="cell_acc_reg">
    <text x="15" y="-4" class="nodelabel cell_acc_reg" s:attribute="ref">reg16_blk</text>
    <rect width="30" height="80" s:generic="body" class="cell_acc_reg"/>
    <g transform="translate(0,10)" s:x="0" s:y="10" s:pid="in0" id="port_acc_reg~D">
      <text x="-3" y="-4" class="inputPortLabel cell_acc_reg">D</text>
    </g>
    <g transform="translate(0,30)" s:x="0" s:y="10" s:pid="in0" id="port_acc_reg~clk">
      <text x="-3" y="-4" class="inputPortLabel cell_acc_reg">clk</text>
    </g>
    <g transform="translate(0,50)" s:x="0" s:y="10" s:pid="in0" id="port_acc_reg~en">
      <text x="-3" y="-4" class="inputPortLabel cell_acc_reg">en</text>
    </g>
    <g transform="translate(0,70)" s:x="0" s:y="10" s:pid="in0" id="port_acc_reg~rst">
      <text x="-3" y="-4" class="inputPortLabel cell_acc_reg">rst</text>
    </g>
    <g transform="translate(30,10)" s:x="30" s:y="10" s:pid="out0" id="port_acc_reg~Q">
      <text x="5" y="-4" style="fill:#000; stroke:none" class="cell_acc_reg">Q</text>
    </g>
  </g>
  <g s:type="generic" transform="translate(448.4,642)" s:width="30" s:height="40" id="cell_b_reg">
    <text x="15" y="-4" class="nodelabel cell_b_reg" s:attribute="ref">reg8_en_rst</text>
    <rect width="30" height="80" s:generic="body" class="cell_b_reg"/>
    <g transform="translate(0,10)" s:x="0" s:y="10" s:pid="in0" id="port_b_reg~D">
      <text x="-3" y="-4" class="inputPortLabel cell_b_reg">D</text>
    </g>
    <g transform="translate(0,30)" s:x="0" s:y="10" s:pid="in0" id="port_b_reg~clk">
      <text x="-3" y="-4" class="inputPortLabel cell_b_reg">clk</text>
    </g>
    <g transform="translate(0,50)" s:x="0" s:y="10" s:pid="in0" id="port_b_reg~en">
      <text x="-3" y="-4" class="inputPortLabel cell_b_reg">en</text>
    </g>
    <g transform="translate(0,70)" s:x="0" s:y="10" s:pid="in0" id="port_b_reg~rst">
      <text x="-3" y="-4" class="inputPortLabel cell_b_reg">rst</text>
    </g>
    <g transform="translate(30,10)" s:x="30" s:y="10" s:pid="out0" id="port_b_reg~Q">
      <text x="5" y="-4" style="fill:#000; stroke:none" class="cell_b_reg">Q</text>
    </g>
  </g>
  <g s:type="generic" transform="translate(447,319)" s:width="30" s:height="40" id="cell_u_mac">
    <text x="15" y="-4" class="nodelabel cell_u_mac" s:attribute="ref">mac</text>
    <rect width="30" height="60" s:generic="body" class="cell_u_mac"/>
    <g transform="translate(0,10)" s:x="0" s:y="10" s:pid="in0" id="port_u_mac~A">
      <text x="-3" y="-4" class="inputPortLabel cell_u_mac">A</text>
    </g>
    <g transform="translate(0,30)" s:x="0" s:y="10" s:pid="in0" id="port_u_mac~AccIn">
      <text x="-3" y="-4" class="inputPortLabel cell_u_mac">AccIn</text>
    </g>
    <g transform="translate(0,50)" s:x="0" s:y="10" s:pid="in0" id="port_u_mac~B">
      <text x="-3" y="-4" class="inputPortLabel cell_u_mac">B</text>
    </g>
    <g transform="translate(30,10)" s:x="30" s:y="10" s:pid="out0" id="port_u_mac~AccOut">
      <text x="5" y="-4" style="fill:#000; stroke:none" class="cell_u_mac">AccOut</text>
    </g>
  </g>
  <g s:type="inputExt" transform="translate(189,308)" s:width="30" s:height="20" id="cell_clk">
    <text x="15" y="-4" class="nodelabel cell_clk" s:attribute="ref">clk</text>
    <s:alias val="$_inputExt_"/>
    <path d="M0,0 L0,20 L15,20 L30,10 L15,0 Z" class="cell_clk"/>
    <g s:x="28" s:y="10" s:pid="Y"/>
  </g>
  <g s:type="inputExt" transform="translate(189,381.5)" s:width="30" s:height="20" id="cell_rst">
    <text x="15" y="-4" class="nodelabel cell_rst" s:attribute="ref">rst</text>
    <s:alias val="$_inputExt_"/>
    <path d="M0,0 L0,20 L15,20 L30,10 L15,0 Z" class="cell_rst"/>
    <g s:x="28" s:y="10" s:pid="Y"/>
  </g>
  <g s:type="inputExt" transform="translate(189,243)" s:width="30" s:height="20" id="cell_enable">
    <text x="15" y="-4" class="nodelabel cell_enable" s:attribute="ref">enable</text>
    <s:alias val="$_inputExt_"/>
    <path d="M0,0 L0,20 L15,20 L30,10 L15,0 Z" class="cell_enable"/>
    <g s:x="28" s:y="10" s:pid="Y"/>
  </g>
  <g s:type="inputExt" transform="translate(12,22)" s:width="30" s:height="20" id="cell_A_in">
    <text x="15" y="-4" class="nodelabel cell_A_in" s:attribute="ref">A_in</text>
    <s:alias val="$_inputExt_"/>
    <path d="M0,0 L0,20 L15,20 L30,10 L15,0 Z" class="cell_A_in"/>
    <g s:x="28" s:y="10" s:pid="Y"/>
  </g>
  <g s:type="inputExt" transform="translate(12,471.5)" s:width="30" s:height="20" id="cell_B_in">
    <text x="15" y="-4" class="nodelabel cell_B_in" s:attribute="ref">B_in</text>
    <s:alias val="$_inputExt_"/>
    <path d="M0,0 L0,20 L15,20 L30,10 L15,0 Z" class="cell_B_in"/>
    <g s:x="28" s:y="10" s:pid="Y"/>
  </g>
  <g s:type="outputExt" transform="translate(569,507)" s:width="30" s:height="20" id="cell_A_out">
    <text x="15" y="-4" class="nodelabel cell_A_out" s:attribute="ref">A_out</text>
    <s:alias val="$_outputExt_"/>
    <path d="M30,0 L30,20 L15,20 L0,10 L15,0 Z" class="cell_A_out"/>
    <g s:x="0" s:y="10" s:pid="A"/>
  </g>
  <g s:type="outputExt" transform="translate(569,642.5)" s:width="30" s:height="20" id="cell_B_out">
    <text x="15" y="-4" class="nodelabel cell_B_out" s:attribute="ref">B_out</text>
    <s:alias val="$_outputExt_"/>
    <path d="M30,0 L30,20 L15,20 L0,10 L15,0 Z" class="cell_B_out"/>
    <g s:x="0" s:y="10" s:pid="A"/>
  </g>
  <g s:type="outputExt" transform="translate(569,237.5)" s:width="30" s:height="20" id="cell_Acc_out">
    <text x="15" y="-4" class="nodelabel cell_Acc_out" s:attribute="ref">Acc_out</text>
    <s:alias val="$_outputExt_"/>
    <path d="M30,0 L30,20 L15,20 L0,10 L15,0 Z" class="cell_Acc_out"/>
    <g s:x="0" s:y="10" s:pid="A"/>
  </g>
  <g s:type="constant" transform="translate(284,682.5)" s:width="30" s:height="20" id="cell_1">
    <text x="15" y="-4" class="nodelabel cell_1" s:attribute="ref">1</text>
    <s:alias val="$_constant_"/>
    <rect width="30" height="20" class="cell_1"/>
    <g s:x="30" s:y="10" s:pid="Y"/>
  </g>
  <g s:type="split" transform="translate(77,75)" s:width="5" s:height="40" id="cell_$split$,5,6,7,8,9,10,11,12,">
    <rect width="5" height="160" class="splitjoinBody" s:generic="body"/>
    <s:alias val="$_split_"/>
    <g s:x="0" s:y="20" s:pid="in"/>
    <g transform="translate(4,10)" s:x="4" s:y="10" s:pid="out0">
      <text x="5" y="-4">1</text>
    </g>
    <g transform="translate(4,30)" s:x="4" s:y="10" s:pid="out0">
      <text x="5" y="-4">0</text>
    </g>
    <g transform="translate(4,50)" s:x="4" s:y="10" s:pid="out0">
      <text x="5" y="-4">3</text>
    </g>
    <g transform="translate(4,70)" s:x="4" s:y="10" s:pid="out0">
      <text x="5" y="-4">2</text>
    </g>
    <g transform="translate(4,90)" s:x="4" s:y="10" s:pid="out0">
      <text x="5" y="-4">5</text>
    </g>
    <g transform="translate(4,110)" s:x="4" s:y="10" s:pid="out0">
      <text x="5" y="-4">4</text>
    </g>
    <g transform="translate(4,130)" s:x="4" s:y="10" s:pid="out0">
      <text x="5" y="-4">7</text>
    </g>
    <g transform="translate(4,150)" s:x="4" s:y="10" s:pid="out0">
      <text x="5" y="-4">6</text>
    </g>
  </g>
  <g s:type="split" transform="translate(77,461)" s:width="5" s:height="40" id="cell_$split$,13,14,15,16,17,18,19,20,">
    <rect width="5" height="160" class="splitjoinBody" s:generic="body"/>
    <s:alias val="$_split_"/>
    <g s:x="0" s:y="20" s:pid="in"/>
    <g transform="translate(4,10)" s:x="4" s:y="10" s:pid="out0">
      <text x="5" y="-4">1</text>
    </g>
    <g transform="translate(4,30)" s:x="4" s:y="10" s:pid="out0">
      <text x="5" y="-4">0</text>
    </g>
    <g transform="translate(4,50)" s:x="4" s:y="10" s:pid="out0">
      <text x="5" y="-4">3</text>
    </g>
    <g transform="translate(4,70)" s:x="4" s:y="10" s:pid="out0">
      <text x="5" y="-4">2</text>
    </g>
    <g transform="translate(4,90)" s:x="4" s:y="10" s:pid="out0">
      <text x="5" y="-4">5</text>
    </g>
    <g transform="translate(4,110)" s:x="4" s:y="10" s:pid="out0">
      <text x="5" y="-4">4</text>
    </g>
    <g transform="translate(4,130)" s:x="4" s:y="10" s:pid="out0">
      <text x="5" y="-4">7</text>
    </g>
    <g transform="translate(4,150)" s:x="4" s:y="10" s:pid="out0">
      <text x="5" y="-4">6</text>
    </g>
  </g>
  <line x1="81.5" x2="81.5" y1="85" y2="63" class="net_6"/>
  <line x1="81.5" x2="127" y1="63" y2="63" class="net_6"/>
  <line x1="82" x2="99" y1="105.5" y2="105.5" class="net_5"/>
  <line x1="99" x2="99" y1="105.5" y2="78" class="net_5"/>
  <line x1="99" x2="127" y1="78" y2="78" class="net_5"/>
  <line x1="82" x2="127" y1="125.5" y2="125.5" class="net_8"/>
  <line x1="82" x2="99" y1="145.5" y2="145.5" class="net_7"/>
  <line x1="99" x2="99" y1="145.5" y2="140.5" class="net_7"/>
  <line x1="99" x2="127" y1="140.5" y2="140.5" class="net_7"/>
  <line x1="154" x2="164" y1="133" y2="133" class="net_54"/>
  <line x1="164" x2="164" y1="133" y2="55.5" class="net_54"/>
  <line x1="164" x2="194" y1="55.5" y2="55.5" class="net_54"/>
  <line x1="154" x2="194" y1="70.5" y2="70.5" class="net_53"/>
  <line x1="82" x2="109" y1="165.5" y2="165.5" class="net_10"/>
  <line x1="109" x2="109" y1="165.5" y2="185.5" class="net_10"/>
  <line x1="109" x2="127" y1="185.5" y2="185.5" class="net_10"/>
  <line x1="82" x2="99" y1="185.5" y2="185.5" class="net_9"/>
  <line x1="99" x2="99" y1="185.5" y2="200.5" class="net_9"/>
  <line x1="99" x2="127" y1="200.5" y2="200.5" class="net_9"/>
  <line x1="82" x2="99" y1="205.5" y2="205.5" class="net_12"/>
  <line x1="99" x2="99" y1="205.5" y2="245.5" class="net_12"/>
  <line x1="99" x2="127" y1="245.5" y2="245.5" class="net_12"/>
  <line x1="81.5" x2="81.5" y1="226" y2="260.5" class="net_11"/>
  <line x1="81.5" x2="127" y1="260.5" y2="260.5" class="net_11"/>
  <line x1="154" x2="164" y1="253" y2="253" class="net_57"/>
  <line x1="164" x2="164" y1="253" y2="178" class="net_57"/>
  <line x1="164" x2="194" y1="178" y2="178" class="net_57"/>
  <line x1="154" x2="194" y1="193" y2="193" class="net_56"/>
  <line x1="221" x2="235" y1="185.5" y2="185.5" class="net_58"/>
  <line x1="235" x2="235" y1="185.5" y2="48" class="net_58"/>
  <line x1="235" x2="284.6666666666667" y1="48" y2="48" class="net_58"/>
  <line x1="221" x2="284.6666666666667" y1="63" y2="63" class="net_55"/>
  <line x1="81.5" x2="81.5" y1="471" y2="449" class="net_14"/>
  <line x1="81.5" x2="127" y1="449" y2="449" class="net_14"/>
  <line x1="82" x2="99" y1="491.5" y2="491.5" class="net_13"/>
  <line x1="99" x2="99" y1="491.5" y2="464" class="net_13"/>
  <line x1="99" x2="127" y1="464" y2="464" class="net_13"/>
  <line x1="82" x2="127" y1="511.5" y2="511.5" class="net_16"/>
  <line x1="82" x2="99" y1="531.5" y2="531.5" class="net_15"/>
  <line x1="99" x2="99" y1="531.5" y2="526.5" class="net_15"/>
  <line x1="99" x2="127" y1="526.5" y2="526.5" class="net_15"/>
  <line x1="154" x2="164" y1="519" y2="519" class="net_61"/>
  <line x1="164" x2="164" y1="519" y2="441.5" class="net_61"/>
  <line x1="164" x2="194" y1="441.5" y2="441.5" class="net_61"/>
  <line x1="154" x2="194" y1="456.5" y2="456.5" class="net_60"/>
  <line x1="82" x2="109" y1="551.5" y2="551.5" class="net_18"/>
  <line x1="109" x2="109" y1="551.5" y2="571.5" class="net_18"/>
  <line x1="109" x2="127" y1="571.5" y2="571.5" class="net_18"/>
  <line x1="82" x2="99" y1="571.5" y2="571.5" class="net_17"/>
  <line x1="99" x2="99" y1="571.5" y2="586.5" class="net_17"/>
  <line x1="99" x2="127" y1="586.5" y2="586.5" class="net_17"/>
  <line x1="82" x2="99" y1="591.5" y2="591.5" class="net_20"/>
  <line x1="99" x2="99" y1="591.5" y2="631.5" class="net_20"/>
  <line x1="99" x2="127" y1="631.5" y2="631.5" class="net_20"/>
  <line x1="81.5" x2="81.5" y1="612" y2="646.5" class="net_19"/>
  <line x1="81.5" x2="127" y1="646.5" y2="646.5" class="net_19"/>
  <line x1="154" x2="164" y1="639" y2="639" class="net_64"/>
  <line x1="164" x2="164" y1="639" y2="564" class="net_64"/>
  <line x1="164" x2="194" y1="564" y2="564" class="net_64"/>
  <line x1="154" x2="194" y1="579" y2="579" class="net_63"/>
  <line x1="221" x2="235" y1="571.5" y2="571.5" class="net_65"/>
  <line x1="235" x2="235" y1="571.5" y2="434" class="net_65"/>
  <line x1="235" x2="284.6666666666667" y1="434" y2="434" class="net_65"/>
  <line x1="221" x2="284.6666666666667" y1="449" y2="449" class="net_62"/>
  <line x1="311.6666666666667" x2="452.3333333333333" y1="441.5" y2="441.5" class="net_66"/>
  <line x1="311.6666666666667" x2="386" y1="55.5" y2="55.5" class="net_59"/>
  <line x1="386" x2="386" y1="55.5" y2="456.5" class="net_59"/>
  <line x1="386" x2="452.3333333333333" y1="456.5" y2="456.5" class="net_59"/>
  <line x1="40" x2="396" y1="32" y2="32" class="net_5,6,7,8,9,10,11,12"/>
  <line x1="396" x2="396" y1="32" y2="517" class="net_5,6,7,8,9,10,11,12"/>
  <line x1="396" x2="448.4" y1="517" y2="517" class="net_5,6,7,8,9,10,11,12"/>
  <line x1="40" x2="396" y1="32" y2="32" class="net_5,6,7,8,9,10,11,12"/>
  <line x1="396" x2="396" y1="32" y2="329.5" class="net_5,6,7,8,9,10,11,12"/>
  <circle cx="396" cy="329.5" r="2" style="fill:#000" class="net_5,6,7,8,9,10,11,12"/>
  <line x1="396" x2="447" y1="329.5" y2="329.5" class="net_5,6,7,8,9,10,11,12"/>
  <line x1="40" x2="52" y1="32" y2="32" class="net_5,6,7,8,9,10,11,12"/>
  <line x1="52" x2="52" y1="32" y2="95.5" class="net_5,6,7,8,9,10,11,12"/>
  <circle cx="52" cy="32" r="2" style="fill:#000" class="net_5,6,7,8,9,10,11,12"/>
  <line x1="52" x2="77" y1="95.5" y2="95.5" class="net_5,6,7,8,9,10,11,12"/>
  <line x1="217" x2="235" y1="318" y2="318" class="net_2"/>
  <line x1="235" x2="235" y1="318" y2="380.5" class="net_2"/>
  <line x1="235" x2="376" y1="380.5" y2="380.5" class="net_2"/>
  <line x1="376" x2="376" y1="380.5" y2="537" class="net_2"/>
  <circle cx="235" cy="318" r="2" style="fill:#000" class="net_2"/>
  <circle cx="376" cy="537" r="2" style="fill:#000" class="net_2"/>
  <line x1="376" x2="448.4" y1="537" y2="537" class="net_2"/>
  <line x1="217" x2="284" y1="318" y2="318" class="net_2"/>
  <line x1="217" x2="235" y1="318" y2="318" class="net_2"/>
  <line x1="235" x2="235" y1="318" y2="380.5" class="net_2"/>
  <line x1="235" x2="376" y1="380.5" y2="380.5" class="net_2"/>
  <line x1="376" x2="376" y1="380.5" y2="672.5" class="net_2"/>
  <line x1="376" x2="448.4" y1="672.5" y2="672.5" class="net_2"/>
  <line x1="314" x2="346" y1="692.5" y2="692.5" class="net_100"/>
  <line x1="346" x2="346" y1="692.5" y2="557" class="net_100"/>
  <circle cx="346" cy="692.5" r="2" style="fill:#000" class="net_100"/>
  <line x1="346" x2="448.4" y1="557" y2="557" class="net_100"/>
  <line x1="314" x2="448.4" y1="692.5" y2="692.5" class="net_100"/>
  <line x1="217" x2="366" y1="391.5" y2="391.5" class="net_3"/>
  <line x1="366" x2="366" y1="391.5" y2="577" class="net_3"/>
  <circle cx="366" cy="577" r="2" style="fill:#000" class="net_3"/>
  <line x1="366" x2="448.4" y1="577" y2="577" class="net_3"/>
  <line x1="217" x2="245" y1="391.5" y2="391.5" class="net_3"/>
  <line x1="245" x2="245" y1="391.5" y2="358" class="net_3"/>
  <circle cx="245" cy="391.5" r="2" style="fill:#000" class="net_3"/>
  <line x1="245" x2="284" y1="358" y2="358" class="net_3"/>
  <line x1="217" x2="366" y1="391.5" y2="391.5" class="net_3"/>
  <line x1="366" x2="366" y1="391.5" y2="712.5" class="net_3"/>
  <line x1="366" x2="448.4" y1="712.5" y2="712.5" class="net_3"/>
  <line x1="315" x2="525" y1="298" y2="298" class="net_37,38,39,40,41,42,43,44,45,46,47,48,49,50,51,52"/>
  <line x1="525" x2="525" y1="298" y2="309.5" class="net_37,38,39,40,41,42,43,44,45,46,47,48,49,50,51,52"/>
  <line x1="525" x2="569" y1="309.5" y2="309.5" class="net_37,38,39,40,41,42,43,44,45,46,47,48,49,50,51,52"/>
  <line x1="315" x2="406" y1="298" y2="298" class="net_37,38,39,40,41,42,43,44,45,46,47,48,49,50,51,52"/>
  <line x1="406" x2="406" y1="298" y2="349.5" class="net_37,38,39,40,41,42,43,44,45,46,47,48,49,50,51,52"/>
  <circle cx="406" cy="298" r="2" style="fill:#000" class="net_37,38,39,40,41,42,43,44,45,46,47,48,49,50,51,52"/>
  <line x1="406" x2="447" y1="349.5" y2="349.5" class="net_37,38,39,40,41,42,43,44,45,46,47,48,49,50,51,52"/>
  <line x1="315" x2="406" y1="298" y2="298" class="net_37,38,39,40,41,42,43,44,45,46,47,48,49,50,51,52"/>
  <line x1="406" x2="406" y1="298" y2="247.5" class="net_37,38,39,40,41,42,43,44,45,46,47,48,49,50,51,52"/>
  <line x1="406" x2="569" y1="247.5" y2="247.5" class="net_37,38,39,40,41,42,43,44,45,46,47,48,49,50,51,52"/>
  <line x1="478" x2="569" y1="329.5" y2="329.5" class="net_68,69,70,71,72,73,74,75,76,77,78,79,80,81,82,83"/>
  <line x1="479.3333333333333" x2="525" y1="449" y2="449" class="net_67"/>
  <line x1="525" x2="525" y1="449" y2="349.5" class="net_67"/>
  <line x1="525" x2="569" y1="349.5" y2="349.5" class="net_67"/>
  <line x1="600" x2="621" y1="309.5" y2="309.5" class="net_84,85,86,87,88,89,90,91,92,93,94,95,96,97,98,99"/>
  <line x1="621" x2="621" y1="309.5" y2="267.5" class="net_84,85,86,87,88,89,90,91,92,93,94,95,96,97,98,99"/>
  <line x1="621" x2="255" y1="267.5" y2="267.5" class="net_84,85,86,87,88,89,90,91,92,93,94,95,96,97,98,99"/>
  <line x1="255" x2="255" y1="267.5" y2="298" class="net_84,85,86,87,88,89,90,91,92,93,94,95,96,97,98,99"/>
  <line x1="255" x2="284" y1="298" y2="298" class="net_84,85,86,87,88,89,90,91,92,93,94,95,96,97,98,99"/>
  <line x1="217" x2="245" y1="253" y2="253" class="net_4"/>
  <line x1="245" x2="245" y1="253" y2="338" class="net_4"/>
  <line x1="245" x2="284" y1="338" y2="338" class="net_4"/>
  <line x1="40" x2="52" y1="481.5" y2="481.5" class="net_13,14,15,16,17,18,19,20"/>
  <line x1="52" x2="52" y1="481.5" y2="661.5" class="net_13,14,15,16,17,18,19,20"/>
  <line x1="52" x2="235" y1="661.5" y2="661.5" class="net_13,14,15,16,17,18,19,20"/>
  <line x1="235" x2="235" y1="661.5" y2="712.5" class="net_13,14,15,16,17,18,19,20"/>
  <line x1="235" x2="356" y1="712.5" y2="712.5" class="net_13,14,15,16,17,18,19,20"/>
  <line x1="356" x2="356" y1="712.5" y2="652.5" class="net_13,14,15,16,17,18,19,20"/>
  <circle cx="52" cy="481.5" r="2" style="fill:#000" class="net_13,14,15,16,17,18,19,20"/>
  <circle cx="235" cy="661.5" r="2" style="fill:#000" class="net_13,14,15,16,17,18,19,20"/>
  <line x1="356" x2="448.4" y1="652.5" y2="652.5" class="net_13,14,15,16,17,18,19,20"/>
  <line x1="40" x2="52" y1="481.5" y2="481.5" class="net_13,14,15,16,17,18,19,20"/>
  <line x1="52" x2="52" y1="481.5" y2="661.5" class="net_13,14,15,16,17,18,19,20"/>
  <line x1="52" x2="336" y1="661.5" y2="661.5" class="net_13,14,15,16,17,18,19,20"/>
  <line x1="336" x2="336" y1="661.5" y2="369.5" class="net_13,14,15,16,17,18,19,20"/>
  <line x1="336" x2="447" y1="369.5" y2="369.5" class="net_13,14,15,16,17,18,19,20"/>
  <line x1="40" x2="77" y1="481.5" y2="481.5" class="net_13,14,15,16,17,18,19,20"/>
  <line x1="479.4" x2="569" y1="517" y2="517" class="net_21,22,23,24,25,26,27,28"/>
  <line x1="479.4" x2="569" y1="652.5" y2="652.5" class="net_29,30,31,32,33,34,35,36"/>
</svg>
