<svg xmlns="http://www.w3.org/2000/svg" xmlns:xlink="http://www.w3.org/1999/xlink" xmlns:s="https://github.com/nturley/netlistsvg" width="477" height="241.5">
  <style>svg {
    stroke:#000;
    fill:none;
  }
  text {
    fill:#000;
    stroke:none;
    font-size:10px;
    font-weight: bold;
    font-family: "Courier New", monospace;
  }
  .nodelabel {
    text-anchor: middle;
  }
  .inputPortLabel {
    text-anchor: end;
  }
  .splitjoinBody {
    fill:#000;
  }</style>
  <g s:type="generic" transform="translate(188,66.5)" s:width="30" s:height="40" id="cell_add_inst">
    <text x="15" y="-4" class="nodelabel cell_add_inst" s:attribute="ref">pp_adder_8</text>
    <rect width="30" height="160" s:generic="body" class="cell_add_inst"/>
    <g transform="translate(0,10)" s:x="0" s:y="10" s:pid="in0" id="port_add_inst~pp0">
      <text x="-3" y="-4" class="inputPortLabel cell_add_inst">pp0</text>
    </g>
    <g transform="translate(0,30)" s:x="0" s:y="10" s:pid="in0" id="port_add_inst~pp1">
      <text x="-3" y="-4" class="inputPortLabel cell_add_inst">pp1</text>
    </g>
    <g transform="translate(0,50)" s:x="0" s:y="10" s:pid="in0" id="port_add_inst~pp2">
      <text x="-3" y="-4" class="inputPortLabel cell_add_inst">pp2</text>
    </g>
    <g transform="translate(0,70)" s:x="0" s:y="10" s:pid="in0" id="port_add_inst~pp3">
      <text x="-3" y="-4" class="inputPortLabel cell_add_inst">pp3</text>
    </g>
    <g transform="translate(0,90)" s:x="0" s:y="10" s:pid="in0" id="port_add_inst~pp4">
      <text x="-3" y="-4" class="inputPortLabel cell_add_inst">pp4</text>
    </g>
    <g transform="translate(0,110)" s:x="0" s:y="10" s:pid="in0" id="port_add_inst~pp5">
      <text x="-3" y="-4" class="inputPortLabel cell_add_inst">pp5</text>
    </g>
    <g transform="translate(0,130)" s:x="0" s:y="10" s:pid="in0" id="port_add_inst~pp6">
      <text x="-3" y="-4" class="inputPortLabel cell_add_inst">pp6</text>
    </g>
    <g transform="translate(0,150)" s:x="0" s:y="10" s:pid="in0" id="port_add_inst~pp7">
      <text x="-3" y="-4" class="inputPortLabel cell_add_inst">pp7</text>
    </g>
    <g transform="translate(30,10)" s:x="30" s:y="10" s:pid="out0" id="port_add_inst~sum">
      <text x="5" y="-4" style="fill:#000; stroke:none" class="cell_add_inst">sum</text>
    </g>
  </g>
  <g s:type="generic" transform="translate(346,26.5)" s:width="30" s:height="40" id="cell_corr_inst">
    <text x="15" y="-4" class="nodelabel cell_corr_inst" s:attribute="ref">signed_correction_8</text>
    <rect width="30" height="60" s:generic="body" class="cell_corr_inst"/>
    <g transform="translate(0,10)" s:x="0" s:y="10" s:pid="in0" id="port_corr_inst~A">
      <text x="-3" y="-4" class="inputPortLabel cell_corr_inst">A</text>
    </g>
    <g transform="translate(0,30)" s:x="0" s:y="10" s:pid="in0" id="port_corr_inst~B">
      <text x="-3" y="-4" class="inputPortLabel cell_corr_inst">B</text>
    </g>
    <g transform="translate(0,50)" s:x="0" s:y="10" s:pid="in0" id="port_corr_inst~unsigned_sum">
      <text x="-3" y="-4" class="inputPortLabel cell_corr_inst">unsigned_sum</text>
    </g>
    <g transform="translate(30,10)" s:x="30" s:y="10" s:pid="out0" id="port_corr_inst~P">
      <text x="5" y="-4" style="fill:#000; stroke:none" class="cell_corr_inst">P</text>
    </g>
  </g>
  <g s:type="generic" transform="translate(84,66.5)" s:width="30" s:height="40" id="cell_pp_inst">
    <text x="15" y="-4" class="nodelabel cell_pp_inst" s:attribute="ref">pp_gen_8x8</text>
    <rect width="30" height="160" s:generic="body" class="cell_pp_inst"/>
    <g transform="translate(0,10)" s:x="0" s:y="10" s:pid="in0" id="port_pp_inst~A">
      <text x="-3" y="-4" class="inputPortLabel cell_pp_inst">A</text>
    </g>
    <g transform="translate(0,30)" s:x="0" s:y="10" s:pid="in0" id="port_pp_inst~B">
      <text x="-3" y="-4" class="inputPortLabel cell_pp_inst">B</text>
    </g>
    <g transform="translate(30,10)" s:x="30" s:y="10" s:pid="out0" id="port_pp_inst~pp0">
      <text x="5" y="-4" style="fill:#000; stroke:none" class="cell_pp_inst">pp0</text>
    </g>
    <g transform="translate(30,30)" s:x="30" s:y="10" s:pid="out0" id="port_pp_inst~pp1">
      <text x="5" y="-4" style="fill:#000; stroke:none" class="cell_pp_inst">pp1</text>
    </g>
    <g transform="translate(30,50)" s:x="30" s:y="10" s:pid="out0" id="port_pp_inst~pp2">
      <text x="5" y="-4" style="fill:#000; stroke:none" class="cell_pp_inst">pp2</text>
    </g>
    <g transform="translate(30,70)" s:x="30" s:y="10" s:pid="out0" id="port_pp_inst~pp3">
      <text x="5" y="-4" style="fill:#000; stroke:none" class="cell_pp_inst">pp3</text>
    </g>
    <g transform="translate(30,90)" s:x="30" s:y="10" s:pid="out0" id="port_pp_inst~pp4">
      <text x="5" y="-4" style="fill:#000; stroke:none" class="cell_pp_inst">pp4</text>
    </g>
    <g transform="translate(30,110)" s:x="30" s:y="10" s:pid="out0" id="port_pp_inst~pp5">
      <text x="5" y="-4" style="fill:#000; stroke:none" class="cell_pp_inst">pp5</text>
    </g>
    <g transform="translate(30,130)" s:x="30" s:y="10" s:pid="out0" id="port_pp_inst~pp6">
      <text x="5" y="-4" style="fill:#000; stroke:none" class="cell_pp_inst">pp6</text>
    </g>
    <g transform="translate(30,150)" s:x="30" s:y="10" s:pid="out0" id="port_pp_inst~pp7">
      <text x="5" y="-4" style="fill:#000; stroke:none" class="cell_pp_inst">pp7</text>
    </g>
  </g>
  <g s:type="inputExt" transform="translate(12,22)" s:width="30" s:height="20" id="cell_A">
    <text x="15" y="-4" class="nodelabel cell_A" s:attribute="ref">A</text>
    <s:alias val="$_inputExt_"/>
    <path d="M0,0 L0,20 L15,20 L30,10 L15,0 Z" class="cell_A"/>
    <g s:x="28" s:y="10" s:pid="Y"/>
  </g>
  <g s:type="inputExt" transform="translate(12,87)" s:width="30" s:height="20" id="cell_B">
    <text x="15" y="-4" class="nodelabel cell_B" s:attribute="ref">B</text>
    <s:alias val="$_inputExt_"/>
    <path d="M0,0 L0,20 L15,20 L30,10 L15,0 Z" class="cell_B"/>
    <g s:x="28" s:y="10" s:pid="Y"/>
  </g>
  <g s:type="outputExt" transform="translate(435,27)" s:width="30" s:height="20" id="cell_P">
    <text x="15" y="-4" class="nodelabel cell_P" s:attribute="ref">P</text>
    <s:alias val="$_outputExt_"/>
    <path d="M30,0 L30,20 L15,20 L0,10 L15,0 Z" class="cell_P"/>
    <g s:x="0" s:y="10" s:pid="A"/>
  </g>
  <line x1="115" x2="188" y1="77" y2="77" class="net_34,35,36,37,38,39,40,41,42,43,44,45,46,47,48,49"/>
  <line x1="115" x2="188" y1="97" y2="97" class="net_50,51,52,53,54,55,56,57,58,59,60,61,62,63,64,65"/>
  <line x1="115" x2="188" y1="117" y2="117" class="net_66,67,68,69,70,71,72,73,74,75,76,77,78,79,80,81"/>
  <line x1="115" x2="188" y1="137" y2="137" class="net_82,83,84,85,86,87,88,89,90,91,92,93,94,95,96,97"/>
  <line x1="115" x2="188" y1="157" y2="157" class="net_98,99,100,101,102,103,104,105,106,107,108,109,110,111,112,113"/>
  <line x1="115" x2="188" y1="177" y2="177" class="net_114,115,116,117,118,119,120,121,122,123,124,125,126,127,128,129"/>
  <line x1="115" x2="188" y1="197" y2="197" class="net_130,131,132,133,134,135,136,137,138,139,140,141,142,143,144,145"/>
  <line x1="115" x2="188" y1="217" y2="217" class="net_146,147,148,149,150,151,152,153,154,155,156,157,158,159,160,161"/>
  <line x1="40" x2="248" y1="32" y2="32" class="net_2,3,4,5,6,7,8,9"/>
  <line x1="248" x2="248" y1="32" y2="37" class="net_2,3,4,5,6,7,8,9"/>
  <line x1="248" x2="346" y1="37" y2="37" class="net_2,3,4,5,6,7,8,9"/>
  <line x1="40" x2="62" y1="32" y2="32" class="net_2,3,4,5,6,7,8,9"/>
  <line x1="62" x2="62" y1="32" y2="77" class="net_2,3,4,5,6,7,8,9"/>
  <circle cx="62" cy="32" r="2" style="fill:#000" class="net_2,3,4,5,6,7,8,9"/>
  <line x1="62" x2="84" y1="77" y2="77" class="net_2,3,4,5,6,7,8,9"/>
  <line x1="40" x2="52" y1="97" y2="97" class="net_10,11,12,13,14,15,16,17"/>
  <line x1="52" x2="52" y1="97" y2="45.5" class="net_10,11,12,13,14,15,16,17"/>
  <line x1="52" x2="248" y1="45.5" y2="45.5" class="net_10,11,12,13,14,15,16,17"/>
  <line x1="248" x2="248" y1="45.5" y2="57" class="net_10,11,12,13,14,15,16,17"/>
  <circle cx="52" cy="97" r="2" style="fill:#000" class="net_10,11,12,13,14,15,16,17"/>
  <line x1="248" x2="346" y1="57" y2="57" class="net_10,11,12,13,14,15,16,17"/>
  <line x1="40" x2="84" y1="97" y2="97" class="net_10,11,12,13,14,15,16,17"/>
  <line x1="219" x2="346" y1="77" y2="77" class="net_162,163,164,165,166,167,168,169,170,171,172,173,174,175,176,177"/>
  <line x1="377" x2="435" y1="37" y2="37" class="net_18,19,20,21,22,23,24,25,26,27,28,29,30,31,32,33"/>
</svg>
